<svg xmlns="http://www.w3.org/2000/svg" width="44" height="32" viewBox="0 0 44 32">
    <g fill="none" fill-rule="nonzero">
        <path fill="#26A6D1" d="M2.748.004h38.469c1.516 0 2.747 1.245 2.747 2.78v26.398c0 1.533-1.23 2.778-2.747 2.778H2.747C1.23 31.96 0 30.715 0 29.182V2.784C0 1.249 1.23.004 2.748.004z"/>
        <path fill="#FFF" d="M7.09 11.119l-4.342 9.715h5.197l.644-1.549h1.473l.645 1.55h5.72v-1.183l.51 1.182h2.96l.51-1.207v1.207h11.897l1.447-1.508 1.355 1.508 6.11.013-4.355-4.843 4.356-4.885H35.2l-1.408 1.48-1.312-1.48H19.537l-1.112 2.507-1.137-2.507H12.1v1.142l-.577-1.142H7.09zm1.005 1.38h2.533l2.88 6.588v-6.589h2.775l2.225 4.724 2.05-4.724h2.761v6.972h-1.68l-.014-5.463-2.45 5.463h-1.503l-2.463-5.463v5.463h-3.457l-.655-1.563h-3.54l-.655 1.562H5.05l3.045-6.97zm16.761 0h6.833l2.09 2.282 2.156-2.283h2.09l-3.175 3.504 3.175 3.464h-2.184l-2.09-2.31-2.168 2.31h-6.727v-6.968zM9.327 13.677l-1.166 2.784h2.331l-1.165-2.784zm17.217.264v1.272h3.727v1.419h-3.727v1.39h4.18l1.943-2.047-1.86-2.035h-4.263z"/>
    </g>
</svg>
