<svg xmlns="http://www.w3.org/2000/svg" width="80" height="73" viewBox="0 0 80 73">
    <g fill="none" fill-rule="evenodd">
        <path fill="#FF5A5F" d="M39.794 5.437A2.718 2.718 0 1 1 39.791 0a2.718 2.718 0 0 1 .002 5.437zM39.793 67.134a2.718 2.718 0 1 1 .001 5.437 2.718 2.718 0 0 1-.001-5.437zM5.896 34.306a2.72 2.72 0 1 1-5.438 0 2.72 2.72 0 0 1 5.438 0zM73.706 34.306a2.718 2.718 0 1 0 5.436.002 2.718 2.718 0 0 0-5.436-.002zM53.045 9.406a2.719 2.719 0 1 1-5.022-2.083 2.719 2.719 0 0 1 5.022 2.083z"/>
        <path fill="#FFF" d="M30.446 34.638a2.717 2.717 0 1 1-2.08 5.021 2.717 2.717 0 0 1 2.08-5.02zM34.758 25.208a2.717 2.717 0 1 1-2.08 5.02 2.717 2.717 0 0 1 2.08-5.02z"/>
        <path fill="#FF5A5F" d="M14.916 21.026a2.717 2.717 0 1 1-2.08 5.02 2.717 2.717 0 0 1 2.08-5.02z"/>
        <path fill="#FFF" d="M43.207 28.758a2.717 2.717 0 1 1 5.022-2.08 2.717 2.717 0 0 1-5.022 2.08zM47.207 38.758a2.717 2.717 0 1 1 5.022-2.08 2.717 2.717 0 0 1-5.022 2.08z"/>
        <path fill="#FF5A5F" d="M63.204 24.576a2.718 2.718 0 1 1 5.022-2.08 2.718 2.718 0 0 1-5.022 2.08zM16.386 43.995a2.717 2.717 0 1 1-5.021 2.08 2.717 2.717 0 0 1 5.02-2.08zM64.674 47.545a2.717 2.717 0 1 1 2.08-5.02 2.717 2.717 0 0 1-2.08 5.02zM30.096 10.876a2.718 2.718 0 1 1-2.08-5.022 2.718 2.718 0 0 1 2.08 5.022zM18.5 29.479a4.828 4.828 0 1 1 0 9.656 4.828 4.828 0 0 1 0-9.656zM61.068 39.092a4.828 4.828 0 1 1 0-9.656 4.828 4.828 0 0 1 0 9.656zM28.136 15.829a4.829 4.829 0 1 1-6.83 6.828 4.829 4.829 0 0 1 6.83-6.828zM51.453 22.657a4.829 4.829 0 1 1 6.83-6.828 4.829 4.829 0 0 1-6.83 6.828z"/>
        <path fill="#FFF" d="M36.414 19.242a4.829 4.829 0 1 1 6.83-6.828 4.829 4.829 0 0 1-6.83 6.829z"/>
        <path fill="#FF5A5F" d="M49.494 57.694a2.718 2.718 0 1 1 2.08 5.023 2.718 2.718 0 0 1-2.08-5.023zM26.545 60.165a2.717 2.717 0 1 1 5.02 2.08 2.717 2.717 0 0 1-5.02-2.08zM39.773 46.752a4.829 4.829 0 1 1 0 9.658 4.829 4.829 0 0 1 0-9.658z"/>
        <path fill="#FFF" d="M28.136 45.914a4.829 4.829 0 1 1-6.83 6.828 4.829 4.829 0 0 1 6.83-6.828zM51.453 52.742a4.829 4.829 0 1 1 6.83-6.828 4.829 4.829 0 0 1-6.83 6.828z"/>
        <path fill="#FF5A5F" d="M16.457 10.609a2.719 2.719 0 1 1-4.164-3.495 2.719 2.719 0 0 1 4.164 3.495zM16.693 57.856a2.719 2.719 0 1 0-4.165 3.495 2.719 2.719 0 0 0 4.165-3.495zM62.8 57.716a2.719 2.719 0 1 1 4.165 3.496 2.719 2.719 0 0 1-4.165-3.496zM63.094 10.661a2.719 2.719 0 1 0 4.166-3.496 2.719 2.719 0 0 0-4.166 3.496z"/>
    </g>
</svg>
