<svg xmlns="http://www.w3.org/2000/svg" width="95" height="25" viewBox="0 0 95 25">
    <path fill="#FFF" fill-rule="nonzero" d="M4.657 18.876l-1.52 4.16c-.23.617-.627 1.072-1.42 1.072-.76 0-1.387-.455-1.387-1.202 0-.39.298-1.138.397-1.43l7.3-19.143c.362-1.007.957-1.755 2.08-1.755 1.123 0 1.717.748 2.08 1.755l7.3 19.143c.1.292.397 1.04.397 1.43 0 .747-.628 1.202-1.388 1.202-.792 0-1.189-.455-1.42-1.072l-1.52-4.16-5.45-14.528-5.449 14.528zM27.075 6.623V2.886c0-.943.562-1.528 1.454-1.528.891 0 1.453.585 1.453 1.528v3.737h1.189c.958 0 1.453.455 1.453 1.235s-.495 1.235-1.453 1.235h-1.19v13.488c0 .942-.56 1.527-1.452 1.527-.892 0-1.454-.585-1.454-1.527V9.093h-1.189c-.958 0-1.453-.455-1.453-1.235s.495-1.235 1.453-1.235h1.19zm14.59 1.333V22.58c0 .942-.561 1.527-1.453 1.527s-1.453-.585-1.453-1.527V7.956c0-.943.561-1.528 1.453-1.528s1.453.585 1.453 1.528zM38.43 2.333c0-.975.792-1.755 1.783-1.755.991 0 1.784.78 1.784 1.755 0 .975-.793 1.755-1.784 1.755-.99 0-1.783-.78-1.783-1.755zm14.689 20.54L48.064 8.931c-.198-.52-.297-.845-.297-1.17 0-.845.628-1.333 1.321-1.333.958 0 1.289.455 1.52 1.105l3.996 11.96h.066l3.997-11.96c.231-.65.561-1.105 1.52-1.105.693 0 1.32.488 1.32 1.333 0 .325-.099.65-.297 1.17l-5.053 13.942c-.298.845-.595 1.235-1.52 1.235s-1.222-.39-1.52-1.235zM70.516 7.956V22.58c0 .942-.562 1.527-1.454 1.527-.891 0-1.453-.585-1.453-1.527V7.956c0-.943.562-1.528 1.453-1.528.892 0 1.454.585 1.454 1.528zm-3.237-5.623c0-.975.792-1.755 1.783-1.755.991 0 1.784.78 1.784 1.755 0 .975-.793 1.755-1.784 1.755-.99 0-1.783-.78-1.783-1.755zm12.014 4.29V2.886c0-.943.561-1.528 1.453-1.528s1.453.585 1.453 1.528v3.737h1.19c.957 0 1.453.455 1.453 1.235s-.496 1.235-1.454 1.235H82.2v13.488c0 .942-.561 1.527-1.453 1.527s-1.453-.585-1.453-1.527V9.093h-1.19c-.957 0-1.453-.455-1.453-1.235s.496-1.235 1.454-1.235h1.189zm14.59 1.333V22.58c0 .942-.562 1.527-1.453 1.527-.892 0-1.454-.585-1.454-1.527V7.956c0-.943.562-1.528 1.454-1.528.891 0 1.453.585 1.453 1.528zm-3.237-5.623c0-.975.793-1.755 1.784-1.755.99 0 1.783.78 1.783 1.755 0 .975-.792 1.755-1.783 1.755-.991 0-1.784-.78-1.784-1.755z"/>
</svg>
