<svg xmlns="http://www.w3.org/2000/svg" width="108" height="108" viewBox="0 0 108 108">
    <g fill="#28AA08" fill-rule="evenodd">
        <path d="M44.647 72.882a6.34 6.34 0 0 1-4.479-1.874l-9.53-9.53a6.36 6.36 0 0 1 0-8.988 6.36 6.36 0 0 1 8.99 0l5.368 5.368 23.757-20.216a6.354 6.354 0 1 1 8.259 9.53L48.776 71.23a6.358 6.358 0 0 1-4.129 1.652z"/>
        <path d="M54 108C24.176 108 0 83.824 0 54S24.176 0 54 0s54 24.176 54 54-24.176 54-54 54zm0-95.294c-22.807 0-41.294 18.487-41.294 41.294S31.193 95.294 54 95.294 95.294 76.807 95.294 54 76.807 12.706 54 12.706z"/>
    </g>
</svg>
