<svg xmlns="http://www.w3.org/2000/svg" width="41" height="29" viewBox="0 0 41 29">
    <g fill="none" fill-rule="nonzero">
        <path fill="#6BBEA1" d="M38.726 29H2.274C1.017 29 0 28.006 0 26.779V2.22C0 .994 1.017 0 2.274 0h36.452C39.982 0 41 .994 41 2.221V26.78C41 28.006 39.982 29 38.726 29"/>
        <path fill="#498679" d="M3.534 20.024h6.362v4.143H3.534zM12.724 20.024h6.362v4.143h-6.362zM21.914 20.024h6.362v4.143h-6.362zM31.103 20.024h6.362v4.143h-6.362z"/>
        <path fill="#F0C41B" d="M13.958 12.429H4.422a.878.878 0 0 1-.888-.867V5.009c0-.478.398-.866.888-.866h9.536c.49 0 .887.388.887.866v6.553a.877.877 0 0 1-.887.867"/>
        <path fill="#F3D55C" d="M13.958 13.119H4.422c-.879 0-1.594-.699-1.594-1.557V5.009c0-.858.715-1.557 1.594-1.557h9.536c.878 0 1.594.7 1.594 1.557v6.553c0 .858-.716 1.557-1.594 1.557zM4.422 4.833c-.1 0-.18.079-.18.176v6.553c0 .097.08.176.18.176h9.536c.1 0 .18-.079.18-.176V5.009a.178.178 0 0 0-.18-.176H4.422z"/>
        <path fill="#F0C41B" d="M14.845 5.01a.877.877 0 0 0-.887-.867H8.663a.876.876 0 0 0-.887.866v6.553c0 .479.396.867.887.867h1.053c.49 0 .887-.388.887-.867v-3.79c0-.48.397-.867.888-.867h2.467c.49 0 .887-.388.887-.867V5.01z"/>
        <path fill="#F3D55C" d="M9.716 13.119H8.663c-.879 0-1.594-.699-1.594-1.557V5.009c0-.858.715-1.557 1.594-1.557h5.295c.878 0 1.594.7 1.594 1.557v1.03c0 .857-.716 1.556-1.594 1.556H11.49c-.1 0-.18.079-.18.176v3.791c0 .858-.716 1.557-1.595 1.557zM8.663 4.833c-.1 0-.18.079-.18.176v6.553c0 .097.08.176.18.176h1.053c.1 0 .18-.079.18-.176v-3.79c0-.859.716-1.558 1.595-1.558h2.467c.1 0 .18-.078.18-.176V5.01a.178.178 0 0 0-.18-.176H8.663z"/>
        <path fill="#F0C41B" d="M10.603 9.667h4.242"/>
        <path fill="#F3D55C" d="M14.845 10.357h-4.242a.699.699 0 0 1-.706-.69c0-.381.316-.69.706-.69h4.242c.39 0 .707.309.707.69 0 .38-.316.69-.707.69"/>
        <path fill="#F0C41B" d="M7.776 6.905H3.534"/>
        <path fill="#F3D55C" d="M7.776 7.595H3.534a.699.699 0 0 1-.706-.69c0-.381.316-.69.706-.69h4.242c.39 0 .707.309.707.69 0 .38-.316.69-.707.69"/>
        <path fill="#F0C41B" d="M7.776 9.667H3.534"/>
        <path fill="#F3D55C" d="M7.776 10.357H3.534a.699.699 0 0 1-.706-.69c0-.381.316-.69.706-.69h4.242c.39 0 .707.309.707.69 0 .38-.316.69-.707.69"/>
        <path fill="#498679" d="M28.276 3.452h-6.362c-.391 0-.707.31-.707.69 0 .382.316.691.707.691h6.362c.39 0 .707-.309.707-.69a.699.699 0 0 0-.707-.69M38.172 4.143a.699.699 0 0 0-.706-.69h-6.363c-.39 0-.706.309-.706.69 0 .381.316.69.706.69h6.363c.39 0 .706-.309.706-.69M22.62 6.905h-.706c-.391 0-.707.31-.707.69 0 .381.316.69.707.69h.707c.39 0 .707-.309.707-.69a.699.699 0 0 0-.707-.69M26.862 6.905h-1.414c-.39 0-.707.31-.707.69 0 .381.316.69.707.69h1.414c.391 0 .707-.309.707-.69a.699.699 0 0 0-.707-.69M30.397 6.905h-.707c-.391 0-.707.31-.707.69 0 .381.316.69.707.69h.707c.39 0 .706-.309.706-.69a.699.699 0 0 0-.706-.69M34.638 6.905h-1.414c-.39 0-.707.31-.707.69 0 .381.316.69.707.69h1.414c.39 0 .707-.309.707-.69a.699.699 0 0 0-.707-.69M36.964 7.105a.714.714 0 0 0-.205.49c0 .18.077.36.205.49.133.125.31.2.502.2a.754.754 0 0 0 .501-.2.717.717 0 0 0 .205-.49.717.717 0 0 0-.205-.49c-.268-.255-.742-.255-1.003 0"/>
    </g>
</svg>
