<svg xmlns="http://www.w3.org/2000/svg" xmlns:xlink="http://www.w3.org/1999/xlink" width="297" height="318" viewBox="0 0 297 318">
    <defs>
        <path id="a" d="M241.713 148.38c56.361-30.343 72.524-126.037 10.321-144.767C189.83-14.979 174.52 43.368 146.42 43.358c-28.304.01-38.731-30.015-76.09-30.11-37.466.095-82.292 29.312-67.45 92.497 14.947 63.118 182.376 73.183 238.833 42.635z"/>
        <linearGradient id="d" x1="50%" x2="50%" y1="0%" y2="100%">
            <stop offset="0%" stop-color="#FF6663" stop-opacity="0"/>
            <stop offset="100%" stop-opacity=".1"/>
        </linearGradient>
        <path id="c" d="M.918.908h17V234.66c0 .69-.394 1.248-.88 1.248H1.798c-.487 0-.88-.559-.88-1.248V.908z"/>
        <linearGradient id="e" x1="30.178%" x2="69.822%" y1="0%" y2="100%">
            <stop offset="0%" stop-opacity=".3"/>
            <stop offset="100%" stop-color="#FF6663" stop-opacity="0"/>
        </linearGradient>
        <linearGradient id="h" x1="50%" x2="50%" y1="-19.979%" y2="100%">
            <stop offset="0%" stop-color="#9FB1FB" stop-opacity="0"/>
            <stop offset="100%" stop-opacity=".272"/>
        </linearGradient>
        <path id="g" d="M0 0h87.833C101.733 0 113 13.47 113 30.087v70.103c0 .498-.338.902-.755.902H0V0z"/>
        <linearGradient id="j" x1="50%" x2="50%" y1="0%" y2="100%">
            <stop offset="0%" stop-color="#B0B0F9" stop-opacity="0"/>
            <stop offset="100%" stop-opacity=".05"/>
        </linearGradient>
        <path id="i" d="M125.889 101.092H2.997A3.003 3.003 0 0 1 0 98.083a3.003 3.003 0 0 1 2.997-3.008H56.95v-60.45C56.95 15.501 72.382 0 91.42 0c19.036 0 34.469 15.502 34.469 34.624v66.468z"/>
        <path id="k" d="M28.475 0C44.2 0 56.95 13.656 56.95 30.502v58.555H0V30.502C0 13.656 12.749 0 28.475 0z"/>
        <linearGradient id="l" x1="-27.422%" y1="50%" y2="50%">
            <stop offset="0%" stop-color="#464D89" stop-opacity="0"/>
            <stop offset="100%"/>
        </linearGradient>
        <linearGradient id="o" x1="50%" x2="50%" y1="0%" y2="100%">
            <stop offset="0%" stop-color="#E6E6EF" stop-opacity="0"/>
            <stop offset="100%" stop-opacity=".05"/>
        </linearGradient>
        <path id="n" d="M1.499 0h62.944c.828 0 1.499.674 1.499 1.504v47.237c0 .83-.671 1.504-1.499 1.504H1.499A1.502 1.502 0 0 1 0 48.741V1.504C0 .674.671 0 1.499 0z"/>
        <linearGradient id="r" x1="50%" x2="50%" y1="0%" y2="143.565%">
            <stop offset="0%" stop-color="#F0F0F6" stop-opacity="0"/>
            <stop offset="100%" stop-opacity=".05"/>
        </linearGradient>
        <path id="q" d="M0 44.479c20.532-9.996 31.523-14.994 32.97-14.994 1.449 0 12.44 4.998 32.972 14.994v5.766H0V44.48z"/>
        <linearGradient id="s" x1="50%" x2="50%" y1="100%" y2="0%">
            <stop offset="0%" stop-opacity=".1"/>
            <stop offset="100%" stop-color="#F0F1F5" stop-opacity="0"/>
        </linearGradient>
        <linearGradient id="u" x1="50%" x2="50%" y1="0%" y2="143.565%">
            <stop offset="0%" stop-color="#F7F7F8" stop-opacity="0"/>
            <stop offset="100%" stop-opacity=".05"/>
        </linearGradient>
        <path id="t" d="M0 17.407V0h65.942v17.407C45.409 27.465 34.419 32.494 32.97 32.494c-1.448 0-12.439-5.029-32.971-15.087z"/>
    </defs>
    <g fill="none" fill-rule="evenodd">
        <g transform="translate(1 145.76)">
            <mask id="b" fill="#fff">
                <use xlink:href="#a"/>
            </mask>
            <use fill="#F2F5F9" xlink:href="#a"/>
            <path fill="#E2EAF5" d="M19.923 140.43c-6.892 0-29.272-22.474-27.124-37.094 3.3-23.394 21.388 12.66 27.844 7.708 6.379-4.928-26.336-25.846-16.802-37.336 9.629-11.426 27.434 33.329 20.882 9.153-6.45-23.88-4.097-42.1 8.401-39.985 12.566 2.056 12.345 27.38 1.92 41.912-10.357 14.403 18.229-8.823 22.804 3.613 4.898 12.715-25.018 16.624-22.083 25.292 3.128 8.473 14.976-9.694 23.523-1.927 8.614 7.645-32.432 28.665-39.365 28.665z" mask="url(#b)" transform="matrix(-1 0 0 1 53.047 0)"/>
        </g>
        <path fill="#D3E0F1" d="M24.959 280.301c21.03-19.014 41.127-24.438 60.292-16.272 41.086 17.583 67.253 47.79 123.617 19.993 23.355-11.587 43.778-15.978 61.27-13.172-7.53 9.46-16.757 17.545-27.425 23.289-46.38 25.096-167.654 22.782-217.754-13.838z"/>
        <path fill="#B6C5D9" d="M157.733 284.491c-.21-17.678 3.42-42.975 8.89-39.01 9.582 6.77 11.26 25.705-1.2 50.585-1.85 3.716-3.332 5.01-4.482 4.551-.63.325-1.737-.21-3.44-1.902-12.624-12.62-15.629-24.762-11.521-31.314 2.11-3.092 7.85 7.164 11.753 17.09z"/>
        <path fill="#E2EAF5" d="M223.03 301.847c-71.323-45.683-10.918-60.665-6.48-70.095 4.602-9.572-23.625-31.386-14.403-44.08 9.152-12.005 33.472 5.787 33.605-8.431-.133-14.252-22.127-18.165-29.524-42.635-6.704-24.472 39.36-36.67 50.887-2.65 11.218 33.79-7.123 48.245 6.96 50.102 14.182 2.473 30.201-4.69 31.925 10.84 1.399 15.798-39.04 25.173-38.885 39.744-.155 14.08 51.466 48.125-34.085 67.205z"/>
        <path fill="#F2F5F9" d="M123.657 152.022c4.714 17.26 21.68 24.681 28.564 19.27 6.781-5.634 3.138-20.876-3.601-29.146-6.926-8.129-29.815-7.594-24.963 9.876z"/>
        <path fill="#B6C5D9" fill-rule="nonzero" d="M212.153 267.306c1.498-2.497 4.142-5.503 7.5-8.34 6.346-5.358 12.84-8.082 14.506-6.084 1.666 1.998-2.127 7.961-8.473 13.32-5.145 4.345-10.388 6.958-13.076 6.725-.03 7.455-2.804 14.255-9.067 20.903l-.872-.828c6.089-6.462 8.74-13.006 8.74-20.197l-.002-.297a1.54 1.54 0 0 1-.126-.111c-1.328 2.187-8.176.768-15.372-3.2-7.248-3.996-12.105-9.064-10.848-11.32 1.257-2.255 8.152-.844 15.4 3.152 5.186 2.86 9.149 6.268 10.522 8.802a7.57 7.57 0 0 1 .216-.63c-.219-1.938-.609-3.953-1.163-6.104-.697-2.709-1.467-5.067-3.045-9.546-1.802-5.114-2.382-6.848-3.074-9.405-.05-.185-.098-.37-.146-.552-1.48 2.039-8.223.602-15.303-3.302-7.248-3.996-12.105-9.064-10.848-11.32 1.257-2.255 8.152-.844 15.4 3.152 4.61 2.542 8.254 5.518 9.97 7.928-.321-1.83-.485-3.55-.485-5.221 0-4.266.596-8.476 1.744-12.987a84.513 84.513 0 0 1 1.774-6.01c-2.438.37-6.934-4.461-10.422-11.346-3.728-7.356-4.894-14.27-2.605-15.442 2.289-1.173 7.166 3.84 10.893 11.196 2.101 4.146 3.389 8.152 3.702 11.068l.47-1.313c1.27-3.524 1.474-4.098 1.984-5.593 1.213-3.56 2.099-6.634 2.676-9.499-2.191-1.255-3.855-7.413-3.855-14.821 0-8.315 2.096-15.055 4.68-15.055 2.586 0 4.681 6.74 4.681 15.055 0 7.924-1.903 14.418-4.32 15.01-.588 2.936-1.49 6.074-2.727 9.7-.513 1.505-.718 2.08-1.99 5.612l-.203.566c1.894-2.048 4.74-4.312 8.144-6.348 7.1-4.247 13.936-5.897 15.27-3.686 1.336 2.212-3.338 7.447-10.437 11.694-6.656 3.982-13.081 5.68-14.958 4.055a81.789 81.789 0 0 0-1.594 5.455c-1.125 4.42-1.707 8.53-1.707 12.689 0 1.49.137 3.03.408 4.662 1.314-2.68 4.233-6.168 8.098-9.432 6.345-5.358 12.84-8.083 14.505-6.084 1.666 1.998-2.127 7.961-8.473 13.32-5.17 4.367-10.441 6.984-13.116 6.721.66 2.417 1.25 4.177 2.996 9.132 1.59 4.51 2.366 6.893 3.075 9.646.403 1.563.722 3.06.953 4.51z"/>
        <path fill="#D3E0F1" d="M232.802 298.667c-21.993 8.532-54.275 12.684-87.738 12.027 24.143-24.73 44.626-32.878 61.45-24.445 8.673 4.35 17.568 8.642 26.288 12.418z"/>
        <g>
            <g transform="translate(162.082 100.092)">
                <mask id="f" fill="#fff">
                    <use xlink:href="#c"/>
                </mask>
                <use fill="#FF5A5F" xlink:href="#c"/>
                <use fill="url(#d)" xlink:href="#c"/>
                <path fill="url(#e)" d="M.918.908h17v27z" mask="url(#f)"/>
            </g>
            <g transform="translate(121.42)">
                <use fill="#3C506B" xlink:href="#g"/>
                <use fill="url(#h)" xlink:href="#g"/>
            </g>
            <path fill="#475F81" d="M175.862 43.626h40.165a3.003 3.003 0 0 1 2.997 3.009v19.857a3.003 3.003 0 0 1-2.997 3.009h-40.165a3.003 3.003 0 0 1-2.997-3.009V46.635a3.003 3.003 0 0 1 2.997-3.009z"/>
            <g transform="translate(30)">
                <use fill="#B5C5DA" xlink:href="#i"/>
                <use fill="url(#j)" xlink:href="#i"/>
            </g>
            <g transform="translate(92.944 6.017)">
                <mask id="m" fill="#fff">
                    <use xlink:href="#k"/>
                </mask>
                <use fill="#3C506B" xlink:href="#k"/>
                <path fill="url(#l)" d="M49.456 0c15.726 0 28.475 13.656 28.475 30.502v58.555h-56.95V30.502C20.981 13.656 33.73 0 49.456 0z" mask="url(#m)"/>
            </g>
            <g transform="translate(66.268 32.795)">
                <mask id="p" fill="#fff">
                    <use xlink:href="#n"/>
                </mask>
                <use fill="#E6E6EF" xlink:href="#n"/>
                <use fill="url(#o)" xlink:href="#n"/>
                <g mask="url(#p)">
                    <use fill="#F7F7F8" xlink:href="#q"/>
                    <use fill="url(#r)" xlink:href="#q"/>
                </g>
                <path fill="url(#s)" d="M0 20.351V3.009h65.942V20.35C45.409 31.656 34.419 37.308 32.97 37.308c-1.448 0-12.439-5.652-32.971-16.957z" mask="url(#p)"/>
                <g mask="url(#p)">
                    <use fill="#F7F7F8" xlink:href="#t"/>
                    <use fill="url(#u)" xlink:href="#t"/>
                </g>
            </g>
            <g fill="#FEEC80" transform="translate(46.785)">
                <ellipse cx="47.658" cy="11.734" rx="3.897" ry="3.911"/>
                <ellipse cx="22.18" cy="18.654" rx="3.897" ry="3.911"/>
                <ellipse cx="27.576" cy="1.504" rx="1.499" ry="1.504"/>
                <ellipse cx="2.248" cy="13.99" rx="2.248" ry="2.257"/>
                <ellipse cx="63.394" cy="22.415" rx="2.248" ry="2.257"/>
                <ellipse cx="96.215" cy="55.059" rx="3.897" ry="3.911"/>
                <ellipse cx="91.419" cy="67.094" rx="1.499" ry="1.504"/>
                <ellipse cx="70.438" cy="10.831" rx="1.499" ry="1.504"/>
                <ellipse cx="90.82" cy="23.769" rx="3.897" ry="3.911"/>
            </g>
        </g>
    </g>
</svg>
