<svg xmlns="http://www.w3.org/2000/svg" xmlns:xlink="http://www.w3.org/1999/xlink" width="299" height="232" viewBox="0 0 299 232">
    <defs>
        <path id="a" d="M0 .172h26.352V11.05H0z"/>
        <path id="c" d="M.48.624h67.596V46.66H.48z"/>
        <path id="e" d="M4.324.547L.337 5.631l11.975 6.12L37.47 24.305l6.911 9.186 21.962-9.064L51.091 6.14C50.141 4.35 13.48.534 5.095.533c-.292 0-.55.004-.771.014"/>
        <linearGradient id="f" x1="66.472%" x2="5.013%" y1="52.649%" y2="42.387%">
            <stop offset="0%" stop-color="#FFBA8C"/>
            <stop offset="100%" stop-color="#ED9C67"/>
        </linearGradient>
        <path id="h" d="M49.774.456L6.328 4.249a6.222 6.222 0 0 0-4.23 2.207 6.202 6.202 0 0 0-1.442 4.542l8.76 99.945a6.207 6.207 0 0 0 2.21 4.223 6.228 6.228 0 0 0 4.55 1.44l43.444-3.795a6.226 6.226 0 0 0 4.23-2.206 6.201 6.201 0 0 0 1.443-4.542l-8.76-99.945a6.208 6.208 0 0 0-2.21-4.223 6.217 6.217 0 0 0-4.55-1.44M11.876 114.87a5.82 5.82 0 0 1-2.072-3.96l-8.76-99.945a5.813 5.813 0 0 1 1.352-4.26 5.84 5.84 0 0 1 3.967-2.069L49.807.842a5.84 5.84 0 0 1 4.267 1.35 5.821 5.821 0 0 1 2.073 3.96l8.76 99.945a5.82 5.82 0 0 1-1.353 4.259 5.835 5.835 0 0 1-3.967 2.069l-43.445 3.794a5.853 5.853 0 0 1-4.267-1.35"/>
        <linearGradient id="i" x1="34.387%" x2="67.797%" y1="14.336%" y2="90.654%">
            <stop offset="0%" stop-color="#2F4459"/>
            <stop offset="100%" stop-color="#B1BFC6"/>
        </linearGradient>
        <path id="k" d="M11.416.45L5.155.997A4.997 4.997 0 0 0 1.758 2.77a4.98 4.98 0 0 0-1.16 3.647l8.743 99.748a4.987 4.987 0 0 0 1.775 3.391 5.007 5.007 0 0 0 3.655 1.158l6.261-.547a.195.195 0 0 0 .177-.21.194.194 0 0 0-.21-.176l-6.262.546a4.612 4.612 0 0 1-3.37-1.067 4.6 4.6 0 0 1-1.64-3.129L.985 6.384a4.596 4.596 0 0 1 1.07-3.365A4.615 4.615 0 0 1 5.19 1.383L11.45.837a.195.195 0 0 0 .177-.21.195.195 0 0 0-.194-.178h-.017"/>
        <linearGradient id="l" x1="48.935%" x2="50.303%" y1="50.535%" y2="49.897%">
            <stop offset="0%" stop-color="#495B6E"/>
            <stop offset="100%" stop-color="#2F4459"/>
        </linearGradient>
        <path id="n" d="M27.453.185L4.68 2.174l.845 3.182c.068.255.304.42.566.397l4.992-.436a1.06 1.06 0 0 1 1.11.776 1.058 1.058 0 0 1-.958.956l-5.141.45-4.921.429a1.057 1.057 0 0 1-1.11-.776 1.056 1.056 0 0 0 1.142 1.142L6.19 7.86l27.363 102.979 3.57-.311c2.863-.25 5.003-2.797 4.752-5.654l-8.76-99.945C32.878 2.223 30.581.164 27.91.164c-.151 0-.304.007-.456.02"/>
        <path id="p" d="M.024 7.77a7.59 7.59 0 0 0 1.193 4.084l6.344 9.934a.67.67 0 0 0 .565.306h.006a.67.67 0 0 0 .565-.315l6.182-10.03a7.596 7.596 0 0 0 1.126-3.979c0-4.28-3.583-7.764-7.99-7.764C3.61.006.025 3.49.025 7.77zm2.325 3.402A6.331 6.331 0 0 1 1.348 7.77c0-3.567 2.996-6.478 6.667-6.478 3.672 0 6.664 2.91 6.664 6.478 0 1.17-.33 2.317-.943 3.315l-5.62 9.118-5.767-9.03z"/>
        <path id="r" d="M.179 3.936c0 2.127 1.763 3.883 3.995 3.883 2.26 0 3.995-1.779 3.995-3.883 0-2.14-1.793-3.882-3.995-3.882C1.97.054.179 1.795.179 3.936zm1.322 0c0-1.427 1.204-2.597 2.673-2.597s2.668 1.17 2.668 2.597c0 1.41-1.169 2.597-2.668 2.597-1.477 0-2.673-1.166-2.673-2.597z"/>
        <path id="t" d="M3.38 1.846L1.112 3.888.316 8.232l1.532 4.005 5.525 8.626 5.074-7.44 2.374-4.725-.783-4.81-3.995-2.596L6.17.608 3.38 1.846zm.922 6.136a3.07 3.07 0 0 1 3.073-3.068 3.07 3.07 0 0 1 3.073 3.068 3.07 3.07 0 0 1-3.073 3.067 3.07 3.07 0 0 1-3.073-3.067z"/>
        <path id="v" d="M.464 7.93c0 1.446.413 2.858 1.192 4.083L8 21.946a.67.67 0 0 0 .565.306h.006a.67.67 0 0 0 .566-.315l6.181-10.029a7.588 7.588 0 0 0 1.127-3.978c0-4.283-3.585-7.766-7.99-7.766C4.048.164.465 3.647.465 7.93zm2.325 3.4a6.333 6.333 0 0 1-1.002-3.4c0-3.569 2.996-6.48 6.668-6.48 3.67 0 6.662 2.911 6.662 6.48 0 1.17-.328 2.316-.942 3.314l-5.62 9.118L2.79 11.33z"/>
        <path id="x" d="M.618 4.095c0 2.127 1.763 3.882 3.996 3.882 2.259 0 3.994-1.778 3.994-3.882 0-2.141-1.792-3.883-3.994-3.883C2.41.212.618 1.954.618 4.095zm1.323 0c0-1.427 1.203-2.598 2.673-2.598 1.468 0 2.667 1.17 2.667 2.598 0 1.41-1.168 2.597-2.667 2.597-1.477 0-2.673-1.167-2.673-2.597z"/>
        <path id="z" d="M3.179 1.366L.912 3.408.115 7.75l1.532 4.005 5.525 8.627 5.074-7.442 2.374-4.723-.783-4.81L9.842.81 5.969.128 3.18 1.366zM4.1 7.5a3.07 3.07 0 0 1 3.074-3.067A3.07 3.07 0 0 1 10.247 7.5a3.07 3.07 0 0 1-3.072 3.068A3.07 3.07 0 0 1 4.1 7.501z"/>
        <path id="B" d="M.522 7.84c0 1.448.412 2.86 1.193 4.085l6.343 9.933c.121.19.335.305.565.305h.006a.667.667 0 0 0 .566-.314l6.18-10.03a7.599 7.599 0 0 0 1.128-3.978c0-4.282-3.585-7.766-7.99-7.766C4.106.075.521 3.56.521 7.841zm2.324 3.403A6.334 6.334 0 0 1 1.845 7.84c0-3.568 2.996-6.48 6.667-6.48 3.672 0 6.664 2.912 6.664 6.48 0 1.17-.33 2.317-.943 3.314l-5.62 9.118-5.767-9.03z"/>
        <path id="D" d="M.035 4.006c0 2.128 1.763 3.883 3.995 3.883 2.26 0 3.996-1.778 3.996-3.883 0-2.14-1.792-3.882-3.996-3.882C1.828.124.035 1.866.035 4.006zm1.324 0c0-1.427 1.203-2.597 2.671-2.597 1.47 0 2.668 1.17 2.668 2.597 0 1.41-1.167 2.597-2.668 2.597-1.475 0-2.671-1.165-2.671-2.597z"/>
        <path id="F" d="M3.236 1.278L.97 3.32.172 7.662l1.532 4.006 5.525 8.627 5.074-7.442 2.375-4.723-.783-4.81L9.9.722 6.026.04l-2.79 1.238zm.922 6.135a3.07 3.07 0 0 1 3.074-3.068 3.07 3.07 0 0 1 3.073 3.068 3.07 3.07 0 0 1-3.073 3.067 3.07 3.07 0 0 1-3.074-3.067z"/>
        <path id="H" d="M.376 8.227c0 1.447.413 2.858 1.193 4.083l6.343 9.933a.67.67 0 0 0 .566.306h.005a.67.67 0 0 0 .566-.314l6.18-10.03a7.59 7.59 0 0 0 1.128-3.978c0-4.282-3.584-7.766-7.99-7.766C3.96.461.377 3.945.377 8.227zm2.325 3.401a6.331 6.331 0 0 1-1.002-3.401c0-3.568 2.996-6.48 6.668-6.48 3.671 0 6.663 2.912 6.663 6.48 0 1.17-.33 2.316-.942 3.314l-5.62 9.119L2.7 11.628z"/>
        <path id="J" d="M.53 4.392c0 2.128 1.763 3.883 3.995 3.883 2.26 0 3.996-1.779 3.996-3.883C8.52 2.251 6.728.509 4.525.509 2.322.51.53 2.251.53 4.392zm1.323 0c0-1.427 1.204-2.597 2.672-2.597 1.468 0 2.668 1.17 2.668 2.597 0 1.41-1.168 2.597-2.668 2.597-1.477 0-2.672-1.166-2.672-2.597z"/>
        <path id="L" d="M3.091 1.663L.824 3.705.026 8.048l1.532 4.005 5.526 8.628 5.074-7.442 2.374-4.724-.782-4.81-3.996-2.597L5.88.425 3.09 1.663zm.922 6.136A3.07 3.07 0 0 1 7.086 4.73a3.07 3.07 0 0 1 3.074 3.068 3.07 3.07 0 0 1-3.074 3.067A3.07 3.07 0 0 1 4.013 7.8z"/>
        <path id="N" d="M.408 7.845c0 1.447.413 2.858 1.193 4.083l6.343 9.934c.121.19.335.305.566.305h.005a.671.671 0 0 0 .566-.314l6.181-10.03a7.6 7.6 0 0 0 1.127-3.978c0-4.281-3.585-7.766-7.99-7.766C3.993.08.409 3.564.409 7.845zm2.325 3.402A6.334 6.334 0 0 1 1.73 7.845c0-3.568 2.996-6.48 6.668-6.48 3.671 0 6.663 2.912 6.663 6.48 0 1.17-.329 2.316-.943 3.314l-5.62 9.118-5.766-9.03z"/>
        <path id="P" d="M.562 4.01c0 2.127 1.763 3.882 3.995 3.882 2.26 0 3.996-1.778 3.996-3.882C8.553 1.869 6.76.127 4.557.127 2.354.127.562 1.87.562 4.01zm1.323 0c0-1.427 1.204-2.597 2.672-2.597 1.47 0 2.668 1.17 2.668 2.597 0 1.41-1.168 2.597-2.668 2.597-1.476 0-2.672-1.166-2.672-2.597z"/>
        <path id="R" d="M3.123 1.28L.856 3.324.058 7.666l1.532 4.006 5.526 8.626 5.074-7.441 2.374-4.724-.782-4.81L9.786.726 5.913.043l-2.79 1.238zm.922 6.137a3.07 3.07 0 0 1 3.073-3.068 3.07 3.07 0 0 1 3.074 3.068 3.071 3.071 0 0 1-3.074 3.068 3.071 3.071 0 0 1-3.073-3.068z"/>
        <path id="T" d="M.234 8.116c0 1.447.413 2.859 1.193 4.083l6.343 9.934c.122.19.336.306.566.306h.005a.67.67 0 0 0 .566-.315l6.181-10.03a7.59 7.59 0 0 0 1.127-3.978c0-4.281-3.585-7.765-7.99-7.765C3.819.35.235 3.835.235 8.116zm2.325 3.402a6.326 6.326 0 0 1-1.002-3.402c0-3.568 2.997-6.48 6.668-6.48 3.672 0 6.663 2.912 6.663 6.48 0 1.17-.33 2.316-.943 3.314l-5.62 9.119-5.766-9.031z"/>
        <path id="V" d="M.388 4.281c0 2.128 1.763 3.883 3.995 3.883 2.26 0 3.996-1.778 3.996-3.883C8.379 2.141 6.586.4 4.383.4 2.18.399.388 2.14.388 4.28zm1.323 0c0-1.427 1.203-2.596 2.672-2.596s2.668 1.17 2.668 2.596c0 1.41-1.168 2.598-2.668 2.598-1.476 0-2.672-1.166-2.672-2.598z"/>
        <path id="X" d="M3.59 1.552L1.322 3.594.525 7.938l1.532 4.005 5.525 8.627 5.074-7.442 2.375-4.724-.783-4.81L10.252.998 6.38.315 3.59 1.552zM4.51 7.69A3.071 3.071 0 0 1 7.584 4.62a3.07 3.07 0 0 1 3.074 3.069 3.07 3.07 0 0 1-3.074 3.067 3.07 3.07 0 0 1-3.073-3.067z"/>
        <path id="Z" d="M.554 8.258c0 1.447.412 2.858 1.193 4.083l6.342 9.934a.67.67 0 0 0 .566.305h.006a.669.669 0 0 0 .566-.314l6.18-10.03a7.592 7.592 0 0 0 1.128-3.978c0-4.282-3.585-7.766-7.99-7.766C4.137.492.553 3.976.553 8.258zm2.325 3.401a6.323 6.323 0 0 1-1.002-3.401c0-3.568 2.996-6.48 6.667-6.48s6.663 2.912 6.663 6.48c0 1.17-.33 2.316-.942 3.314l-5.62 9.119-5.766-9.032z"/>
        <path id="ab" d="M.067 4.423c0 2.127 1.763 3.883 3.995 3.883 2.26 0 3.996-1.78 3.996-3.883 0-2.14-1.793-3.882-3.996-3.882C1.86.54.067 2.282.067 4.423zm1.323 0c0-1.427 1.204-2.596 2.672-2.596 1.47 0 2.668 1.169 2.668 2.596 0 1.41-1.168 2.597-2.668 2.597-1.475 0-2.672-1.166-2.672-2.597z"/>
        <path id="ad" d="M3.269 1.694L1 3.736.204 8.08l1.532 4.004 5.525 8.628 5.074-7.442 2.375-4.724-.783-4.81L9.932 1.14 6.059.456l-2.79 1.238zM4.19 7.83a3.07 3.07 0 0 1 3.073-3.068 3.07 3.07 0 0 1 3.073 3.068 3.07 3.07 0 0 1-3.073 3.068A3.07 3.07 0 0 1 4.19 7.83z"/>
        <path id="af" d="M.413 7.866a7.59 7.59 0 0 0 1.193 4.083l6.343 9.933a.67.67 0 0 0 .566.307h.005a.67.67 0 0 0 .565-.315l6.182-10.03a7.593 7.593 0 0 0 1.127-3.978C16.394 3.584 12.81.1 8.404.1 3.997.1.413 3.584.413 7.866zm2.325 3.402a6.333 6.333 0 0 1-1.002-3.402c0-3.568 2.996-6.48 6.668-6.48 3.671 0 6.663 2.912 6.663 6.48 0 1.17-.329 2.316-.943 3.313l-5.62 9.12-5.766-9.031z"/>
        <path id="ah" d="M.567 4.03c0 2.128 1.763 3.884 3.995 3.884 2.26 0 3.995-1.78 3.995-3.883 0-2.14-1.792-3.883-3.995-3.883C2.36.148.567 1.891.567 4.031zm1.323 0c0-1.426 1.204-2.596 2.672-2.596 1.469 0 2.668 1.17 2.668 2.597 0 1.41-1.167 2.597-2.668 2.597-1.476 0-2.672-1.166-2.672-2.597z"/>
        <path id="aj" d="M3.128 1.302L.86 3.344.063 7.687l1.533 4.006 5.524 8.626 5.075-7.441 2.375-4.723-.783-4.811L9.79.747 5.918.064l-2.79 1.238zm.922 6.136A3.07 3.07 0 0 1 7.123 4.37a3.07 3.07 0 0 1 3.074 3.068 3.07 3.07 0 0 1-3.074 3.067A3.07 3.07 0 0 1 4.05 7.438z"/>
        <path id="al" d="M48.2.573L3.22 4.695a2.871 2.871 0 0 0-2.592 3.11l9.13 99.274a2.873 2.873 0 0 0 3.116 2.588l44.98-4.122a2.87 2.87 0 0 0 2.591-3.11L51.317 3.16a2.874 2.874 0 0 0-2.855-2.6c-.086 0-.174.004-.262.012z"/>
        <path id="an" d="M48.2.573L3.22 4.695a2.871 2.871 0 0 0-2.592 3.11l9.13 99.274a2.875 2.875 0 0 0 2.58 2.587l46.737-4.524a2.893 2.893 0 0 0 1.244-1.568L50.385 1.305a2.867 2.867 0 0 0-1.923-.744c-.086 0-.174.004-.262.012z"/>
        <path id="ap" d="M48.2.573L3.22 4.695a2.871 2.871 0 0 0-2.592 3.11l9.13 99.274a2.875 2.875 0 0 0 2.58 2.587l46.737-4.524a2.893 2.893 0 0 0 1.244-1.568L50.385 1.305a2.867 2.867 0 0 0-1.923-.744c-.086 0-.174.004-.262.012z"/>
        <path id="ar" d="M48.2.573L3.22 4.695a2.871 2.871 0 0 0-2.592 3.11l9.13 99.274a2.875 2.875 0 0 0 2.58 2.587l46.737-4.524a2.893 2.893 0 0 0 1.244-1.568L50.385 1.305a2.867 2.867 0 0 0-1.923-.744c-.086 0-.174.004-.262.012z"/>
        <path id="at" d="M6.646.323C4.606.324 2.847.996 1.58 2.507A5.802 5.802 0 0 0 .183 6.283v.105c.033 3.997 3.694 8.921 10.297 13.475 6.852 5.217 11.587 9.032 15 11.48 6.396 4.589 6.89 15.405 26.76 24.561 15.331 6.51 11.571 5.774 24.212 13.173l39.568 38.463 14.923-40.595s-33.18-22.973-43.51-29.932l-19.169-22.81c-5.133 1.5-24.916 8.008-29.196 6.837-4.744-1.3-13.108-10.676-22.154-16.809C13.34 1.809 9.689.324 6.655.323h-.01z"/>
        <linearGradient id="au" x1="56.597%" x2="86.49%" y1="53.669%" y2="70.384%">
            <stop offset="0%" stop-color="#FFBA8C"/>
            <stop offset="100%" stop-color="#FFF"/>
        </linearGradient>
        <path id="aw" d="M.121 10.892c0 1.95.556 3.851 1.607 5.502l8.547 13.386a.905.905 0 0 0 .764.413h.006a.905.905 0 0 0 .763-.425l8.33-13.515a10.235 10.235 0 0 0 1.518-5.361c0-5.77-4.83-10.464-10.767-10.464C4.95.428.12 5.122.12 10.892zm3.133 4.584a8.524 8.524 0 0 1-1.35-4.584c0-4.808 4.037-8.732 8.985-8.732 4.947 0 8.978 3.924 8.978 8.732 0 1.577-.444 3.12-1.27 4.466l-7.572 12.287-7.771-12.17z"/>
        <path id="ay" d="M.383 5.779c0 2.866 2.376 5.232 5.384 5.232 3.044 0 5.383-2.398 5.383-5.232 0-2.885-2.415-5.232-5.383-5.232C2.797.547.383 2.894.383 5.78zm1.782 0c0-1.924 1.622-3.5 3.602-3.5 1.978 0 3.595 1.576 3.595 3.5 0 1.9-1.575 3.5-3.595 3.5-1.99 0-3.602-1.572-3.602-3.5z"/>
        <path id="aA" d="M4.224 2.269L1.17 5.02.095 10.874l2.065 5.397 7.445 11.625 6.837-10.029 3.2-6.364-1.056-6.482-5.383-3.5-5.22-.92-3.759 1.668zm1.243 8.268a4.138 4.138 0 0 1 4.141-4.134 4.138 4.138 0 0 1 4.142 4.134 4.138 4.138 0 0 1-4.142 4.134 4.138 4.138 0 0 1-4.141-4.134z"/>
    </defs>
    <g fill="none" fill-rule="evenodd">
        <path fill="#E2EAF5" d="M246.33 24.623c52.315 26.11 52.315 68.444 0 94.555-52.313 26.11-137.132 26.11-189.446 0-52.315-26.11-52.315-68.445 0-94.555 52.314-26.111 137.133-26.11 189.446 0"/>
        <path fill="#E2EAF5" d="M220.39 91.915l1.649-33.118 59.512 16.998-24.298 16.17-6.24 8.383z"/>
        <path fill="#B6C5D9" d="M133.384 87.888l-8.32 6.323-9.622-3.156 8.321-6.32zM234.36 101.054l-8.32 6.321-9.623-3.155 8.32-6.322zM263.003 56.416l-8.32 6.32-9.622-3.154 8.321-6.32zM284.126 40.216l-8.32 6.322-9.623-3.154 8.32-6.322zM140.847 64.273l6.645-4.937 12.21 3.55-7.572 4.473zM255.011 50.491l6.646-4.936 12.208 3.547-7.572 4.475zM155.838 68.517l16.46 5.051 6.337-4.474-14.837-4.32zM158.543 56.137l5.487 1.58 8.036-6.71-5.795-1.66zM198.11 66.473l5.485 1.581 8.037-6.712-5.796-1.659zM157.58 98.353l5.487 1.582 8.038-6.71-5.797-1.658zM178.094 62.114l7.883 2.314 8.732-7.907-8.423-1.658zM225.786 133.471l2.256 4.423 17.399-2.469-3.571-4.154zM191.85 122.43l2.53 4.385 17.237-2.74-3.827-4.097zM185.667 76.847l7.882 2.315 8.733-7.907-8.423-1.66zM180.642 95.387l7.883 2.315 8.732-7.907-8.423-1.66zM252.553 136.675l9.067-.588-2.833-8.918-8.688 1.272zM171.464 105.147l7.883 2.314 8.731-7.906-8.422-1.66zM183.968 52.779l8.113 1.35 2.86-2.739-7.96-2.505zM163.877 113.784l7.58 1.979 3.695-2.478-7.06-3.107zM163.798 46.184l3.092-2.776 11.9 3.548-3.942 2.738zM127.323 82.209l8.887 2.893 7.263-5.555-10.276-2.893zM231.8 107.818l8.889 2.893 7.265-5.554-10.279-2.892zM145.888 105.238l9.58 2.275 5.717-5.986-10.958-2.185zM114.34 63.31l19.01 5.552-7.418 5.324-18.933-6.286zM160.153 79.286l19.008 5.554-7.416 5.324-18.934-6.287zM187.574 42.16l4.687-4.088 11.644 3.24-4.74 4.37zM202.05 46.558l14.58 4.036 5.409-4.5-15.609-3.676zM267.89 66.615l14.58 4.035 5.41-4.501-15.612-3.675zM215.446 17.039l6.697 1.594s4.531-4.371 4.43-4.474c-.104-.103-6.13-1.466-6.13-1.466l-4.997 4.346zM231.853 4.375l5.05 1.543 4.224-3.6-5.152-1.49zM225.105 18.414l10.304 2.726 4.224-3.086-10.56-2.752zM238.139 21.654l3.245-3.009 12.366 3.292-3.71 3.446zM229.69 53.95l3.244-3.008 12.365 3.29-3.709 3.446z"/>
        <path fill="#E2EAF5" d="M195.25 30.82l14.837-11.725 36.887 11.21-14.012 11.726z"/>
        <path fill="#FFF" d="M255.224 89.715l-7.332 9.742-25.44-7.979 1.889-32.223 54.426 16.784-23.543 13.676zm6.713 32.44l-30.064 5.103-20.245-20.89 8.875-11.286 30.657 9.64 1.326-1.944 9.451 19.378zM179.34 77.958l27.585-24.07 12.26 3.78-1.885 32.195-37.96-11.905zm-42.187-13.232l9.406-7.362 37.1 11.55-8.765 7.65-37.741-11.838zm29.656-23.208l15.02 4.63-17.681 13.607-14.768-4.597 17.43-13.64zm35.65 10.992l-16.195 14.13-17.666-5.499 17.694-13.616 16.167 4.985zm-8.313-19.549l35.849 10.702-11.966 9.708-35.444-11.03 11.561-9.38zm16.371-13.281l35.85 10.701-13.623 11.052-35.849-10.702 13.622-11.051zm16.15-13.103l35.85 10.701-13.4 10.872-35.85-10.7 13.4-10.873zm62.12 33.442l-33.02 25.094-31.801-9.896 31.464-25.527 33.357 10.329zm.514 29.828l-.539.388-5.77 3.35-22.772-7.085 33.023-25.1 3.155.977c.297-.329.593-.658.898-.98.388-.488.781-.974 1.173-1.46l-40.29-12.478 13.224-10.726-5.085-2.539-1.051.854-35.851-10.7 3.64-2.954-1.339-.41-5.078 2.534-3.824 1.91h.001l-7.647 3.815-38.52 31.25-14.839-4.617-5.078 2.534 5.615 1.731-29.637 23.192-15.912-4.99-4.852 2.42-.162.128 42.184 13.268-30.142 23.048 3.79 1.907 30.79-23.561 24.512 7.71-28.155 29.373 3.912 1.979 28.71-29.947 28.601 8.995-9.91 12.6 20.86 21.835-30.76 5.221 4.16 2.077 62.85-10.686 6.125 12.553 5.797-2.894-18.87-37.098 2.652-3.895 5.66-3.264 20.142 5.868a25.59 25.59 0 0 1 1.61-2.672l-18.055-5.33 24.923-14.382.15-.11-.03-.032a300.065 300.065 0 0 0-3.989-3.607z"/>
        <path fill="#D1D1D1" d="M127.36 100.864l-8.32 6.322-9.622-3.155 8.32-6.323zM146.856 53.228l-.473-.156-8.321 6.32 8.794 2.884zM118.786 133.282l2.257 4.423 17.398-2.469-3.57-4.154zM146.856 127.702l-3.757.55 2.454 8.234 1.303-.085zM124.802 107.629l8.887 2.893 7.265-5.554-10.279-2.892z"/>
        <path fill="#E2EAF5" d="M146.856 67.696l-31.816-9.088-1.649 33.117 30.621 8.434 2.844-3.818z"/>
        <path fill="#B6C5D9" d="M26.385 87.698l-8.321 6.324-9.621-3.156 8.321-6.321zM50.58 98.164l5.487 1.582 8.038-6.711-5.797-1.657zM84.851 122.24l2.53 4.386 17.236-2.74-3.827-4.097zM78.667 76.657l7.883 2.315 8.733-7.906-8.423-1.66zM73.642 95.198l7.884 2.315 8.731-7.906-8.423-1.661zM64.464 104.958l7.884 2.314 8.73-7.906-8.422-1.66zM56.878 113.595l7.58 1.979 3.695-2.478-7.06-3.107zM38.889 105.049l9.579 2.275 5.718-5.986-10.958-2.185zM53.153 79.097l19.009 5.554-7.417 5.324-18.934-6.288zM33.848 64.084l6.645-4.938 12.21 3.55-7.573 4.473zM48.84 68.328l16.459 5.051 6.337-4.474-14.838-4.32zM51.544 55.947l5.486 1.582 8.037-6.712-5.796-1.659zM91.11 66.283l5.486 1.582 8.037-6.711-5.796-1.66zM71.094 61.924l7.884 2.315 8.732-7.908-8.424-1.657zM76.968 52.59l8.113 1.35 2.86-2.739-7.96-2.506zM56.798 45.995l3.092-2.776 11.9 3.547-3.941 2.739zM20.324 82.02l8.887 2.893 7.263-5.556-10.277-2.892z"/>
        <g transform="translate(0 62.948)">
            <mask id="b" fill="#fff">
                <use xlink:href="#a"/>
            </mask>
            <path fill="#B6C5D9" d="M7.341.172l19.01 5.553-7.419 5.324L0 4.762z" mask="url(#b)"/>
        </g>
        <path fill="#B6C5D9" d="M80.574 41.972l4.688-4.09 11.644 3.24-4.74 4.37zM95.052 46.368l14.579 4.037 5.408-4.5-15.609-3.677zM108.446 16.85l6.697 1.593s4.532-4.37 4.431-4.473c-.104-.103-6.132-1.467-6.132-1.467l-4.996 4.346zM124.854 4.186l5.05 1.543 4.224-3.601-5.153-1.49zM118.106 18.225l10.303 2.726 4.225-3.086-10.56-2.752zM131.14 21.464l3.246-3.008 12.364 3.293-3.71 3.445z"/>
        <path fill="#D1D1D1" d="M122.69 53.76l3.245-3.008 12.365 3.291-3.71 3.446z"/>
        <path fill="#FFF" d="M72.34 77.768l27.585-24.07 12.26 3.78-1.886 32.194-37.96-11.904zM30.152 64.535l9.406-7.361 37.1 11.55-8.765 7.65-37.74-11.839zM59.81 41.327l15.02 4.631-17.682 13.607-14.768-4.597 17.43-13.641zM95.458 52.32L79.263 66.45l-17.665-5.499 17.694-13.616 16.166 4.985zM87.146 32.77l35.849 10.7-11.966 9.71-35.445-11.03 11.562-9.38zm16.37-13.282l35.85 10.702-13.623 11.052L89.894 30.54l13.622-11.052zm43.34 103.85l-21.982 3.73-20.246-20.89 8.876-11.286 30.657 9.64 1.325-1.944 1.37 2.808V91.344l-5.964 7.924-25.44-7.98 1.889-32.222 29.515 9.101v-3.839l-29.89-9.301 29.89-24.25v-6.663l-4.74 3.846-35.85-10.7 13.4-10.874 27.19 8.117v-3.051l-24.44-7.295 3.64-2.953-1.339-.41-5.078 2.534-3.825 1.909h.002l-7.648 3.816-38.519 31.25-14.839-4.618-5.078 2.535 5.615 1.731-29.638 23.192-15.912-4.99-4.851 2.42-.162.128L46.967 73.97 16.826 97.017l3.79 1.907 30.79-23.561 24.511 7.71-28.155 29.373 3.913 1.979 28.71-29.947 28.6 8.995-9.91 12.6 20.861 21.835-30.76 5.221 4.16 2.077 53.52-9.1v-2.767z"/>
        <path fill="#E2EAF5" d="M31.24 64.725l9.406-7.362 37.101 11.55-8.766 7.649z"/>
        <g>
            <g transform="translate(117.167 113.438)">
                <mask id="d" fill="#fff">
                    <use xlink:href="#c"/>
                </mask>
                <path fill="#ED9D67" d="M68.076 34.117L24.04.624 16.344 5.63C10.983 14.354 6.084 22.816.696 31.478a1.436 1.436 0 0 0 .392 1.933c7.837 5.539 16.141-2.487 20.567-13.45 10.282 10.502 26.156 26.615 26.856 26.698 1.039.122 19.565-12.542 19.565-12.542" mask="url(#d)"/>
            </g>
            <path fill="#ED9D67" d="M149.18 144.195l2.76 19.525 7.487 13.755c.305.561.912.848 1.542.727 7.645-1.478 6.036-9.727 1.575-16.552.404-8.047-1.684-12.338-2.032-16.081l-11.331-1.374z"/>
            <path fill="#ED9D67" d="M138.83 136.796l2.245 24.202 6.667 15.349c.275.626.929.97 1.6.839 5.017-.982 6.137-4.654 4.789-8.793-1.406-4.314-.902-7.1-2.91-11.196.886-6.777.805-15.764.933-18.155l-13.325-2.246z"/>
            <path fill="#ED9D67" d="M134.75 136.406l-4.072 16.148 5.322 16.17a1.424 1.424 0 0 0 1.444.988c8.225-.433 6.996-10.585 4.259-17.857 2.256-5.633 2.995-8.153 3.172-11.182l6.96-4.252-4.91-13.774-12.175 13.76z"/>
        </g>
        <g transform="translate(133.173 113.438)">
            <mask id="g" fill="#fff">
                <use xlink:href="#e"/>
            </mask>
            <path fill="url(#f)" d="M4.324.547L.337 5.631l11.975 6.12L37.47 24.305l6.911 9.186 21.962-9.064L51.091 6.14C50.141 4.35 13.48.534 5.095.533c-.292 0-.55.004-.771.014" mask="url(#g)"/>
        </g>
        <g fill="#2F4459">
            <path d="M122.872 50.774l43.445-3.795c3.312-.288 6.26 2.18 6.55 5.487l8.76 99.945c.29 3.307-2.184 6.249-5.496 6.538l-43.446 3.795c-3.312.288-6.26-2.18-6.549-5.487l-8.76-99.946c-.29-3.306 2.183-6.248 5.496-6.537"/>
            <path d="M166.845 47.596c-.156 0-.314.007-.472.02l-43.445 3.795a5.372 5.372 0 0 0-3.665 1.911 5.353 5.353 0 0 0-1.25 3.934l8.76 99.945c.256 2.918 2.889 5.164 5.856 4.906l43.446-3.794c2.97-.26 5.174-2.882 4.914-5.847l-8.76-99.944c-.242-2.762-2.607-4.926-5.384-4.926m-34.687 115.81c-3.435 0-6.36-2.677-6.66-6.093l-8.76-99.945a6.623 6.623 0 0 1 1.545-4.868 6.644 6.644 0 0 1 4.533-2.362l43.445-3.795c3.68-.32 6.927 2.46 7.243 6.067l8.76 99.946c.321 3.666-2.405 6.91-6.077 7.23l-43.446 3.794c-.195.017-.39.026-.583.026"/>
        </g>
        <g transform="translate(116.527 46.331)">
            <mask id="j" fill="#fff">
                <use xlink:href="#h"/>
            </mask>
            <path fill="url(#i)" d="M49.774.456L6.328 4.249a6.222 6.222 0 0 0-4.23 2.207 6.202 6.202 0 0 0-1.442 4.542l8.76 99.945a6.207 6.207 0 0 0 2.21 4.223 6.228 6.228 0 0 0 4.55 1.44l43.444-3.795a6.226 6.226 0 0 0 4.23-2.206 6.201 6.201 0 0 0 1.443-4.542l-8.76-99.945a6.208 6.208 0 0 0-2.21-4.223 6.217 6.217 0 0 0-4.55-1.44M11.876 114.87a5.82 5.82 0 0 1-2.072-3.96l-8.76-99.945a5.813 5.813 0 0 1 1.352-4.26 5.84 5.84 0 0 1 3.967-2.069L49.807.842a5.84 5.84 0 0 1 4.267 1.35 5.821 5.821 0 0 1 2.073 3.96l8.76 99.945a5.82 5.82 0 0 1-1.353 4.259 5.835 5.835 0 0 1-3.967 2.069l-43.445 3.794a5.853 5.853 0 0 1-4.267-1.35" mask="url(#j)"/>
        </g>
        <g transform="translate(117.807 50.805)">
            <mask id="m" fill="#fff">
                <use xlink:href="#k"/>
            </mask>
            <path fill="url(#l)" d="M11.416.45L5.155.997A4.997 4.997 0 0 0 1.758 2.77a4.98 4.98 0 0 0-1.16 3.647l8.743 99.748a4.987 4.987 0 0 0 1.775 3.391 5.007 5.007 0 0 0 3.655 1.158l6.261-.547a.195.195 0 0 0 .177-.21.194.194 0 0 0-.21-.176l-6.262.546a4.612 4.612 0 0 1-3.37-1.067 4.6 4.6 0 0 1-1.64-3.129L.985 6.384a4.596 4.596 0 0 1 1.07-3.365A4.615 4.615 0 0 1 5.19 1.383L11.45.837a.195.195 0 0 0 .177-.21.195.195 0 0 0-.194-.178h-.017" mask="url(#m)"/>
        </g>
        <g transform="translate(138.936 47.61)">
            <mask id="o" fill="#fff">
                <use xlink:href="#n"/>
            </mask>
            <path d="M27.453.185L4.68 2.174l.845 3.182c.068.255.304.42.566.397l4.992-.436a1.06 1.06 0 0 1 1.11.776 1.058 1.058 0 0 1-.958.956l-5.141.45-4.921.429a1.057 1.057 0 0 1-1.11-.776 1.056 1.056 0 0 0 1.142 1.142L6.19 7.86l27.363 102.979 3.57-.311c2.863-.25 5.003-2.797 4.752-5.654l-8.76-99.945C32.878 2.223 30.581.164 27.91.164c-.151 0-.304.007-.456.02" mask="url(#o)"/>
        </g>
        <path fill="#202E3A" d="M140.109 55.537l4.921-.43 5.14-.448c.516-.045.915-.459.959-.957a1.057 1.057 0 0 0-1.11-.775l-5.442.475-4.62.404a1.057 1.057 0 0 0-.958.956c.13.483.594.82 1.11.775"/>
        <g transform="translate(203.602 9.901)">
            <mask id="q" fill="#fff">
                <use xlink:href="#p"/>
            </mask>
            <path fill="#343434" d="M-3.176 25.29h22.383V-3.19H-3.176z" mask="url(#q)"/>
        </g>
        <g transform="translate(207.443 13.736)">
            <mask id="s" fill="#fff">
                <use xlink:href="#r"/>
            </mask>
            <path fill="#343434" d="M-3.023 11.015H11.37V-3.142H-3.023z" mask="url(#s)"/>
        </g>
        <g transform="translate(204.242 9.901)">
            <mask id="u" fill="#fff">
                <use xlink:href="#t"/>
            </mask>
            <path fill="#343434" d="M-2.886 24.06h20.909V-2.587H-2.886z" mask="url(#u)"/>
        </g>
        <g transform="translate(144.698 15.014)">
            <mask id="w" fill="#fff">
                <use xlink:href="#v"/>
            </mask>
            <path fill="#343434" d="M-2.737 25.448h22.383v-28.48H-2.737z" mask="url(#w)"/>
        </g>
        <g transform="translate(148.54 18.849)">
            <mask id="y" fill="#fff">
                <use xlink:href="#x"/>
            </mask>
            <path fill="#343434" d="M-2.583 11.173h14.392V-2.983H-2.583z" mask="url(#y)"/>
        </g>
        <g transform="translate(145.979 15.653)">
            <mask id="A" fill="#fff">
                <use xlink:href="#z"/>
            </mask>
            <path fill="#343434" d="M-3.087 23.579h20.909V-3.067H-3.087z" mask="url(#A)"/>
        </g>
        <g transform="translate(246.499 36.105)">
            <mask id="C" fill="#fff">
                <use xlink:href="#B"/>
            </mask>
            <path fill="#343434" d="M-2.68 25.36h22.385V-3.12H-2.68z" mask="url(#C)"/>
        </g>
        <g transform="translate(250.98 39.94)">
            <mask id="E" fill="#fff">
                <use xlink:href="#D"/>
            </mask>
            <path fill="#343434" d="M-3.166 11.085h14.393V-3.072H-3.166z" mask="url(#E)"/>
        </g>
        <g transform="translate(247.78 36.744)">
            <mask id="G" fill="#fff">
                <use xlink:href="#F"/>
            </mask>
            <path fill="#343434" d="M-3.03 23.49h20.91V-3.156H-3.03z" mask="url(#G)"/>
        </g>
        <g transform="translate(96.679 7.984)">
            <mask id="I" fill="#fff">
                <use xlink:href="#H"/>
            </mask>
            <path fill="#343434" d="M-2.825 25.745H19.56v-28.48H-2.825z" mask="url(#I)"/>
        </g>
        <g transform="translate(100.52 11.819)">
            <mask id="K" fill="#fff">
                <use xlink:href="#J"/>
            </mask>
            <path fill="#343434" d="M-2.671 11.47h14.393V-2.686H-2.671z" mask="url(#K)"/>
        </g>
        <g transform="translate(97.96 8.623)">
            <mask id="M" fill="#fff">
                <use xlink:href="#L"/>
            </mask>
            <path fill="#343434" d="M-3.175 23.876h20.908V-2.77H-3.175z" mask="url(#M)"/>
        </g>
        <g transform="translate(37.775 45.053)">
            <mask id="O" fill="#fff">
                <use xlink:href="#N"/>
            </mask>
            <path fill="#343434" d="M-2.793 25.363h22.384V-3.116H-2.793z" mask="url(#O)"/>
        </g>
        <g transform="translate(41.617 48.887)">
            <mask id="Q" fill="#fff">
                <use xlink:href="#P"/>
            </mask>
            <path fill="#343434" d="M-2.64 11.089h14.393V-3.068H-2.64z" mask="url(#Q)"/>
        </g>
        <g transform="translate(39.056 45.692)">
            <mask id="S" fill="#fff">
                <use xlink:href="#R"/>
            </mask>
            <path fill="#343434" d="M-3.143 23.494h20.908V-3.152H-3.143z" mask="url(#S)"/>
        </g>
        <g transform="translate(72.349 94.904)">
            <mask id="U" fill="#fff">
                <use xlink:href="#T"/>
            </mask>
            <path fill="#343434" d="M-2.967 25.634h22.383V-2.845H-2.967z" mask="url(#U)"/>
        </g>
        <g transform="translate(76.19 98.739)">
            <mask id="W" fill="#fff">
                <use xlink:href="#V"/>
            </mask>
            <path fill="#343434" d="M-2.813 11.36H11.58V-2.797H-2.813z" mask="url(#W)"/>
        </g>
        <g transform="translate(72.99 95.543)">
            <mask id="Y" fill="#fff">
                <use xlink:href="#X"/>
            </mask>
            <path fill="#343434" d="M-2.676 23.766h20.908V-2.88H-2.676z" mask="url(#Y)"/>
        </g>
        <g transform="translate(200.4 59.113)">
            <mask id="aa" fill="#fff">
                <use xlink:href="#Z"/>
            </mask>
            <path fill="#343434" d="M-2.647 25.776h22.383V-2.703H-2.647z" mask="url(#aa)"/>
        </g>
        <g transform="translate(204.882 62.948)">
            <mask id="ac" fill="#fff">
                <use xlink:href="#ab"/>
            </mask>
            <path fill="#343434" d="M-3.134 11.502h14.393V-2.655H-3.134z" mask="url(#ac)"/>
        </g>
        <g transform="translate(201.68 59.752)">
            <mask id="ae" fill="#fff">
                <use xlink:href="#ad"/>
            </mask>
            <path fill="#343434" d="M-2.997 23.908h20.908V-2.74H-2.997z" mask="url(#ae)"/>
        </g>
        <g transform="translate(223.45 99.378)">
            <mask id="ag" fill="#fff">
                <use xlink:href="#af"/>
            </mask>
            <path fill="#343434" d="M-2.788 25.385h22.384v-28.48H-2.788z" mask="url(#ag)"/>
        </g>
        <g transform="translate(227.291 103.213)">
            <mask id="ai" fill="#fff">
                <use xlink:href="#ah"/>
            </mask>
            <path fill="#343434" d="M-2.635 11.11h14.393V-3.048H-2.635z" mask="url(#ai)"/>
        </g>
        <g transform="translate(224.73 100.017)">
            <mask id="ak" fill="#fff">
                <use xlink:href="#aj"/>
            </mask>
            <path fill="#343434" d="M-3.138 23.515H17.77V-3.13H-3.138z" mask="url(#ak)"/>
        </g>
        <g transform="translate(119.088 50.166)">
            <mask id="am" fill="#fff">
                <use xlink:href="#al"/>
            </mask>
            <path fill="#FFF" d="M-.6 110.918l61.058-5.91L49.878-3.905l-61.057 5.91z" mask="url(#am)"/>
        </g>
        <g>
            <g transform="translate(119.088 50.166)">
                <mask id="ao" fill="#fff">
                    <use xlink:href="#an"/>
                </mask>
                <path fill="#B6C5D9" d="M68.03 105.68l-40.844 3.954L50.759 75.07l15.66 10.718z" mask="url(#ao)"/>
            </g>
            <g transform="translate(119.088 50.166)">
                <mask id="aq" fill="#fff">
                    <use xlink:href="#ap"/>
                </mask>
                <path fill="#B6C5D9" d="M-26.555 15.092l47.79-70.463 29.63-3.103L63.83 78.054z" mask="url(#aq)"/>
            </g>
            <g transform="translate(119.088 50.166)">
                <mask id="as" fill="#fff">
                    <use xlink:href="#ar"/>
                </mask>
                <path fill="#CDE2F5" d="M-7.01 111.658l-7.635-82.279L46.29 71.881l-25.235 37.06z" mask="url(#as)"/>
            </g>
        </g>
        <g transform="translate(131.253 123.664)">
            <mask id="av" fill="#fff">
                <use xlink:href="#at"/>
            </mask>
            <path fill="url(#au)" d="M6.646.323C4.606.324 2.847.996 1.58 2.507A5.802 5.802 0 0 0 .183 6.283v.105c.033 3.997 3.694 8.921 10.297 13.475 6.852 5.217 11.587 9.032 15 11.48 6.396 4.589 6.89 15.405 26.76 24.561 15.331 6.51 11.571 5.774 24.212 13.173l39.568 38.463 14.923-40.595s-33.18-22.973-43.51-29.932l-19.169-22.81c-5.133 1.5-24.916 8.008-29.196 6.837-4.744-1.3-13.108-10.676-22.154-16.809C13.34 1.809 9.689.324 6.655.323h-.01z" mask="url(#av)"/>
        </g>
        <path fill="#F2A674" d="M144.26 128.699c-.553-.841-2.684-2.485-3.773-3.045 1.067.87 2.508 1.91 3.184 2.894 3.222 4.695-.904 9.885-6.098 7.511-.947-.433-2.417-1.7-3.587-2.75.73.896 3.038 2.917 3.946 3.4 4.254 2.268 10.343-1.903 6.328-8.01"/>
        <g transform="translate(137.015 71.257)">
            <mask id="ax" fill="#fff">
                <use xlink:href="#aw"/>
            </mask>
            <path fill="#FF5A5F" d="M-1.676 31.987h25.13V-1.366h-25.13z" mask="url(#ax)"/>
        </g>
        <g transform="translate(142.137 76.37)">
            <mask id="az" fill="#fff">
                <use xlink:href="#ay"/>
            </mask>
            <path fill="#FF5A5F" d="M-1.415 12.805h14.362V-1.247H-1.415z" mask="url(#az)"/>
        </g>
        <g transform="translate(138.296 71.896)">
            <mask id="aB" fill="#fff">
                <use xlink:href="#aA"/>
            </mask>
            <path fill="#FF5A5F" d="M-1.702 29.69h23.141V-1.193H-1.702z" mask="url(#aB)"/>
        </g>
    </g>
</svg>
