<svg xmlns="http://www.w3.org/2000/svg" xmlns:xlink="http://www.w3.org/1999/xlink" width="316" height="164" viewBox="0 0 316 164">
    <defs>
        <path id="a" d="M279.026 163H56.494C-16.588 163-24.284 25.191 66.14 3.449c90.391-21.434 106.928 63.296 169.023 51.038C328.73 36.38 337.9 163 279.026 163z"/>
    </defs>
    <g fill="none" fill-rule="evenodd" transform="translate(0 1)">
        <mask id="b" fill="#fff">
            <use xlink:href="#a"/>
        </mask>
        <use fill="#F2F5F9" xlink:href="#a"/>
        <path fill="#E2EAF5" d="M-6.2 67.361H98.52a2.298 2.298 0 0 1 2.297 2.3v104.834a2.298 2.298 0 0 1-2.297 2.3H-6.2a2.298 2.298 0 0 1-2.297-2.3V69.66a2.298 2.298 0 0 1 2.296-2.299zM168.564 117.02h54.198a5.744 5.744 0 0 1 5.74 5.747 5.744 5.744 0 0 1-5.74 5.748h-54.198a5.744 5.744 0 0 1-5.741-5.748 5.744 5.744 0 0 1 5.741-5.747zM170.86 64.142h54.198a5.744 5.744 0 0 1 5.741 5.748 5.744 5.744 0 0 1-5.74 5.748H170.86a5.744 5.744 0 0 1-5.74-5.748 5.744 5.744 0 0 1 5.74-5.748zM168.564 135.412h54.198a5.744 5.744 0 0 1 5.74 5.747 5.744 5.744 0 0 1-5.74 5.748h-54.198a5.744 5.744 0 0 1-5.741-5.748 5.744 5.744 0 0 1 5.741-5.747zM170.86 82.535h54.198a5.744 5.744 0 0 1 5.741 5.747 5.744 5.744 0 0 1-5.74 5.748H170.86a5.744 5.744 0 0 1-5.74-5.748 5.744 5.744 0 0 1 5.74-5.747zM170.86 11.265h54.198a5.744 5.744 0 0 1 5.741 5.748 5.744 5.744 0 0 1-5.74 5.747H170.86a5.744 5.744 0 0 1-5.74-5.747 5.744 5.744 0 0 1 5.74-5.748zM170.86 29.657h54.198a5.744 5.744 0 0 1 5.741 5.748 5.744 5.744 0 0 1-5.74 5.747H170.86a5.744 5.744 0 0 1-5.74-5.747 5.744 5.744 0 0 1 5.74-5.748z" mask="url(#b)"/>
        <ellipse cx="134.116" cy="26.209" fill="#E2EAF5" mask="url(#b)" rx="21.817" ry="21.841"/>
        <ellipse cx="134.116" cy="79.086" fill="#E2EAF5" mask="url(#b)" rx="21.817" ry="21.841"/>
        <ellipse cx="134.116" cy="131.963" fill="#E2EAF5" mask="url(#b)" rx="21.817" ry="21.841"/>
        <path fill="#E2EAF5" d="M-6.2-7.127H98.52a2.298 2.298 0 0 1 2.297 2.3v62.992a2.298 2.298 0 0 1-2.297 2.299H-6.2a2.298 2.298 0 0 1-2.297-2.299V-4.828a2.298 2.298 0 0 1 2.296-2.299zM242.282 97.248h104.72a2.298 2.298 0 0 1 2.297 2.3v69.43a2.298 2.298 0 0 1-2.296 2.298H242.282a2.298 2.298 0 0 1-2.297-2.299v-69.43a2.298 2.298 0 0 1 2.297-2.299z" mask="url(#b)"/>
        <path fill="#B6C5D9" d="M242.282 7.587h104.72a2.298 2.298 0 0 1 2.297 2.299v78.166a2.298 2.298 0 0 1-2.296 2.3H242.282a2.298 2.298 0 0 1-2.297-2.3V9.886a2.298 2.298 0 0 1 2.297-2.3zM-2.297 78.856h85.89a5.744 5.744 0 0 1 5.741 5.748 5.744 5.744 0 0 1-5.741 5.747h-85.89a5.744 5.744 0 0 1-5.74-5.747 5.744 5.744 0 0 1 5.74-5.748zM-2.297 97.248h85.89a5.744 5.744 0 0 1 5.741 5.748 5.744 5.744 0 0 1-5.741 5.747h-85.89a5.744 5.744 0 0 1-5.74-5.747 5.744 5.744 0 0 1 5.74-5.748zM-2.297 115.64h85.89a5.744 5.744 0 0 1 5.741 5.748 5.744 5.744 0 0 1-5.741 5.747h-85.89a5.744 5.744 0 0 1-5.74-5.747 5.744 5.744 0 0 1 5.74-5.748zM-2.297 134.032h85.89a5.744 5.744 0 0 1 5.741 5.748 5.744 5.744 0 0 1-5.741 5.748h-85.89a5.744 5.744 0 0 1-5.74-5.748 5.744 5.744 0 0 1 5.74-5.748zM-2.297 152.425h85.89a5.744 5.744 0 0 1 5.741 5.747 5.744 5.744 0 0 1-5.741 5.748h-85.89a5.744 5.744 0 0 1-5.74-5.748 5.744 5.744 0 0 1 5.74-5.747zM6.89.69h76.703a5.744 5.744 0 0 1 5.741 5.747 5.744 5.744 0 0 1-5.741 5.748H6.89a5.744 5.744 0 0 1-5.742-5.748A5.744 5.744 0 0 1 6.89.69zM6.89 19.082h76.703a5.744 5.744 0 0 1 5.741 5.747 5.744 5.744 0 0 1-5.741 5.748H6.89a5.744 5.744 0 0 1-5.742-5.748 5.744 5.744 0 0 1 5.742-5.747zM6.89 37.474h76.703a5.744 5.744 0 0 1 5.741 5.747 5.744 5.744 0 0 1-5.741 5.748H6.89a5.744 5.744 0 0 1-5.742-5.748 5.744 5.744 0 0 1 5.742-5.747z" mask="url(#b)"/>
    </g>
</svg>
