<svg xmlns="http://www.w3.org/2000/svg" width="95" height="123" viewBox="0 0 95 123">
    <g fill="none" fill-rule="evenodd">
        <path fill="#FFF" fill-rule="nonzero" d="M4.657 116.876l-1.52 4.16c-.23.617-.627 1.072-1.42 1.072-.76 0-1.387-.455-1.387-1.202 0-.39.298-1.138.397-1.43l7.3-19.143c.362-1.007.957-1.755 2.08-1.755 1.123 0 1.717.748 2.08 1.755l7.3 19.143c.1.292.397 1.04.397 1.43 0 .747-.628 1.202-1.388 1.202-.792 0-1.189-.455-1.42-1.072l-1.52-4.16-5.45-14.528-5.449 14.528zm22.418-12.253v-3.737c0-.943.562-1.528 1.454-1.528.891 0 1.453.585 1.453 1.528v3.737h1.189c.958 0 1.453.455 1.453 1.235s-.495 1.235-1.453 1.235h-1.19v13.488c0 .942-.56 1.527-1.452 1.527-.892 0-1.454-.585-1.454-1.527v-13.488h-1.189c-.958 0-1.453-.455-1.453-1.235s.495-1.235 1.453-1.235h1.19zm14.59 1.333v14.625c0 .942-.561 1.527-1.453 1.527s-1.453-.585-1.453-1.527v-14.625c0-.943.561-1.528 1.453-1.528s1.453.585 1.453 1.528zm-3.236-5.623c0-.975.792-1.755 1.783-1.755.991 0 1.784.78 1.784 1.755 0 .975-.793 1.755-1.784 1.755-.99 0-1.783-.78-1.783-1.755zm14.689 20.54l-5.054-13.942c-.198-.52-.297-.845-.297-1.17 0-.845.628-1.333 1.321-1.333.958 0 1.289.455 1.52 1.105l3.996 11.96h.066l3.997-11.96c.231-.65.561-1.105 1.52-1.105.693 0 1.32.488 1.32 1.333 0 .325-.099.65-.297 1.17l-5.053 13.942c-.298.845-.595 1.235-1.52 1.235s-1.222-.39-1.52-1.235zm17.398-14.917v14.625c0 .942-.562 1.527-1.454 1.527-.891 0-1.453-.585-1.453-1.527v-14.625c0-.943.562-1.528 1.453-1.528.892 0 1.454.585 1.454 1.528zm-3.237-5.623c0-.975.792-1.755 1.783-1.755.991 0 1.784.78 1.784 1.755 0 .975-.793 1.755-1.784 1.755-.99 0-1.783-.78-1.783-1.755zm12.014 4.29v-3.737c0-.943.561-1.528 1.453-1.528s1.453.585 1.453 1.528v3.737h1.19c.957 0 1.453.455 1.453 1.235s-.496 1.235-1.454 1.235H82.2v13.488c0 .942-.561 1.527-1.453 1.527s-1.453-.585-1.453-1.527v-13.488h-1.19c-.957 0-1.453-.455-1.453-1.235s.496-1.235 1.454-1.235h1.189zm14.59 1.333v14.625c0 .942-.562 1.527-1.453 1.527-.892 0-1.454-.585-1.454-1.527v-14.625c0-.943.562-1.528 1.454-1.528.891 0 1.453.585 1.453 1.528zm-3.237-5.623c0-.975.793-1.755 1.784-1.755.99 0 1.783.78 1.783 1.755 0 .975-.792 1.755-1.783 1.755-.991 0-1.784-.78-1.784-1.755z"/>
        <path fill="#FF5A5F" d="M46.794 5.437A2.718 2.718 0 1 1 46.791 0a2.718 2.718 0 0 1 .002 5.437zM46.793 67.134a2.718 2.718 0 1 1 .001 5.437 2.718 2.718 0 0 1-.001-5.437zM12.896 34.306a2.72 2.72 0 1 1-5.438 0 2.72 2.72 0 0 1 5.438 0zM80.706 34.306a2.718 2.718 0 1 0 5.436.002 2.718 2.718 0 0 0-5.436-.002zM60.045 9.406a2.719 2.719 0 1 1-5.022-2.083 2.719 2.719 0 0 1 5.022 2.083z"/>
        <path fill="#FFF" d="M37.446 34.638a2.717 2.717 0 1 1-2.08 5.021 2.717 2.717 0 0 1 2.08-5.02zM41.758 25.208a2.717 2.717 0 1 1-2.08 5.02 2.717 2.717 0 0 1 2.08-5.02z"/>
        <path fill="#FF5A5F" d="M21.916 21.026a2.717 2.717 0 1 1-2.08 5.02 2.717 2.717 0 0 1 2.08-5.02z"/>
        <path fill="#FFF" d="M50.207 28.758a2.717 2.717 0 1 1 5.022-2.08 2.717 2.717 0 0 1-5.022 2.08zM54.207 38.758a2.717 2.717 0 1 1 5.022-2.08 2.717 2.717 0 0 1-5.022 2.08z"/>
        <path fill="#FF5A5F" d="M70.204 24.576a2.718 2.718 0 1 1 5.022-2.08 2.718 2.718 0 0 1-5.022 2.08zM23.386 43.995a2.717 2.717 0 1 1-5.021 2.08 2.717 2.717 0 0 1 5.02-2.08zM71.674 47.545a2.717 2.717 0 1 1 2.08-5.02 2.717 2.717 0 0 1-2.08 5.02zM37.096 10.876a2.718 2.718 0 1 1-2.08-5.022 2.718 2.718 0 0 1 2.08 5.022zM25.5 29.479a4.828 4.828 0 1 1 0 9.656 4.828 4.828 0 0 1 0-9.656zM68.068 39.092a4.828 4.828 0 1 1 0-9.656 4.828 4.828 0 0 1 0 9.656zM35.136 15.829a4.829 4.829 0 1 1-6.83 6.828 4.829 4.829 0 0 1 6.83-6.828zM58.453 22.657a4.829 4.829 0 1 1 6.83-6.828 4.829 4.829 0 0 1-6.83 6.828z"/>
        <path fill="#FFF" d="M43.414 19.242a4.829 4.829 0 1 1 6.83-6.828 4.829 4.829 0 0 1-6.83 6.829z"/>
        <path fill="#FF5A5F" d="M56.494 57.694a2.718 2.718 0 1 1 2.08 5.023 2.718 2.718 0 0 1-2.08-5.023zM33.545 60.165a2.717 2.717 0 1 1 5.02 2.08 2.717 2.717 0 0 1-5.02-2.08zM46.773 46.752a4.829 4.829 0 1 1 0 9.658 4.829 4.829 0 0 1 0-9.658z"/>
        <path fill="#FFF" d="M35.136 45.914a4.829 4.829 0 1 1-6.83 6.828 4.829 4.829 0 0 1 6.83-6.828zM58.453 52.742a4.829 4.829 0 1 1 6.83-6.828 4.829 4.829 0 0 1-6.83 6.828z"/>
        <path fill="#FF5A5F" d="M23.457 10.609a2.719 2.719 0 1 1-4.164-3.495 2.719 2.719 0 0 1 4.164 3.495zM23.693 57.856a2.719 2.719 0 1 0-4.165 3.495 2.719 2.719 0 0 0 4.165-3.495zM69.8 57.716a2.719 2.719 0 1 1 4.165 3.496 2.719 2.719 0 0 1-4.165-3.496zM70.094 10.661a2.719 2.719 0 1 0 4.166-3.496 2.719 2.719 0 0 0-4.166 3.496z"/>
    </g>
</svg>
