<svg xmlns="http://www.w3.org/2000/svg" xmlns:xlink="http://www.w3.org/1999/xlink" width="330" height="192" viewBox="0 0 330 192">
    <defs>
        <path id="a" d="M5.036 115.89C-20.894 25.294 59.06-7.415 108.401 1.38c49.193 8.793 47.376 36.455 139.818 36.56 92.253-.105 102.556 98.013 50.364 132.216-51.956 34.326-267.579 36.307-293.547-54.266z"/>
    </defs>
    <g fill="none" fill-rule="evenodd">
        <mask id="b" fill="#fff">
            <use xlink:href="#a"/>
        </mask>
        <use fill="#F2F5F9" xlink:href="#a"/>
        <path fill="#D3E0F1" d="M356.385 177c-39.033-4.255-44.639-13.506-45.47-24.163-.891-10.718 3.444-12.777.957-19.56-2.327-6.602-24.374-2.585-27.043-13.118-2.384-10.397 20.344-11.785 12.684-18.64-8.051-6.727-20.478 2.354-37.334-5.753-16.735-8.222-1.963-36.972 22.018-26.465 24.058 10.52 23.473 26.547 31.11 20.481 7.948-5.938 11.473-17.33 20.821-10.585 9.398 6.646-4.307 31.25 3.59 38.2 7.914 6.718 43.4 2.313 18.667 59.603z" mask="url(#b)"/>
        <path fill="#E2EAF5" d="M210.43-25.908c7.592 2.504 69.926 8.444 52.443 34.783-17.343 26.239-30.069-7.24-39.694-9.444-9.386-2.331 34.34 24.873 15.637 47.683-18.863 22.78-12.39-2.06-28.146-15.664-15.855-13.79 27.781 29.525.962 45.149-26.799 15.565-4.407-18.2-17.32-21.192-12.682-3.113 12.181 28.187-15.878 41.693-27.888 13.413-6.35-18.114-15.877-20.501-9.578-2.17 2.734 34.738-18.043 33.401-20.914-1.412-29.683-23.298-11.788-40.312 17.883-17.197-13.345.634-18.523-12.208-5.186-12.986 6.712-13.774 30.311-21.193 23.374-7.58-30.946 5.666-20.448-16.585 10.4-22.191 33.433-3.05 42.34-15.894 9.029-12.736-29.698 7.883-33.198-7.832-3.478-15.807 26.935-37.311 40.896-21.423 13.985 15.8 15.7.274-.722-9.214-16.406-9.53-4.946-28.85 12.028-24.878 17.11 4.159 17.646 31.302 25.02 33.631z" mask="url(#b)"/>
        <path fill="#E2EAF5" d="M-36.68 113.801c.742-9.245-9.3-82.006 25.44-70.05 34.74 11.957-.079 36.474-.104 47.978-.024 11.504 19.255-46.436 50.372-31.874 31.117 14.563.986 14.63-10.397 36.73-11.383 22.1 26.33-40.56 51.386-14.702 25.056 25.858-19.57 10.471-19.603 25.958-.033 15.487 29.019-22.199 51.95 5.626 22.931 27.824-18.906 12.74-18.93 24.299-.026 11.56 38.823-13.513 42.88 10.636 4.057 24.15-18.584 40.69-42.959 25.441-24.374-15.248 4.431 14.972-8.926 24.74-13.357 9.769-17.47-3.544-32.38-28.043-14.909-24.5 14.892 33.39-13.32 28.146S26.169 161.481 9.134 155.1c-17.035-6.382 16.981 31.543-.086 40.236-17.068 8.693-49.85-19.5-35.518-40.156 14.333-20.656-3.872-17.96-10.306 3.579-6.434 21.54-31.603 14.275-31.559-6.35.044-20.624 30.915-29.361 31.656-38.607z" mask="url(#b)" transform="rotate(-93 34.226 122.118)"/>
        <path fill="#E2EAF5" d="M327.701 227.584c-35.103 16.589-46.54 9.646-55.11-1.405-8.663-11.085-6.637-15.66-13.696-21.632-6.79-5.862-21.867 10.437-31.848.517-9.648-9.928 7.931-23.76-3.414-27.002-11.57-2.891-15.022 13.654-34.822 14.05-19.786.208-28.974-38.839-1.565-40.512 27.483-1.7 38.867 15.915 40.63 5.223 2.11-10.722-3.437-24.93 9.209-22.724 12.613 2.075 19.606 36.066 31.216 39.284 11.45 2.955 37.24-21.056 59.4 54.2z" mask="url(#b)" transform="rotate(135 248.903 185.673)"/>
        <path fill="#D3E0F1" d="M306.444 177.751c.258-.014.352.117.48.229 7.287 10.293 4.526 24.2-5.994 31.129-.308.12-.453.212-.48.229-10.964 6.8-25.464 3.858-32.608-6.41a.466.466 0 0 0-.24-.457c-3.43-5.433-6.645-10.525-9.59-15.564l7.432-8.24-11.029 2.289a422.093 422.093 0 0 1-14.146-24.95l4.556-7.553-7.913.458c-9.229-20.746-10.379-33.182-3.356-37.538 8.273-5.13 22.631 4.051 42.918 27.696l-6.234 7.782 10.79-2.975a573.898 573.898 0 0 1 22.537 29.755l-4.795 5.951 7.672-1.83z" mask="url(#b)"/>
        <path fill="#B6C5D9" d="M363 96.637c-36.275 16.927-47.827 10.38-56.358-.24-8.625-10.65-6.454-15.16-13.547-20.85-6.823-5.586-22.599 10.646-32.598 1.16-9.658-9.5 8.626-23.373-2.912-26.307-11.776-2.587-15.664 13.647-35.932 14.44-20.25.61-28.81-37.345-.729-39.542 28.157-2.226 39.426 14.747 41.46 4.267 2.39-10.518-2.98-24.284 9.911-22.388 12.861 1.767 19.284 34.829 31.094 37.733 11.653 2.652 38.558-21.335 59.611 51.727z" mask="url(#b)"/>
        <path fill="#B6C5D9" d="M228.174 219.076c-35.104 16.589-46.54 9.646-55.11-1.405-8.663-11.084-6.638-15.66-13.696-21.632-6.792-5.862-21.867 10.437-31.849.517-9.647-9.928 7.931-23.76-3.414-27.002-11.57-2.891-15.021 13.655-34.822 14.05-19.786.208-28.974-38.838-1.565-40.511 27.483-1.7 38.868 15.914 40.63 5.223 2.11-10.722-3.437-24.931 9.21-22.724 12.612 2.074 19.605 36.066 31.215 39.283 11.45 2.955 37.24-21.056 59.4 54.2z" mask="url(#b)" transform="rotate(135 149.375 177.165)"/>
        <path fill="#D3E0F1" d="M73.513 181.62a3.088 3.088 0 0 0-.009.43c.008 11.644-9.267 21.42-20.657 21.917-.226.003-.38.008-.426.009-11.568.237-20.668-8.957-20.435-20.43.006-.258.01-.412.013-.645.248-5.866.545-11.442.98-16.785l9.852-3.21-9.508-3.245c.812-10.083 1.789-18.988 2.882-26.71l7.311-3.805-6.098-3.528c3.979-20.697 9.619-31.148 17.018-31.3 8.764-.18 14.506 13.92 17.227 42.203l-8.792 3.405 9.304 2.818c.762 9.846 1.193 21.321 1.217 34.364l-6.646 2.501 6.767 2.01z" mask="url(#b)" transform="rotate(52 52.747 149.148)"/>
        <path fill="#B6C5D9" d="M-.3 65.651c.405-4.75-5.312-42.146 14.178-35.963 19.49 6.183 0 18.74 0 24.651 0 5.911 10.739-23.837 28.201-16.319 17.463 7.519.57 7.519-5.784 18.86-6.355 11.343 14.712-20.81 28.79-7.494C79.164 62.7 54.127 54.743 54.127 62.7c0 7.957 16.242-11.373 29.131 2.95 12.89 14.323-10.583 6.524-10.583 12.463 0 5.94 21.749-6.898 24.053 5.515 2.303 12.413-10.37 20.885-24.053 13.022-13.684-7.863 2.502 7.698-4.975 12.702-7.477 5.003-9.798-1.842-18.187-14.447-8.388-12.605 8.389 17.174-7.434 14.447-15.822-2.727-7.086-19.131-16.644-22.43-9.558-3.299 9.558 16.227 0 20.674-9.558 4.446-27.97-10.077-19.96-20.674C13.484 76.326 3.281 77.69-.3 88.75-3.881 99.81-18 96.048-18 85.451s17.296-15.05 17.7-19.8z" mask="url(#b)"/>
        <circle cx="110" cy="83" r="5" fill="#D3E0F1" mask="url(#b)"/>
        <circle cx="100" cy="150" r="5" fill="#B6C5D9" mask="url(#b)"/>
        <circle cx="229" cy="65" r="5" fill="#D3E0F1" mask="url(#b)"/>
        <circle cx="302" cy="87" r="5" fill="#E2EAF5" mask="url(#b)"/>
        <circle cx="150" cy="101" r="5" fill="#B6C5D9" mask="url(#b)"/>
        <circle cx="214" cy="177" r="5" fill="#B6C5D9" mask="url(#b)"/>
        <circle cx="262" cy="122" r="5" fill="#B6C5D9" mask="url(#b)"/>
    </g>
</svg>
