<svg xmlns="http://www.w3.org/2000/svg" width="340" height="158" viewBox="0 0 340 158">
    <g fill="none" fill-rule="evenodd">
        <path fill="#F2F5F9" d="M74.188 6.191c71.599-29.179 122.831 54.003 196.297 53.988 73.613.015 73.613 59.072 55.588 76.77-12.167 11.95-26.147 18.966-41.94 21.051H52.102C19.234 76.28 26.596 25.677 74.188 6.191z"/>
        <path fill="#B6C5D9" fill-rule="nonzero" d="M207.744 29.97a1.283 1.283 0 0 1-.222 1.768 1.206 1.206 0 0 1-1.721-.229c-3.011-4.008-6.252-4.008-10.45.139a1.205 1.205 0 0 1-1.722-.02c-3.994-4.128-7.238-4.128-10.451-.09a1.206 1.206 0 0 1-1.727.178 1.283 1.283 0 0 1-.174-1.773c3.933-4.942 8.548-5.225 13.24-.923 4.876-4.304 9.49-4.026 13.227.95zM184.744 41.97a1.283 1.283 0 0 1-.222 1.768 1.206 1.206 0 0 1-1.721-.229c-3.011-4.008-6.252-4.008-10.45.139a1.205 1.205 0 0 1-1.722-.02c-3.994-4.128-7.238-4.128-10.451-.09a1.206 1.206 0 0 1-1.727.178 1.283 1.283 0 0 1-.174-1.773c3.933-4.942 8.548-5.225 13.24-.923 4.876-4.304 9.49-4.026 13.227.95z"/>
        <path fill="#E2EAF5" d="M42.752 158c41.766-33.625 6.393-44.652 3.795-51.593C43.85 99.36 60.38 83.305 54.98 73.96c-5.359-8.836-19.6 4.26-19.678-6.205.078-10.49 12.957-13.37 17.289-31.382 3.925-18.012-23.049-26.991-29.8-1.95-6.568 24.87 4.172 35.51-4.076 36.878C10.411 73.122 1.03 67.849.021 79.28-.8 90.908 22.882 97.81 22.79 108.534c.091 10.363-30.138 35.423 19.96 49.466z"/>
        <path fill="#D3E0F1" d="M297.392 93.464l3.552 57.533a1.889 1.889 0 0 1-1.773 2l-39.74.003a1.89 1.89 0 0 1-1.892-1.887c0-.026.593-9.652 1.78-28.877h-3.725c-13.57 0-24.573-10.963-24.596-24.494 1.725.584 3.574.901 5.497.901 2.057 0 4.029-.362 5.855-1.026v.082c0 7.297 5.93 13.212 13.244 13.212h4.423l1.048-16.972a27.45 27.45 0 0 0 17.893 6.592 27.453 27.453 0 0 0 18.434-7.067z"/>
        <path fill="#E2EAF5" d="M326.626 43.43C334.639 48.223 340 56.96 340 66.941c0 15.142-12.335 27.417-27.552 27.417a27.541 27.541 0 0 1-12.73-3.096 27.544 27.544 0 0 1-20.712 9.335 27.543 27.543 0 0 1-20.592-9.201 27.545 27.545 0 0 1-12.47 2.962c-15.216 0-27.552-12.275-27.552-27.417 0-9.982 5.361-18.718 13.374-23.513a27.673 27.673 0 0 1-.073-2.013C231.693 26.275 244.03 14 259.245 14c7.85 0 14.933 3.267 19.951 8.508A27.537 27.537 0 0 1 299.147 14c15.217 0 27.552 12.275 27.552 27.416 0 .677-.024 1.349-.073 2.013z"/>
        <path fill="#D3E0F1" d="M224.356 70.497a17.119 17.119 0 0 1 12.203-5.08c4.78 0 9.1 1.945 12.204 5.08a12.471 12.471 0 0 1 3.002-.364c6.823 0 12.354 5.489 12.354 12.26 0 6.77-5.531 12.26-12.354 12.26-1.036 0-2.041-.127-3.002-.365a17.119 17.119 0 0 1-12.204 5.08c-4.778 0-9.1-1.944-12.203-5.08-.96.238-1.966.365-3.002.365-6.823 0-12.354-5.49-12.354-12.26 0-6.771 5.531-12.26 12.354-12.26 1.036 0 2.041.126 3.002.364zM21.723 151h307.554c2.056 0 3.723 1.567 3.723 3.5s-1.667 3.5-3.723 3.5H21.723c-2.056 0-3.723-1.567-3.723-3.5s1.667-3.5 3.723-3.5z"/>
        <path fill="#D3E0F1" d="M332.653 158h-33.617a13.827 13.827 0 0 1-2.036-7.25c0-7.594 6.072-13.75 13.562-13.75 6.035 0 11.15 3.998 12.909 9.524.215-.016.433-.024.652-.024 4.903 0 8.877 4.03 8.877 9 0 .867-.121 1.706-.347 2.5zM89.834 158H18.192A16.835 16.835 0 0 1 16 149.673c0-9.467 7.81-17.142 17.445-17.142.981 0 1.943.08 2.879.232.91-6.089 6.249-10.763 12.698-10.763 6.417 0 11.734 4.627 12.684 10.671.743-.093 1.5-.14 2.27-.14 3.476 0 6.72.978 9.461 2.67a14.31 14.31 0 0 1 8.357-2.67C89.64 132.53 96 138.78 96 146.49c0 4.777-2.442 8.993-6.166 11.51z"/>
    </g>
</svg>
