<svg xmlns="http://www.w3.org/2000/svg" width="72" height="19" viewBox="0 0 72 19">
    <g fill="none" fill-rule="nonzero">
        <path fill="#139AD6" d="M55.657 4.998h-3.886c-.228 0-.457.234-.571.468l-1.6 10.29c0 .233.114.35.343.35H52c.229 0 .343-.117.343-.35l.457-2.924c0-.234.229-.467.571-.467h1.258c2.628 0 4.114-1.287 4.457-3.859.228-1.052 0-1.988-.457-2.572-.686-.585-1.715-.936-2.972-.936m.457 3.859c-.228 1.403-1.257 1.403-2.285 1.403h-.686l.457-2.69c0-.116.114-.233.343-.233h.228c.686 0 1.372 0 1.715.468.228.117.228.467.228 1.052"/>
        <g fill="#263B80">
            <path d="M27.657 4.998h-3.886c-.228 0-.457.234-.571.468l-1.6 10.29c0 .233.114.35.343.35h1.828c.229 0 .458-.234.572-.468l.457-2.806c0-.234.229-.467.571-.467h1.258c2.628 0 4.114-1.287 4.457-3.859.228-1.052 0-1.988-.457-2.572-.686-.585-1.6-.936-2.972-.936m.457 3.859c-.228 1.403-1.257 1.403-2.285 1.403h-.572l.457-2.69c0-.116.115-.233.343-.233h.229c.685 0 1.371 0 1.714.468.114.117.229.467.114 1.052M39.429 8.74H37.6c-.114 0-.343.117-.343.234l-.114.584-.114-.233c-.458-.585-1.258-.819-2.172-.819-2.057 0-3.886 1.637-4.228 3.859-.229 1.169.114 2.221.685 2.923.572.701 1.372.935 2.4.935 1.715 0 2.629-1.052 2.629-1.052l-.114.584c0 .234.114.351.342.351h1.715c.228 0 .457-.234.571-.468l1.029-6.547c-.115-.117-.343-.351-.457-.351M36.8 12.482c-.229 1.052-1.029 1.87-2.171 1.87-.572 0-1.029-.234-1.258-.467-.228-.351-.342-.819-.342-1.403.114-1.053 1.028-1.871 2.057-1.871.571 0 .914.234 1.257.467.343.351.457.936.457 1.404"/>
        </g>
        <path fill="#139AD6" d="M67.314 8.74h-1.828c-.115 0-.343.117-.343.234l-.114.584-.115-.233c-.457-.585-1.257-.819-2.171-.819-2.057 0-3.886 1.637-4.229 3.859-.228 1.169.115 2.221.686 2.923.571.701 1.371.935 2.4.935 1.714 0 2.629-1.052 2.629-1.052l-.115.584c0 .234.115.351.343.351h1.714c.229 0 .458-.234.572-.468l1.028-6.547c-.114-.117-.228-.351-.457-.351m-2.628 3.742c-.229 1.052-1.029 1.87-2.172 1.87-.571 0-1.028-.234-1.257-.467-.228-.351-.343-.819-.343-1.403.115-1.053 1.029-1.871 2.057-1.871.572 0 .915.234 1.258.467.457.351.571.936.457 1.404"/>
        <path fill="#263B80" d="M49.371 8.74H47.43c-.229 0-.343.117-.458.234l-2.514 3.975-1.143-3.741c-.114-.234-.228-.351-.571-.351h-1.829c-.228 0-.343.234-.343.468l2.058 6.197-1.943 2.806c-.115.234 0 .584.228.584h1.829c.228 0 .343-.117.457-.234l6.286-9.236c.343-.351.114-.702-.115-.702"/>
        <path fill="#139AD6" d="M69.486 5.35l-1.6 10.522c0 .234.114.351.343.351h1.6c.228 0 .457-.234.571-.468L72 5.466c0-.234-.114-.35-.343-.35H69.83c-.115-.118-.229 0-.343.233"/>
        <path fill="#263B80" d="M13.143 1.49C12.343.556 10.857.089 8.8.089H3.086c-.343 0-.686.35-.8.701L0 16.106c0 .35.229.585.457.585H4l.914-5.73v.234c.115-.35.457-.701.8-.701H7.43c3.314 0 5.828-1.403 6.628-5.262v-.35c-.114 0-.114 0 0 0 .114-1.52-.114-2.456-.914-3.391"/>
        <path fill="#139AD6" d="M13.943 4.882v.35c-.8 3.976-3.314 5.262-6.629 5.262H5.6c-.343 0-.686.35-.8.701l-1.143 7.133c0 .234.114.467.457.467h2.972c.343 0 .685-.233.685-.584v-.117l.572-3.625v-.234c0-.35.343-.584.686-.584h.457c2.857 0 5.143-1.17 5.714-4.677.229-1.403.114-2.69-.571-3.508a1.178 1.178 0 0 0-.686-.584"/>
        <path fill="#232C65" d="M13.143 4.53c-.114 0-.229-.116-.343-.116-.114 0-.229 0-.343-.117-.457-.117-.914-.117-1.486-.117H6.514c-.114 0-.228 0-.343.117a.645.645 0 0 0-.342.585l-.915 6.08v.233c.115-.35.457-.701.8-.701H7.43c3.314 0 5.828-1.403 6.628-5.262 0-.117 0-.234.114-.35-.228-.117-.342-.234-.571-.234-.343-.117-.343-.117-.457-.117"/>
    </g>
</svg>
