<svg xmlns="http://www.w3.org/2000/svg" width="86" height="86" viewBox="0 0 86 86">
    <g fill="none" fill-rule="evenodd">
        <path fill="#D3E0F2" fill-rule="nonzero" d="M86 43c0 12.035-4.944 22.913-12.91 30.72C65.333 81.315 54.714 86 43 86c-13.1 0-24.833-5.859-32.72-15.1A42.83 42.83 0 0 1 0 43a42.804 42.804 0 0 1 8.239-25.316 42.893 42.893 0 0 1 3.345-4.043C19.43 5.246 30.602 0 43 0a42.86 42.86 0 0 1 27.645 10.064C80.033 17.95 86 29.779 86 43z"/>
        <path fill="#F2F2F7" fill-rule="nonzero" d="M73.09 73.72C65.333 81.315 54.714 86 43 86c-13.1 0-24.833-5.859-32.72-15.1a217.56 217.56 0 0 0-2.041-53.216c-.32-1.974-.667-3.945-1.043-5.91l4.388 1.867 1.412.6 4.487-4.43 5.8 2.468 4.484-4.43 5.801 2.467 4.484-4.428 5.8 2.466 4.487-4.43h.002l5.8 2.468 3.78-3.731.706-.699L64.43 4.43 68.916 0a280.82 280.82 0 0 1 4.05 29.867 280.755 280.755 0 0 1 .123 43.852z"/>
        <path fill="#FF5A5F" d="M72.965 29.867l-62.447 7.467a217.924 217.924 0 0 0-3.322-25.56l4.387 1.867 1.413.6 4.486-4.43 5.801 2.468 4.484-4.43 5.8 2.467 4.485-4.428 5.8 2.466 4.487-4.43h.002l5.8 2.468 3.779-3.731.707-.699L64.43 4.43 68.916 0a280.733 280.733 0 0 1 4.049 29.867z"/>
        <path fill="#374266" fill-rule="nonzero" d="M26.284 57.957v-6.469c0-4.51 2.962-6.15 6.833-6.15 3.827 0 6.834 1.64 6.834 6.15v6.469c0 4.51-3.007 6.15-6.834 6.15-3.871 0-6.833-1.64-6.833-6.15zm9.111-6.469c0-1.503-.865-2.186-2.278-2.186-1.412 0-2.232.683-2.232 2.186v6.469c0 1.503.82 2.186 2.232 2.186 1.413 0 2.278-.683 2.278-2.186v-6.469zm18.677-5.603c0 .273-.045.592-.182.866L37.855 79.595c-.319.683-1.184 1.139-2.05 1.139-1.548 0-2.55-1.276-2.55-2.415 0-.273.09-.592.227-.865l15.99-32.844c.364-.775 1.093-1.14 1.912-1.14 1.276 0 2.688.957 2.688 2.415zm-6.878 26.74v-6.468c0-4.51 2.96-6.15 6.833-6.15 3.827 0 6.833 1.64 6.833 6.15v6.468c0 4.51-3.006 6.15-6.833 6.15-3.872 0-6.833-1.64-6.833-6.15zm9.11-6.468c0-1.504-.865-2.187-2.277-2.187-1.412 0-2.232.684-2.232 2.187v6.468c0 1.504.82 2.187 2.232 2.187 1.412 0 2.277-.684 2.277-2.187v-6.468z"/>
    </g>
</svg>
