<svg xmlns="http://www.w3.org/2000/svg" xmlns:xlink="http://www.w3.org/1999/xlink" width="300" height="187" viewBox="0 0 300 187">
    <defs>
        <path id="a" d="M245.681.922c48.268 5.557 63.206 59.25 44.816 161.078H1.379c-3.796-32.295.494-54.187 12.87-65.676 44.159-40.637 84.988-15.897 116.75-30.418C170.15 47.847 173.401-7.537 245.681.922z"/>
        <path id="c" d="M4.596 4.609h168.46v168.913H4.597z"/>
        <path id="e" d="M9.769 0h21.37c.334 0 .62.24.68.568l8.943 49.545a.691.691 0 0 1-.679.814H.825a.69.69 0 0 1-.678-.814L9.09.568A.69.69 0 0 1 9.77 0z"/>
    </defs>
    <g fill="none" fill-rule="evenodd">
        <g transform="translate(.92)">
            <mask id="b" fill="#fff">
                <use xlink:href="#a"/>
            </mask>
            <use fill="#F2F5F9" xlink:href="#a"/>
            <g mask="url(#b)">
                <g transform="translate(131 -41.48)">
                    <path fill="#FFF" fill-rule="nonzero" d="M4.826 0h168.001a4.833 4.833 0 0 1 4.826 4.84v168.452c0 2.672-2.16 4.839-4.826 4.839h-168A4.833 4.833 0 0 1 0 173.29V4.84C0 2.167 2.16 0 4.826 0z"/>
                    <mask id="d" fill="#fff">
                        <use xlink:href="#c"/>
                    </mask>
                    <use fill="#E2EAF5" xlink:href="#c"/>
                    <path fill="#B6C5D9" d="M98.594 127.434h80.438v111.073H98.594z" mask="url(#d)"/>
                    <path fill="#B6C5D9" d="M35.623 101.624h62.972v111.073H35.623z" mask="url(#d)"/>
                    <path fill="#B6C5D9" d="M-27.349 147.021h62.972v111.073h-62.972z" mask="url(#d)"/>
                    <path fill="#F2F5F9" d="M86.645 83.555H193.37s2.892-11.567-17.372-7.711c-20.265 3.855-17.093-7.023-29.22-9.534-12.129-2.511-17.941 7.722-36.43 2.511-18.487-5.211-32.08 14.734-23.702 14.734z" mask="url(#d)"/>
                    <path fill="#B6C5D9" fill-rule="nonzero" d="M93.759 74.376a1.154 1.154 0 0 1-.209 1.616 1.147 1.147 0 0 1-1.611-.209c-2.82-3.665-5.854-3.665-9.785.127a1.147 1.147 0 0 1-1.612-.018c-3.74-3.775-6.777-3.775-9.786-.083a1.147 1.147 0 0 1-1.617.163 1.154 1.154 0 0 1-.163-1.622c3.683-4.519 8.004-4.777 12.398-.843 4.565-3.935 8.885-3.681 12.385.869zM119.04 90.507a1.154 1.154 0 0 1-.21 1.616 1.147 1.147 0 0 1-1.61-.209c-2.82-3.665-5.854-3.665-9.785.127a1.147 1.147 0 0 1-1.612-.019c-3.74-3.775-6.777-3.775-9.786-.083a1.147 1.147 0 0 1-1.617.164 1.154 1.154 0 0 1-.163-1.622c3.683-4.519 8.004-4.777 12.397-.844 4.566-3.935 8.885-3.68 12.385.87z" mask="url(#d)"/>
                    <path fill="#FFF" d="M48.263 11.522h4.596v162h-4.596zM124.794 11.522h4.596v162h-4.596z" mask="url(#d)"/>
                    <path fill="#FFF" d="M4.596 113.607h168.46v4.609H4.596zM4.596 53.693h168.46v4.609H4.596z" mask="url(#d)"/>
                </g>
            </g>
        </g>
        <path fill="#D3E0F1" d="M3.447 155.087h286.82a3.452 3.452 0 0 1 3.447 3.456 3.452 3.452 0 0 1-3.447 3.457H3.447A3.452 3.452 0 0 1 0 158.543a3.452 3.452 0 0 1 3.447-3.456z"/>
        <g transform="translate(49.412)">
            <path fill="#D3E0F1" d="M18.156 50.927h4.596v104.16h-4.596z"/>
            <mask id="f" fill="#fff">
                <use xlink:href="#e"/>
            </mask>
            <use fill="#D3E0F1" xlink:href="#e"/>
            <path fill="#F2F5F9" d="M-.23 35.949h40.45v5.76H-.23z" mask="url(#f)"/>
        </g>
        <path fill="#B6C5D9" d="M43.454 139.647c-3.975-11.408-19.728-7.935-21.589-16.115-1.785-8.267 6.67-8.841 6.643-15.28.026-6.441-17.287-5.09-19.033-11.67-1.715-6.575 4.598-8.084 11.368-10.42 6.864-2.236-14.93-14.02-12.901-25.839 2.044-11.782 18.809-11.707 21.716 2.918 3.015 14.604 5.72 19.124 9.836 13.197 4.086-5.87 15.48-3.743 10.602 13.059-4.847 16.886 9.24 11.6 11.369 22.505 2.003 11.027-13.317 14.358-18.011 27.645z"/>
        <path fill="#E2EAF5" fill-rule="nonzero" d="M57.016 77.553c.493 5.275-.113 10.98-1.693 17.533-.461-3.121-1.742-5.419-3.842-6.893-3.823-2.684-8.217-3.004-9.815-.715-1.598 2.289.205 6.32 4.027 9.003 2.38 1.67 5.391 1.989 9.034.954-.992 3.736-2.208 7.513-4.279 13.548l-.077.226c-.425-3.269-1.719-5.663-3.883-7.182-3.822-2.684-8.216-3.004-9.814-.715-1.599 2.289.204 6.32 4.026 9.003 2.364 1.66 5.35 1.984 8.958.975-2.444 7.151-3.47 10.352-4.305 13.732-.556-2.697-1.788-4.715-3.695-6.053-3.822-2.684-8.216-3.004-9.814-.715-1.599 2.289.204 6.32 4.026 9.003 2.316 1.626 5.23 1.97 8.74 1.034-1.203 5.897-1.306 10.8-.131 15.128a.574.574 0 1 0 1.109-.302c-1.193-4.397-1.004-9.474.388-15.716 1.042-4.674 1.991-7.648 5.559-18.043 2.378-6.928 3.634-10.9 4.721-15.251 1.976-7.912 2.594-14.642 1.63-20.882a.574.574 0 0 0-.206-.36c-.499-2.965-1.764-5.16-3.795-6.587-3.822-2.683-8.216-3.003-9.814-.714-1.598 2.288.205 6.319 4.027 9.002 2.354 1.654 5.327 1.983 8.918.987z"/>
        <path fill="#D3E0F1" d="M30.566 133.886h24.362c.38 0 .69.31.69.692v20.509H29.876v-20.51a.69.69 0 0 1 .69-.69z"/>
        <g>
            <path fill="#DD5F63" d="M149.029 93v20.151c8.492 0 15.4 6.926 15.4 15.442 0 8.514-6.908 15.441-15.4 15.441v42.83l28.19-35.534c5.06-6.418 7.737-14.13 7.737-22.309 0-19.861-16.117-36.021-35.927-36.021z"/>
            <path fill="#FF5A5F" d="M133.628 128.593c0-8.516 6.91-15.442 15.4-15.442V93c-19.809 0-35.926 16.16-35.926 36.021 0 8.178 2.676 15.891 7.745 22.317l28.182 35.527v-42.83c-8.492 0-15.401-6.928-15.401-15.442z"/>
        </g>
        <circle cx="149" cy="128" r="17" fill="#F8F8F8"/>
    </g>
</svg>
