<svg xmlns="http://www.w3.org/2000/svg" width="47" height="14" viewBox="0 0 47 14">
    <g fill="none" fill-rule="nonzero">
        <path fill="#3C58BF" d="M17.233 13.582L19.621.49h3.73l-2.313 13.09z"/>
        <path fill="#293688" d="M17.233 13.582L20.293.49h3.058l-2.313 13.09z"/>
        <path fill="#3C58BF" d="M34.541.636c-.746-.29-1.94-.581-3.431-.581-3.73 0-6.416 1.818-6.416 4.436 0 1.964 1.865 2.982 3.357 3.636 1.492.655 1.94 1.091 1.94 1.673 0 .873-1.194 1.31-2.239 1.31-1.492 0-2.312-.22-3.58-.728l-.523-.218-.522 2.981c.895.364 2.536.728 4.252.728 3.954 0 6.565-1.818 6.565-4.582 0-1.527-.97-2.691-3.207-3.636-1.343-.655-2.164-1.019-2.164-1.673 0-.582.671-1.164 2.164-1.164 1.268 0 2.163.218 2.834.51l.373.145.597-2.837z"/>
        <path fill="#293688" d="M34.541.636c-.746-.29-1.94-.581-3.431-.581-3.73 0-5.745 1.818-5.745 4.436 0 1.964 1.194 2.982 2.686 3.636 1.492.655 1.94 1.091 1.94 1.673 0 .873-1.194 1.31-2.239 1.31-1.492 0-2.312-.22-3.58-.728l-.523-.218-.522 2.981c.895.364 2.536.728 4.252.728 3.954 0 6.565-1.818 6.565-4.582 0-1.527-.97-2.691-3.207-3.636-1.343-.655-2.164-1.019-2.164-1.673 0-.582.671-1.164 2.164-1.164 1.268 0 2.163.218 2.834.51l.373.145.597-2.837z"/>
        <path fill="#3C58BF" d="M40.957.49c-.895 0-1.567.074-1.94.946l-5.595 12.146h4.029l.746-2.182h4.774l.448 2.182H47L43.867.49h-2.91zm-1.716 8.728c.224-.654 1.492-3.854 1.492-3.854s.299-.8.523-1.31l.223 1.237s.746 3.273.896 4H39.24v-.073z"/>
        <path fill="#293688" d="M41.852.49c-.895 0-1.566.074-1.94.946l-6.49 12.146h4.029l.746-2.182h4.774l.448 2.182H47L43.867.49h-2.015zm-2.61 8.728c.298-.727 1.491-3.854 1.491-3.854s.299-.8.523-1.31l.223 1.237s.746 3.273.896 4H39.24v-.073z"/>
        <path fill="#3C58BF" d="M10.37 9.655l-.373-1.891c-.672-2.182-2.835-4.582-5.222-5.746l3.357 11.637h4.028L18.203.564h-4.028l-3.805 9.09z"/>
        <path fill="#293688" d="M10.37 9.655l-.373-1.891c-.672-2.182-2.835-4.582-5.222-5.746l3.357 11.637h4.028L18.203.564h-3.282l-4.551 9.09z"/>
        <path fill="#FFBC00" d="M0 .49l.671.146C5.446 1.727 8.73 4.491 9.997 7.764L8.654 1.582C8.43.709 7.759.49 6.938.49H0z"/>
        <path fill="#F7981D" d="M0 .49c4.775 1.092 8.729 3.928 9.997 7.2L8.729 2.528c-.224-.872-.97-1.382-1.79-1.382L0 .491z"/>
        <path fill="#ED7C00" d="M0 .49c4.775 1.092 8.729 3.928 9.997 7.2l-.895-2.835c-.224-.873-.523-1.746-1.567-2.11L0 .491z"/>
        <g fill="#051244">
            <path d="M14.1 9.218l-2.537-2.473L10.37 9.51l-.299-1.818C9.4 5.509 7.237 3.109 4.85 1.945l3.357 11.637h4.029L14.1 9.218zM21.038 13.582l-3.208-3.2-.597 3.2zM29.617 9.073c.299.29.448.509.373.8 0 .872-1.193 1.309-2.238 1.309-1.492 0-2.312-.218-3.58-.727l-.523-.219-.522 2.982c.895.364 2.536.727 4.252.727 2.388 0 4.327-.654 5.446-1.818l-3.208-3.054zM33.944 13.582h3.507l.746-2.182h4.774l.448 2.182H47l-1.268-5.31-4.476-4.217.223 1.163s.746 3.273.896 4H39.24c.299-.727 1.492-3.854 1.492-3.854s.299-.8.523-1.31"/>
        </g>
    </g>
</svg>
