<svg xmlns="http://www.w3.org/2000/svg" width="18" height="18" viewBox="0 0 18 18">
    <g fill="none" fill-rule="evenodd">
        <path fill="#D3E0F2" d="M1 2h16v16H1z"/>
        <path fill="#000" fill-rule="nonzero" d="M16.343 1.292h-1.732V.603c0-.333-.236-.603-.527-.603-.292 0-.528.27-.528.603v.689h-2.334V.603c0-.333-.236-.603-.527-.603-.292 0-.528.27-.528.603v.689H7.833V.603C7.833.27 7.597 0 7.305 0c-.29 0-.527.27-.527.603v.689H4.444V.603C4.444.27 4.208 0 3.916 0c-.29 0-.527.27-.527.603v.689H1.657C.746 1.292 0 2.134 0 3.187v12.918C0 17.165.753 18 1.657 18h14.686c.911 0 1.657-.842 1.657-1.895V3.187c0-1.042-.737-1.895-1.657-1.895zm.602 15.17c0 .398-.268.722-.602.722H1.657c-.332 0-.602-.322-.602-.722V2.907c0-.398.268-.723.602-.723h1.732v.723c0 .35.236.633.527.633.292 0 .528-.283.528-.633v-.723h2.334v.723c0 .35.236.633.527.633.292 0 .528-.283.528-.633v-.723h2.334v.723c0 .35.236.633.528.633.29 0 .527-.283.527-.633v-.723h2.334v.723c0 .35.236.633.528.633.29 0 .527-.283.527-.633v-.723h1.732c.332 0 .602.323.602.723v13.555z"/>
        <path fill="#FF5A5F" d="M7.831 7.168a.575.575 0 0 0-.813 0l-.518.518-.518-.518a.575.575 0 0 0-.813.814l.517.518-.517.518a.575.575 0 1 0 .813.813l.518-.517.518.517a.573.573 0 0 0 .813 0 .575.575 0 0 0 0-.813L7.314 8.5l.517-.518a.575.575 0 0 0 0-.814z"/>
    </g>
</svg>
