<svg xmlns="http://www.w3.org/2000/svg" width="18" height="17" viewBox="0 0 18 17">
    <path fill="#343434" fill-rule="evenodd" d="M2.535 9.234c.092.219.309.366.551.366h11.828c.243 0 .46-.148.551-.368a.301.301 0 0 1 .022-.065l.127-.467H2.385l.125.46a1.82 1.82 0 0 1 .025.074zM2.05 9.6H1.5C.673 9.6 0 8.927 0 8.1V1.5C0 .673.673 0 1.5 0h15c.827 0 1.5.673 1.5 1.5v6.6c0 .827-.673 1.5-1.5 1.5h-.549a1.2 1.2 0 0 1-1.037.6H3.086a1.2 1.2 0 0 1-1.037-.6zm13.738-1.536l.1-.368a.465.465 0 0 0-.078-.387c-.031-.04-.1-.109-.2-.109H2.391c-.1 0-.17.068-.201.11a.468.468 0 0 0-.077.393l.108.397h13.556l.01-.036zm.681-.218l-.171.632-.001.002-.141.52h.345c.496 0 .9-.404.9-.9V4.2H.6v3.9c0 .496.404.9.9.9h.345l-.016-.059-.123-.452a.297.297 0 0 1-.005-.02l-.167-.616a1.107 1.107 0 0 1-.015-.47 1.027 1.027 0 0 1 .282-.536.844.844 0 0 1 .59-.247h13.217c.26 0 .505.124.674.339.195.25.265.588.186.907zM9.007 16.5a.298.298 0 0 1-.214-.09c-.463-.47-.694-.958-.686-1.452.008-.481.24-.944.693-1.375.338-.315.51-.636.514-.958.004-.331-.17-.671-.517-1.01a.3.3 0 0 1 .42-.43c.468.458.703.945.697 1.448-.006.492-.243.958-.703 1.387-.329.313-.499.633-.504.947-.005.328.168.671.514 1.023a.3.3 0 0 1-.214.51zm3.293 0a.299.299 0 0 1-.214-.09c-.462-.47-.693-.958-.686-1.452.008-.481.24-.944.693-1.375.34-.317.514-.64.518-.963.004-.33-.169-.669-.513-1.005a.3.3 0 0 1 .419-.43c.466.456.7.941.694 1.442-.006.494-.244.962-.706 1.393-.33.313-.5.633-.505.947-.005.327.168.671.514 1.022a.3.3 0 0 1-.214.511zm-6.6 0a.298.298 0 0 1-.214-.09c-.463-.47-.693-.958-.686-1.452.008-.481.24-.944.693-1.375.34-.317.514-.64.518-.963.004-.33-.169-.669-.513-1.005a.3.3 0 1 1 .419-.43c.466.456.7.941.694 1.442-.006.494-.244.962-.706 1.393-.33.313-.5.633-.505.947-.005.327.168.671.514 1.022a.3.3 0 0 1-.214.511zM4.5 3H2.1a.3.3 0 0 1-.3-.3V1.5a.3.3 0 0 1 .3-.3h2.4a.3.3 0 0 1 .3.3v1.2a.3.3 0 0 1-.3.3zm-2.1-.6h1.8v-.6H2.4v.6zm13.8 0h-.3a.3.3 0 0 1 0-.6h.3a.3.3 0 0 1 0 .6zm-1.5 0h-.3a.3.3 0 0 1 0-.6h.3a.3.3 0 0 1 0 .6zm-1.5 0h-.3a.3.3 0 0 1 0-.6h.3a.3.3 0 0 1 0 .6zM.6 3.6h16.8V1.5c0-.496-.404-.9-.9-.9h-15c-.496 0-.9.404-.9.9v2.1z"/>
</svg>
