<svg xmlns="http://www.w3.org/2000/svg" width="18" height="18" viewBox="0 0 18 18">
    <path fill="#000" fill-rule="nonzero" d="M17.235 13.48c-1.612-1.395-3.105-3.362-3.105-8.275A5.165 5.165 0 0 0 8.97.045a5.166 5.166 0 0 0-5.16 5.16c0 4.917-1.492 6.883-3.106 8.276-.447.39-.704.951-.704 1.54 0 .324.263.587.587.587h5.57a2.878 2.878 0 0 0 2.813 2.287 2.878 2.878 0 0 0 2.813-2.287h5.57a.587.587 0 0 0 .587-.587c0-.594-.257-1.156-.705-1.541zM8.97 16.72a1.702 1.702 0 0 1-1.595-1.113h3.19a1.702 1.702 0 0 1-1.595 1.113zm-7.565-2.287a.864.864 0 0 1 .068-.066c2.461-2.124 3.51-4.865 3.51-9.163A3.99 3.99 0 0 1 8.97 1.219a3.99 3.99 0 0 1 3.986 3.986c0 4.294 1.05 7.035 3.512 9.164.024.02.047.042.069.065H1.405z"/>
</svg>
