<svg xmlns="http://www.w3.org/2000/svg" width="18" height="18" viewBox="0 0 18 18">
    <g fill="#343434" fill-rule="evenodd">
        <circle cx="13.57" cy="7.383" r="1"/>
        <path d="M15.188 1.406h-.915V.703a.703.703 0 1 0-1.406 0v.703H9.668V.703a.703.703 0 1 0-1.406 0v.703H5.098V.703a.703.703 0 1 0-1.407 0v.703h-.878A2.816 2.816 0 0 0 0 4.22v10.968A2.816 2.816 0 0 0 2.813 18H8.19a.703.703 0 1 0 0-1.406H2.812c-.775 0-1.406-.631-1.406-1.407V4.22c0-.776.631-1.407 1.407-1.407h.878v.704a.703.703 0 1 0 1.407 0v-.704h3.164v.704a.703.703 0 1 0 1.406 0v-.704h3.2v.704a.703.703 0 1 0 1.405 0v-.704h.915c.775 0 1.406.631 1.406 1.407v4.008a.703.703 0 1 0 1.406 0V4.219a2.816 2.816 0 0 0-2.813-2.813z"/>
        <path d="M13.746 9.492a4.259 4.259 0 0 0-4.254 4.254A4.259 4.259 0 0 0 13.746 18 4.259 4.259 0 0 0 18 13.746a4.259 4.259 0 0 0-4.254-4.254zm0 7.102a2.85 2.85 0 0 1-2.848-2.848 2.85 2.85 0 0 1 2.848-2.848 2.85 2.85 0 0 1 2.848 2.848 2.85 2.85 0 0 1-2.848 2.848z"/>
        <path d="M14.766 13.043h-.317v-.738a.703.703 0 1 0-1.406 0v1.441c0 .388.315.703.703.703h1.02a.703.703 0 1 0 0-1.406z"/>
        <circle cx="10.512" cy="7.383" r="1"/>
        <circle cx="7.453" cy="10.441" r="1"/>
        <circle cx="4.395" cy="7.383" r="1"/>
        <circle cx="4.395" cy="10.441" r="1"/>
        <circle cx="4.395" cy="13.5" r="1"/>
        <circle cx="7.453" cy="13.5" r="1"/>
        <circle cx="7.453" cy="7.383" r="1"/>
    </g>
</svg>
