<svg xmlns="http://www.w3.org/2000/svg" width="18" height="18" viewBox="0 0 18 18">
    <path fill="#343434" fill-rule="evenodd" d="M15.904 16.209H2.078A2.08 2.08 0 0 1 0 14.13V5.703a2.08 2.08 0 0 1 2.078-2.079H4.9l.247-.833c.1-.455.518-.79 1.008-.79h5.674c.477 0 .898.333 1.01.795l.006.028.225.8h2.835a2.08 2.08 0 0 1 2.078 2.079v8.427a2.081 2.081 0 0 1-2.078 2.079zM2.078 4.317c-.764 0-1.385.622-1.385 1.386v8.427c0 .765.621 1.386 1.385 1.386h13.826c.764 0 1.385-.622 1.385-1.386V5.703c0-.765-.621-1.386-1.385-1.386h-3.36l-.379-1.352a.348.348 0 0 0-.337-.272H6.153a.344.344 0 0 0-.337.272l-.4 1.352H2.078zm6.913 9.798a4.4 4.4 0 0 1-4.396-4.396 4.4 4.4 0 0 1 4.396-4.396 4.4 4.4 0 0 1 4.396 4.396 4.4 4.4 0 0 1-4.396 4.396zm0-8.1A3.708 3.708 0 0 0 5.288 9.72a3.707 3.707 0 0 0 3.703 3.703 3.707 3.707 0 0 0 3.703-3.703 3.707 3.707 0 0 0-3.703-3.703zm6.466-.412a.64.64 0 1 0 0 1.278.64.64 0 0 0 0-1.278z"/>
</svg>
