<svg xmlns="http://www.w3.org/2000/svg" width="18" height="18" viewBox="0 0 18 18">
    <path fill="#343434" fill-rule="evenodd" d="M15.338 2.632a8.921 8.921 0 0 1 2.632 6.353 8.921 8.921 0 0 1-2.632 6.353 8.921 8.921 0 0 1-6.353 2.632 8.921 8.921 0 0 1-6.353-2.632A8.921 8.921 0 0 1 0 8.985C0 6.584.934 4.33 2.632 2.632A8.921 8.921 0 0 1 8.985 0c2.401 0 4.655.934 6.353 2.632zm-.722 11.984c3.104-3.105 3.104-8.157 0-11.262a7.912 7.912 0 0 0-5.631-2.333 7.912 7.912 0 0 0-5.63 2.333C.25 6.46.25 11.511 3.354 14.616a7.912 7.912 0 0 0 5.63 2.333 7.912 7.912 0 0 0 5.63-2.333zm-1.672-9.59c.2.2.2.521 0 .722L9.707 8.985l3.23 3.237c.2.2.2.522 0 .722a.492.492 0 0 1-.36.151.514.514 0 0 1-.359-.15L8.981 9.706l-3.237 3.237a.498.498 0 0 1-.718 0c-.2-.2-.2-.522 0-.722l3.237-3.237-3.237-3.237c-.2-.2-.2-.522 0-.722.2-.2.521-.2.722 0l3.237 3.237 3.237-3.237c.2-.2.522-.2.722 0z"/>
</svg>
