<svg xmlns="http://www.w3.org/2000/svg" width="17" height="18" viewBox="0 0 17 18">
    <path fill="#000" fill-rule="nonzero" d="M4.77 11.841h9.91c1.123 0 2.04-.916 2.04-2.04V5.63v-.014-.03c0-.007 0-.014-.004-.022l-.003-.026c0-.007-.004-.014-.004-.022-.004-.007-.004-.015-.007-.026-.004-.007-.004-.015-.008-.022-.004-.007-.004-.015-.007-.022-.004-.007-.008-.015-.011-.026a45820.858 45820.858 0 0 0-.022-.04l-.012-.02-.014-.021a.065.065 0 0 0-.015-.019c-.004-.007-.011-.01-.015-.018-.004-.008-.011-.011-.015-.019-.003-.007-.01-.01-.015-.015l-.018-.018c-.007-.004-.011-.011-.018-.015-.008-.003-.015-.01-.023-.015-.007-.003-.01-.007-.018-.01-.008-.004-.015-.008-.022-.015l-.023-.012-.022-.01-.022-.012c-.007-.003-.015-.003-.022-.007a.069.069 0 0 0-.026-.007c-.007 0-.015-.004-.018-.004-.011-.004-.019-.004-.03-.004-.004 0-.007-.004-.015-.004L3.731 3.403V1.651c0-.018 0-.037-.003-.052 0-.003 0-.007-.003-.015 0-.01-.004-.022-.004-.033-.004-.01-.004-.018-.008-.03 0-.007-.003-.01-.003-.018l-.011-.033c0-.004-.004-.011-.004-.015a.11.11 0 0 0-.015-.03c-.004-.003-.004-.01-.007-.014a.077.077 0 0 0-.015-.022l-.011-.019-.011-.018c-.004-.008-.011-.015-.015-.023l-.011-.01-.022-.023-.011-.01c-.008-.008-.015-.016-.026-.023l-.015-.011c-.007-.008-.015-.011-.022-.019a.34.34 0 0 0-.03-.018c-.003-.004-.007-.004-.01-.008-.016-.007-.034-.014-.049-.022L.701.04a.498.498 0 1 0-.388.92L2.73 1.98v10.933c0 1.035.776 1.892 1.778 2.022a2.016 2.016 0 0 0-.288 1.035c0 1.112.905 2.014 2.014 2.014A2.02 2.02 0 0 0 8.25 15.97c0-.37-.1-.721-.278-1.017h4.487c-.177.3-.277.647-.277 1.017 0 1.112.906 2.014 2.015 2.014a2.02 2.02 0 0 0 2.014-2.014 2.02 2.02 0 0 0-2.014-2.015H4.77c-.577 0-1.043-.47-1.043-1.042V11.56c.303.178.662.281 1.043.281zm2.484 4.125c0 .562-.458 1.016-1.016 1.016a1.02 1.02 0 0 1-1.017-1.016 1.02 1.02 0 0 1 1.017-1.016c.558 0 1.016.454 1.016 1.016zm7.962 0c0 .562-.459 1.016-1.017 1.016a1.02 1.02 0 0 1-1.016-1.016 1.02 1.02 0 0 1 1.016-1.016c.558 0 1.017.454 1.017 1.016zm-.536-5.123H4.77c-.576 0-1.042-.47-1.042-1.042V4.408L15.722 6.06v3.737c0 .58-.47 1.046-1.042 1.046z"/>
</svg>
