<svg xmlns="http://www.w3.org/2000/svg" width="18" height="18" viewBox="0 0 18 18">
    <path fill="#343434" fill-rule="evenodd" d="M17.88 6.46a.29.29 0 0 1 0 .409L15.56 9.187a.29.29 0 0 1-.41 0l-.664-.665v6.834h-.003a.287.287 0 0 1-.082.205l-2.318 2.318a.29.29 0 0 1-.205.085H1.45a1.445 1.445 0 0 1-.86-2.608 1.435 1.435 0 0 1 0-2.318 1.444 1.444 0 0 1 .86-2.607h2.028V8.522l-.664.665a.29.29 0 0 1-.41 0L.085 6.869a.29.29 0 0 1 0-.41l2.897-2.897a.29.29 0 0 1 .153-.08l3.188-.58a.29.29 0 0 1 .342.285c0 .092.008.184.024.275l2.003-.501v-.353c0-.16.13-.29.29-.29a.87.87 0 1 0-.87-.87h-.579a1.449 1.449 0 1 1 1.739 1.42v.093l2.003.5a1.72 1.72 0 0 0 .025-.274.29.29 0 0 1 .342-.285l3.187.58a.29.29 0 0 1 .153.08l2.897 2.897zM8.981 3.485l-2.107.526A2.364 2.364 0 0 0 8.982 5.18a2.364 2.364 0 0 0 2.107-1.167l-2.107-.526zM.58 11.879c0 .48.389.87.869.87h6.374a.87.87 0 1 0 0-1.739H1.45a.87.87 0 0 0-.87.87zm0 2.318c0 .48.389.87.869.87h6.374a.87.87 0 1 0 0-1.739H1.45a.87.87 0 0 0-.87.87zm7.243 3.187a.87.87 0 1 0 0-1.738H1.45a.87.87 0 1 0 0 1.738h6.375zm4.346-.41l1.329-1.328h-1.329v1.329zm3.187-8.402l1.909-1.908-2.63-2.628-2.782-.506c-.19 1.256-1.405 2.229-2.872 2.229-1.466 0-2.682-.973-2.871-2.229l-2.782.506L.7 6.664l1.908 1.908L4.43 6.75l.41.41-.784.784v2.488h3.766a1.444 1.444 0 0 1 .862 2.607 1.434 1.434 0 0 1 0 2.318l.032.024c.624.482.74 1.38.258 2.004h2.615v-2.028c0-.16.13-.29.29-.29h2.028V7.943l-.785-.784.41-.41 1.823 1.823zM1.16 11.59h6.954v.58H1.159v-.58zm0 2.318h6.664v.579H1.16v-.58zm0 2.317h6.664v.58H1.16v-.58z"/>
</svg>
