<svg xmlns="http://www.w3.org/2000/svg" width="25" height="25" viewBox="0 0 25 25">
    <g fill="none" fill-rule="evenodd">
        <circle cx="12.5" cy="12.5" r="12.5" fill="#343434"/>
        <path fill="#FFF" d="M18.195 10.177l-6.545 6.791a.371.371 0 0 1-.286.123c-.123 0-.246-.041-.287-.123l-3.19-3.436-.082-.082a.442.442 0 0 1-.123-.286c0-.082.04-.205.123-.287l.572-.572a.395.395 0 0 1 .573 0l.04.04 2.25 2.414a.198.198 0 0 0 .287 0l5.482-5.686h.041a.395.395 0 0 1 .573 0l.572.572c.164.123.164.369 0 .532z"/>
    </g>
</svg>
