<svg xmlns="http://www.w3.org/2000/svg" width="18" height="18" viewBox="0 0 18 18">
    <g fill="#343434" fill-rule="evenodd">
        <path d="M9 0C4.038 0 0 4.037 0 9s4.038 9 9 9 9-4.037 9-9-4.038-9-9-9zm0 17.308C4.42 17.308.692 13.58.692 9 .692 4.42 4.42.692 9 .692c4.58 0 8.308 3.727 8.308 8.308 0 4.58-3.727 8.308-8.308 8.308z"/>
        <path d="M12.36 5.64a.346.346 0 0 0-.49 0L9 8.51 6.13 5.64a.346.346 0 1 0-.49.49L8.51 9l-2.87 2.87a.346.346 0 1 0 .49.49L9 9.49l2.87 2.87a.345.345 0 0 0 .49 0 .346.346 0 0 0 0-.49L9.49 9l2.87-2.87a.346.346 0 0 0 0-.49z"/>
    </g>
</svg>
