<svg xmlns="http://www.w3.org/2000/svg" width="18" height="16" viewBox="0 0 18 16">
    <path fill="#343434" fill-rule="evenodd" d="M13.056 12.77a7.12 7.12 0 0 1-.804.729h4.623a.376.376 0 0 1 .266.64l-.84.842a2.614 2.614 0 0 1-1.859.769H2.807a2.61 2.61 0 0 1-1.856-.77l-.841-.84a.374.374 0 0 1 .265-.641h4.622A7.102 7.102 0 0 1 2.25 7.875v-.75C2.25 6.505 2.754 6 3.375 6h10.5C14.495 6 15 6.504 15 7.124v.584c.603-.191 1.581-.383 2.274.062.481.31.726.85.726 1.605 0 2.427-4.61 3.33-4.806 3.368l-.138.027zm.75-.942c1.379-.379 3.444-1.214 3.444-2.453 0-.49-.126-.808-.381-.972-.49-.315-1.42-.07-1.898.11a7.099 7.099 0 0 1-1.164 3.315zm-1.249.377a6.355 6.355 0 0 0 1.693-4.33v-.75a.375.375 0 0 0-.375-.375h-10.5A.375.375 0 0 0 3 7.125v.75c0 2.364 1.289 4.51 3.37 5.624h4.507a6.401 6.401 0 0 0 1.68-1.294zm-6.26 2.045H1.28l.2.2c.355.355.827.55 1.327.55h11.636c.5 0 .972-.195 1.326-.55l.201-.2H6.297zm5.247-11.391c-.387.483-.387 1.299 0 1.78a.375.375 0 1 1-.586.47c-.61-.762-.61-1.956 0-2.718.387-.483.387-1.299 0-1.781a.375.375 0 1 1 .586-.469c.61.762.61 1.956 0 2.718zm-2.253 0c-.387.483-.387 1.299 0 1.78a.375.375 0 1 1-.586.47c-.61-.762-.61-1.956 0-2.718.388-.483.388-1.299 0-1.781a.375.375 0 1 1 .586-.469c.61.762.61 1.956 0 2.718zm-2.247 0c-.387.484-.387 1.299 0 1.782a.375.375 0 1 1-.586.468c-.61-.762-.61-1.956 0-2.718.387-.483.387-1.299 0-1.781a.375.375 0 0 1 .586-.468c.61.762.61 1.955 0 2.717z"/>
</svg>
