<svg xmlns="http://www.w3.org/2000/svg" width="18" height="18" viewBox="0 0 18 18">
    <path fill="#343434" fill-rule="evenodd" d="M2 17.908c-1.149-.323-2-1.456-2-2.8V13.63c0-.335.25-.606.56-.606h2.446l.067-10.763C3.073 1.017 3.967 0 5.067 0H16v.004c1.114.072 2 1.077 2 2.302v2.71c0 .335-.25.606-.56.606h-2.577v9.486c0 1.595-1.198 2.892-2.67 2.892a2.49 2.49 0 0 1-.193-.008V18H2v-.092zM2.67 17h7.505a3.023 3.023 0 0 1-.652-1.892v-.87H1.12v.87c0 .925.696 1.679 1.55 1.679V17zM16 1.222v.026h-.38c-.435.12-.757.55-.757 1.058v2.103h2.017V2.306c0-.555-.385-1.015-.88-1.084zm-2.02.026H5.067c-.5 0-.907.457-.907 1.019l-.066 10.758h5.989c.31 0 .56.271.56.606v1.477c0 .925.695 1.679 1.55 1.679.854 0 1.55-.754 1.55-1.68V2.307c0-.381.086-.741.237-1.058zM8.442 3C8.75 3 9 3.224 9 3.5s-.25.5-.558.5H5.558C5.25 4 5 3.776 5 3.5s.25-.5.558-.5h2.884zm3.026 3c.294 0 .532.224.532.5s-.238.5-.532.5H5.532C5.238 7 5 6.776 5 6.5s.238-.5.532-.5h5.936zm0 2c.294 0 .532.224.532.5s-.238.5-.532.5H5.532C5.238 9 5 8.776 5 8.5s.238-.5.532-.5h5.936zm0 3c.294 0 .532.224.532.5s-.238.5-.532.5H5.532C5.238 12 5 11.776 5 11.5s.238-.5.532-.5h5.936z"/>
</svg>
