<svg xmlns="http://www.w3.org/2000/svg" width="16" height="18" viewBox="0 0 16 18">
    <g fill="#000" fill-rule="nonzero">
        <path d="M15.524 2.587h-3.74v-.61A1.98 1.98 0 0 0 9.805 0H6.25a1.98 1.98 0 0 0-1.977 1.977v.61H.533a.497.497 0 0 0-.5.5c0 .276.222.498.5.498h.901V15.31a2.672 2.672 0 0 0 2.669 2.669h7.85a2.672 2.672 0 0 0 2.669-2.669V3.585h.902a.497.497 0 0 0 .499-.499.497.497 0 0 0-.5-.499zM5.27 1.977c0-.54.44-.98.98-.98h3.555c.54 0 .98.44.98.98v.61H5.27v-.61zm8.353 13.332c0 .92-.75 1.67-1.67 1.67H4.102c-.92 0-1.671-.75-1.671-1.67V3.585h11.196V15.31h-.004z"/>
        <path d="M8.028 15.191a.497.497 0 0 0 .499-.499V5.873a.497.497 0 0 0-.5-.499.497.497 0 0 0-.498.5v8.814a.5.5 0 0 0 .499.503zM4.772 14.64a.497.497 0 0 0 .499-.499v-7.72a.497.497 0 0 0-.5-.5.497.497 0 0 0-.498.5v7.72a.5.5 0 0 0 .499.5zM11.284 14.64a.497.497 0 0 0 .5-.499v-7.72a.497.497 0 0 0-.5-.5.497.497 0 0 0-.499.5v7.72c0 .277.222.5.5.5z"/>
    </g>
</svg>
