<svg xmlns="http://www.w3.org/2000/svg" width="15" height="18" viewBox="0 0 15 18">
    <path fill="#343434" fill-rule="evenodd" d="M14.16 13.216c.276.51.128 1.13-.335 1.384a.863.863 0 0 1-.423.109c-.36 0-.723-.213-.921-.576l-1.804-3.297h-4.66c-.025 0-.051 0-.077-.004h-.088c-.697 0-1.285-.54-1.331-1.246l-.307-4.684a1.336 1.336 0 0 1 1.246-1.42l.276-.016a1.333 1.333 0 0 1 1.42 1.242L7.236 6h2.843c.363 0 .657.328.657.731 0 .402-.294.73-.657.73H7.332l.07 1.044h3.401c.13 0 .251.02.368.06.298.052.579.246.748.554l2.24 4.096zM5.616 3.1a1.55 1.55 0 1 1 0-3.1 1.55 1.55 0 0 1 0 3.1zm5.744 10.953c.284.27.135.487 0 .79-1.406 2.477-3.92 3.414-6.19 3.09C2.898 17.608.275 15.689.032 12.35-.21 9.01 2.372 7.173 2.372 7.173s.135-.108.351-.243c.216-.136.446-.095.595.08.149.177.163.38-.162.676-1.568 1.217-2.068 2.393-2.258 3.88-.284 2.811 1.88 4.812 3.623 5.34 1.744.526 3 .093 3.948-.393 1.54-.784 1.96-1.879 2.243-2.312.284-.432.65-.148.65-.148z"/>
</svg>
