<svg xmlns="http://www.w3.org/2000/svg" width="18" height="17" viewBox="0 0 18 17">
    <path fill="#343434" fill-rule="evenodd" d="M17.455 8.129c.286 0 .514.232.514.514v4.683a3.34 3.34 0 0 1-3.336 3.337H3.337A3.34 3.34 0 0 1 0 13.326V8.567c0-.286.229-.515.515-.515.286 0 .515.23.515.515v4.76a2.31 2.31 0 0 0 2.307 2.307h11.296a2.31 2.31 0 0 0 2.307-2.308V8.643c0-.286.229-.514.515-.514zm-8.833 4.446L5.347 9.303a.513.513 0 0 1 0-.728.513.513 0 0 1 .728 0L8.47 10.97V.524c0-.286.229-.514.515-.514.286 0 .515.228.515.514V10.97l2.39-2.395a.513.513 0 0 1 .73 0 .513.513 0 0 1 0 .728l-3.273 3.272a.502.502 0 0 1-.362.153.518.518 0 0 1-.363-.153z"/>
</svg>
