<svg xmlns="http://www.w3.org/2000/svg" width="13" height="18" viewBox="0 0 13 18">
    <path fill="#343434" fill-rule="evenodd" d="M6.662 12.164a.352.352 0 1 1 0 .703.352.352 0 0 1 0-.703zm-1.19-.308a.352.352 0 0 1-.342.615 3.17 3.17 0 0 1-1.632-2.768.352.352 0 1 1 .703 0c0 .893.487 1.718 1.27 2.153zM12.304 0a.352.352 0 1 1 0 .703H9.087L8.62 3.516h.855c.153 0 .288.099.335.244l1.03 3.237c.093.29.171.617.235.973a.35.35 0 0 1 .031.192 10.2 10.2 0 0 1 .126 1.514v.027a4.578 4.578 0 0 1-3.515 4.447v3.147h2.46a.352.352 0 0 1 0 .703h-7.03a.352.352 0 0 1 0-.703h2.46v-3.145a4.539 4.539 0 0 1-2.177-1.217 4.539 4.539 0 0 1-1.338-3.3A7.97 7.97 0 0 1 2.4 7.48a3.889 3.889 0 0 1-1.266-.843A3.842 3.842 0 0 1 0 3.87v-.003-.004-.002a3.897 3.897 0 0 1 1.121-2.7A3.817 3.817 0 0 1 3.883.002h.01a3.858 3.858 0 0 1 2.736 1.141 3.786 3.786 0 0 1 1.092 2.374h.187L8.442.294A.352.352 0 0 1 8.79 0h3.516zm-5.29 3.516a3.084 3.084 0 0 0-.65-1.612l-1.6 1.612h2.25zM4.236.725v2.324L5.87 1.404a3.15 3.15 0 0 0-1.634-.68zm-.125 3.494l-.956 3.187c0 .002 0 .004-.002.006a8.35 8.35 0 0 0-.104.358h4.153l.589-3.551h-3.68zM3.533.72a3.107 3.107 0 0 0-1.652.698L3.533 3.07V.721zm-2.144 1.2a3.189 3.189 0 0 0-.662 1.595h2.256L1.39 1.922zM.72 4.22c.06.61.294 1.18.676 1.658l1.608-1.608a.351.351 0 0 1 .064-.05H.719zm1.173 2.155c.217.174.457.318.71.429l.488-1.626-1.198 1.197zm5.122 10.923v-3.024H6.31v3.024h.703zm3.515-7.62a9.346 9.346 0 0 0-.087-1.204h-2.94-4.607c-.064.38-.097.766-.1 1.171v.06a3.84 3.84 0 0 0 1.133 2.733 3.84 3.84 0 0 0 2.734 1.133 3.872 3.872 0 0 0 3.867-3.867v-.026zM9.218 4.22h-.714l-.59 3.55h2.404a6.322 6.322 0 0 0-.148-.558l-.952-2.992z"/>
</svg>
