<svg xmlns="http://www.w3.org/2000/svg" width="17" height="18" viewBox="0 0 17 18">
    <g fill="#000" fill-rule="nonzero">
        <path d="M11.477 7.734a.703.703 0 0 0-.703-.703H3.532a.703.703 0 1 0 0 1.407h7.242a.703.703 0 0 0 .703-.704zM3.532 9.844a.703.703 0 1 0 0 1.406H7.93a.703.703 0 1 0 0-1.406H3.532z"/>
        <path d="M5.184 16.594H2.833c-.776 0-1.407-.631-1.407-1.407V2.813c0-.776.631-1.407 1.407-1.407h8.644c.775 0 1.406.631 1.406 1.407v4.324a.703.703 0 1 0 1.407 0V2.813A2.816 2.816 0 0 0 11.477 0H2.833A2.816 2.816 0 0 0 .02 2.813v12.374A2.816 2.816 0 0 0 2.833 18h2.351a.703.703 0 1 0 0-1.406z"/>
        <path d="M15.535 10.18a2.112 2.112 0 0 0-2.983 0l-3.86 3.851a.703.703 0 0 0-.176.294l-.84 2.767a.703.703 0 0 0 .86.882l2.838-.786a.703.703 0 0 0 .309-.18l3.852-3.845a2.112 2.112 0 0 0 0-2.983zm-4.715 5.702l-1.428.396.418-1.376 2.605-2.599.995.995-2.59 2.584zm3.721-3.713l-.136.136-.994-.995.135-.135a.704.704 0 0 1 .995.994zM10.774 4.219H3.532a.703.703 0 1 0 0 1.406h7.242a.703.703 0 1 0 0-1.406z"/>
    </g>
</svg>
