<svg xmlns="http://www.w3.org/2000/svg" width="23" height="15" viewBox="0 0 23 15">
    <g fill="none" fill-rule="nonzero">
        <path fill="#41479B" d="M21.277 0H1.723C.77 0 0 .768 0 1.715v11.57C0 14.232.771 15 1.723 15h19.554C22.23 15 23 14.232 23 13.285V1.715C23 .768 22.229 0 21.277 0z"/>
        <path fill="#F5F5F5" d="M22.976 1.431A1.72 1.72 0 0 0 21.277 0h-.448l-7.346 4.791V0H9.517v4.791L2.171 0h-.448a1.72 1.72 0 0 0-1.7 1.431l6.28 4.095H0v3.948h6.303l-6.28 4.095A1.72 1.72 0 0 0 1.724 15h.448l7.346-4.791V15h3.966v-4.791L20.829 15h.448a1.72 1.72 0 0 0 1.7-1.431l-6.28-4.095H23V5.526h-6.303l6.28-4.095z"/>
        <g fill="#FF4B55">
            <path d="M12.69.012h-2.38v6.306H0v2.364h10.31v6.306h2.38V8.682H23V6.318H12.69z"/>
            <path d="M1.114 14.877L9.495 9.47H8.04L.414 14.39c.187.216.427.386.7.488zM15.56 9.47h-1.456l8.118 5.237c.227-.148.417-.348.552-.583L15.56 9.47zM.182.959l7.085 4.57h1.457L.695.35C.48.51.303.718.182.96zM14.94 5.53L22.577.602a1.725 1.725 0 0 0-.705-.485l-8.39 5.413h1.456z"/>
        </g>
    </g>
</svg>
