<svg xmlns="http://www.w3.org/2000/svg" width="18" height="18" viewBox="0 0 18 18">
    <path fill="#343434" fill-rule="evenodd" d="M9 0c4.963 0 9 4.037 9 9s-4.037 9-9 9-9-4.037-9-9 4.037-9 9-9zm0 16.96c4.39 0 7.96-3.57 7.96-7.96 0-4.39-3.57-7.96-7.96-7.96-4.39 0-7.96 3.57-7.96 7.96 0 4.39 3.57 7.96 7.96 7.96zm4.955-12.703c.08.15.08.322.013.465l-.004.008a.521.521 0 0 1-.019.036L10.813 10.6a.52.52 0 0 1-.211.212l-5.853 3.143-.007.003-.002.002a.519.519 0 0 1-.695-.709L7.19 7.402a.52.52 0 0 1 .212-.211l5.85-3.146a.52.52 0 0 1 .704.212zm-8.178 7.969l3.716-1.998-1.718-1.719-1.998 3.717zm4.451-2.733l1.998-3.716L8.51 7.775l1.718 1.718z"/>
</svg>
