<svg xmlns="http://www.w3.org/2000/svg" width="18" height="16" viewBox="0 0 18 16">
    <path fill="#343434" fill-rule="evenodd" d="M17.872 7.377a17.063 17.063 0 0 0-3.887-3.701l2.536-2.536a.643.643 0 1 0-.908-.909L12.843 3a8.31 8.31 0 0 0-3.845-1.028C4.113 1.97.284 7.156.123 7.377a.643.643 0 0 0 0 .756 17.063 17.063 0 0 0 3.887 3.7L1.474 14.37a.643.643 0 1 0 .908.909l2.771-2.768a8.31 8.31 0 0 0 3.845 1.028c4.884 0 8.714-5.185 8.874-5.406a.643.643 0 0 0 0-.756zM4.944 10.901a16.002 16.002 0 0 1-3.482-3.146c.946-1.146 4.014-4.499 7.536-4.499a6.803 6.803 0 0 1 2.885.707L10.767 5.08A3.208 3.208 0 0 0 6.32 9.526l-1.376 1.375zm5.789-3.972c.126.257.192.54.193.826a1.928 1.928 0 0 1-1.928 1.928 1.896 1.896 0 0 1-.826-.193l2.56-2.56zm-3.47 1.652a1.896 1.896 0 0 1-.193-.826c0-1.065.863-1.928 1.928-1.928.286 0 .568.067.825.193l-2.56 2.56zm1.735 3.673a6.803 6.803 0 0 1-2.885-.707l1.115-1.116a3.208 3.208 0 0 0 4.448-4.447l1.375-1.376a16.003 16.003 0 0 1 3.483 3.147c-.946 1.146-4.015 4.499-7.536 4.499z"/>
</svg>
