<svg xmlns="http://www.w3.org/2000/svg" width="18" height="12" viewBox="0 0 18 12">
    <g fill="#343434" fill-rule="evenodd">
        <path d="M17.886 5.416C17.725 5.196 13.893.029 9 .029 4.106.03.275 5.196.114 5.415a.594.594 0 0 0 0 .7c.16.22 3.992 5.387 8.886 5.387 4.893 0 8.725-5.166 8.886-5.386a.593.593 0 0 0 0-.7zM9 10.316c-3.605 0-6.727-3.43-7.65-4.55.922-1.123 4.038-4.55 7.65-4.55 3.604 0 6.726 3.428 7.65 4.55-.922 1.122-4.038 4.55-7.65 4.55z"/>
        <path d="M9 2.205a3.565 3.565 0 0 0-3.56 3.56A3.565 3.565 0 0 0 9 9.327a3.565 3.565 0 0 0 3.56-3.56A3.565 3.565 0 0 0 9 2.206zM9 8.14a2.376 2.376 0 0 1-2.374-2.373A2.376 2.376 0 0 1 9 3.392a2.376 2.376 0 0 1 2.374 2.374A2.376 2.376 0 0 1 9 8.139z"/>
    </g>
</svg>
