<svg xmlns="http://www.w3.org/2000/svg" width="18" height="18" viewBox="0 0 18 18">
    <g fill="none" fill-rule="evenodd">
        <path fill="#343434" d="M10.774 3.003L9.334 3c-1.616 0-2.66 1.256-2.66 3.2v1.474H5.225c-.125 0-.226.12-.226.266v2.137c0 .146.101.265.226.265h1.447v5.393c0 .146.102.265.227.265h1.887c.125 0 .227-.119.227-.265v-5.393h1.692c.125 0 .226-.119.226-.265V7.94a.29.29 0 0 0-.066-.188.211.211 0 0 0-.16-.078H9.014v-1.25c0-.601.122-.906.79-.906h.97c.125 0 .226-.12.226-.266V3.268c0-.146-.101-.265-.226-.265z"/>
    </g>
</svg>
