<svg xmlns="http://www.w3.org/2000/svg" width="18" height="18" viewBox="0 0 18 18">
    <g fill="none" fill-rule="evenodd">
        <path fill="#D3E0F2" d="M1 4h16v13H1z"/>
        <path fill="#FF5A5F" d="M4 8h2v5H4z"/>
        <path fill="#343434" d="M1 3h16V2a1 1 0 0 0-1-1H2a1 1 0 0 0-1 1v1zm0 1v12a1 1 0 0 0 1 1h14a1 1 0 0 0 1-1V4H1zm1-4h14a2 2 0 0 1 2 2v14a2 2 0 0 1-2 2H2a2 2 0 0 1-2-2V2a2 2 0 0 1 2-2zm2 8v5h2V8H4zm0-1h2a1 1 0 0 1 1 1v5a1 1 0 0 1-1 1H4a1 1 0 0 1-1-1V8a1 1 0 0 1 1-1zm4.167 2V8h7.586v1H8.167zm0 2v-1h7.586v1H8.167zm0 2v-1h7.586v1H8.167z"/>
    </g>
</svg>
