<svg xmlns="http://www.w3.org/2000/svg" width="18" height="18" viewBox="0 0 18 18">
    <g fill="#343434" fill-rule="evenodd">
        <path d="M9 6.656A2.347 2.347 0 0 0 6.656 9 2.347 2.347 0 0 0 9 11.344 2.347 2.347 0 0 0 11.344 9 2.347 2.347 0 0 0 9 6.656zm0 3.634c-.711 0-1.29-.579-1.29-1.29 0-.711.579-1.29 1.29-1.29.711 0 1.29.579 1.29 1.29 0 .711-.579 1.29-1.29 1.29z"/>
        <path d="M16.385 8.473a7.415 7.415 0 0 0-6.858-6.858V0H8.473v1.615a7.415 7.415 0 0 0-6.858 6.858H0v1.054h1.615a7.415 7.415 0 0 0 6.858 6.858V18h1.054v-1.615a7.415 7.415 0 0 0 6.858-6.858H18V8.473h-1.615zm-1.058 1.054a6.359 6.359 0 0 1-5.8 5.8v-.85H8.473v.85a6.359 6.359 0 0 1-5.8-5.8h.85V8.473h-.85a6.359 6.359 0 0 1 5.8-5.8v.85h1.054v-.85a6.359 6.359 0 0 1 5.8 5.8h-.85v1.054h.85z"/>
    </g>
</svg>
