<svg xmlns="http://www.w3.org/2000/svg" width="18" height="18" viewBox="0 0 18 18">
    <path fill="#343434" fill-rule="evenodd" d="M2.11 13.781c1.163 0 2.109.946 2.109 2.11 0 1.163-.946 2.109-2.11 2.109A2.112 2.112 0 0 1 0 15.89c0-1.163.946-2.109 2.11-2.109zm0 2.813a.704.704 0 1 0-.002-1.408.704.704 0 0 0 .001 1.408zm-.633-6.856a.703.703 0 1 0 1.406 0 .703.703 0 0 0-1.406 0zm0 2.461a.703.703 0 1 0 1.406 0 .703.703 0 0 0-1.406 0zm0-4.922a.703.703 0 1 0 1.406 0 .703.703 0 0 0-1.406 0zm.703-3.164a.703.703 0 1 0 0 1.406.703.703 0 0 0 0-1.406zm1.054-1.758a.703.703 0 1 0-1.406 0 .703.703 0 0 0 1.406 0zm5.801 7.383a.703.703 0 1 0 1.406 0 .703.703 0 0 0-1.406 0zm0 2.461a.703.703 0 1 0 1.406 0 .703.703 0 0 0-1.406 0zm.387 2.461a.703.703 0 1 0 1.406 0 .703.703 0 0 0-1.406 0zm-.387-7.383a.703.703 0 1 0 1.406 0 .703.703 0 0 0-1.406 0zm0-2.46a.703.703 0 1 0 1.406 0 .703.703 0 0 0-1.406 0zm-.351-2.462a.703.703 0 1 0 1.406 0 .703.703 0 0 0-1.406 0zM4.57 1.406A.703.703 0 1 0 4.57 0a.703.703 0 0 0 0 1.406zM6.61.703a.703.703 0 1 0 1.406 0 .703.703 0 0 0-1.407 0zM18 9.738a.703.703 0 1 0-1.406 0 .703.703 0 0 0 1.406 0zm-.703 3.164a.703.703 0 1 0 0-1.406.703.703 0 0 0 0 1.406zm-1.055 1.758a.703.703 0 1 0 1.406 0 .703.703 0 0 0-1.406 0zm-2.004 1.652a.703.703 0 1 0 1.406 0 .703.703 0 0 0-1.406 0zm-2.812 0a.703.703 0 1 0 1.406 0 .703.703 0 0 0-1.406 0zm5.168-11.707h-4.628l1.776-2.307L11.96 0H18v7.84h-1.406V4.605zm0-3.199H14.83l.69.888-.697.905h1.77V1.406z"/>
</svg>
