<svg xmlns="http://www.w3.org/2000/svg" width="18" height="18" viewBox="0 0 18 18">
    <g fill="#343434" fill-rule="evenodd">
        <path d="M3.953 3.689c0 1.448 1.143 2.649 2.562 2.73h.346a2.746 2.746 0 0 0 2.588-2.73A2.744 2.744 0 0 0 6.7.953a2.744 2.744 0 0 0-2.748 2.736zm-.953 0A3.697 3.697 0 0 1 6.7 0c2.042 0 3.702 1.653 3.702 3.689 0 1.955-1.54 3.572-3.515 3.683H6.64l-.151-.001A3.699 3.699 0 0 1 3 3.689z"/>
        <path d="M10.63 18H2.37C1.07 18 0 16.734 0 15.158v-.428c0-4.188 2.81-7.61 6.351-7.728.018.001.04.003.066.003l.083.001h.083L6.692 7C10.189 7.12 13 10.542 13 14.73v.428C13 16.734 11.93 18 10.63 18zM12 14.725C12 11.101 9.633 8.108 6.705 8c-.035.004-.07.006-.11.007l-.095.001h-.095a.248.248 0 0 1-.069-.006C3.367 8.108 1 11.1 1 14.725v.428C1 16.161 1.682 17 2.533 17h7.934c.85 0 1.533-.839 1.533-1.847v-.428z"/>
        <path d="M10.895 18L12 17.047l.01-.047h4.015c.54 0 .975-.839.975-1.847v-.428c0-3.624-1.506-6.617-3.37-6.725a.533.533 0 0 1-.07.007l-.06.001h-.06c-.026-.002-.048-.004-.044-.006-.977.055-1.852.881-2.469 2.168l-.652-.823c.793-1.398 1.894-2.286 3.122-2.345a1.556 1.556 0 0 0 .103.005c.03 0 .03 0 .057-.002.019 0 .034-.002.076-.005C16.054 7.12 18 10.542 18 14.73v.428C18 16.734 17.26 18 16.36 18h-5.465z"/>
        <path d="M13.5 8a2.5 2.5 0 1 1 0-5 2.5 2.5 0 0 1 0 5zm0-1a1.5 1.5 0 1 0 0-3 1.5 1.5 0 0 0 0 3z"/>
    </g>
</svg>
