<svg xmlns="http://www.w3.org/2000/svg" width="20" height="17" viewBox="0 0 20 17">
    <path fill="#343434" fill-rule="evenodd" d="M7.684 10.104l.2-.05a.976.976 0 0 1 .994.31c.608.69 1.287.874 2.606.874s1.997-.183 2.605-.874a.97.97 0 0 1 .981-.313l.215.036c1.41.366 2.534 1.428 2.96 2.767.05.05.093.117.117.19l.714 2.479c.094.34.023.687-.189.956a1.05 1.05 0 0 1-.849.426H4.98c-.328 0-.635-.154-.845-.422a1.1 1.1 0 0 1-.192-.943l.713-2.496c.024-.083.042-.145.059-.198h-1.62a.814.814 0 0 1-.674-.334.815.815 0 0 1-.16-.758l.441-1.593a.645.645 0 0 1 .014-.049H1.584a.693.693 0 0 1-.576-.287.685.685 0 0 1-.105-.601l.273-.989c.28-.899.794-1.315 1.734-1.587a3.06 3.06 0 0 1-.33-1.381 1.81 1.81 0 0 1 1.84-1.824 1.743 1.743 0 0 1 .865.206A2.719 2.719 0 0 1 7.51 2.476c.289 0 .576.043.849.129a3.944 3.944 0 0 1 3.26-1.726 3.959 3.959 0 0 1 3.963 3.963c0 2.91-1.842 5.474-3.962 5.474-2.153 0-3.946-2.51-3.946-5.474 0-.483.083-.947.246-1.39a1.803 1.803 0 0 0-2.203 1.747c0 1.147.54 2.257 1.272 2.639a.467.467 0 0 1 .205.632.483.483 0 0 1-.414.25c-.1 0-.153-.01-.209-.047a2.13 2.13 0 0 1-.337-.209.463.463 0 0 1-.12.048c-1.593.408-2.165.812-2.508 1.9l-.426 1.505h1.987a4.338 4.338 0 0 1 2.517-1.813zm10.575 5.895c.051-.068.068-.17.051-.255l-.373-1.29a.274.274 0 0 1-.068-.12l-.306-1.052a3.5 3.5 0 0 0-2.462-2.395l-.204-.05a.218.218 0 0 0-.204.067c-.934 1.07-2.088 1.155-3.21 1.155-1.12 0-2.275-.085-3.209-1.155-.05-.05-.136-.085-.186-.068l-.204.051a3.47 3.47 0 0 0-2.462 2.395l-.714 2.479c-.017.068 0 .17.051.238.034.034.102.102.221.102h13.058c.12 0 .187-.068.221-.102zM1.72 9.309h1.512c.594-.935 1.494-1.275 2.513-1.53-.51-.662-.832-1.612-.832-2.58 0-.29.051-.56.136-.815-.051 0-.085-.017-.136-.034a.962.962 0 0 0-.492-.12 1.03 1.03 0 0 0-1.036 1.037c0 .679.322 1.341.764 1.579a.35.35 0 0 1 .136.458.358.358 0 0 1-.306.187c-.05 0-.102 0-.153-.034a1.33 1.33 0 0 1-.254-.17.341.341 0 0 1-.136.068c-.85.204-1.274.408-1.478 1.104l-.237.85zm8.05-4.076c-.408 0-.85-.034-1.29-.12.118 2.378 1.527 4.399 3.14 4.399 1.682 0 3.16-2.19 3.16-4.687 0-.102 0-.187-.018-.289-.136.034-.289.051-.424.051a2.27 2.27 0 0 1-1.512-.577c-.577.798-1.698 1.223-3.056 1.223zm-.951-1.817a3.534 3.534 0 0 0-.306 1.018c1.817.357 3.413-.05 3.889-1.018.017-.017.017-.034.034-.051a.287.287 0 0 1 .119-.17c.152-.119.356-.085.475.068.374.51 1.002.747 1.596.628a3.166 3.166 0 0 0-3.005-2.207A3.1 3.1 0 0 0 8.903 3.28c-.017.017-.017.05-.034.068-.017.034-.034.05-.051.068z"/>
</svg>
