<svg xmlns="http://www.w3.org/2000/svg" width="18" height="18" viewBox="0 0 18 18">
    <path fill="#343434" fill-rule="evenodd" d="M9 17.014c-.256 0-.503-.093-.696-.261a208.602 208.602 0 0 0-2.047-1.76l-.003-.003c-1.813-1.546-3.38-2.88-4.469-4.195C.567 9.325 0 7.932 0 6.41c0-1.48.507-2.844 1.428-3.843A4.84 4.84 0 0 1 5.028 1c1.04 0 1.991.328 2.829.976.422.327.805.727 1.143 1.194.338-.467.72-.867 1.144-1.194A4.528 4.528 0 0 1 12.972 1a4.84 4.84 0 0 1 3.6 1.567C17.493 3.566 18 4.93 18 6.41c0 1.522-.567 2.915-1.785 4.385-1.09 1.315-2.656 2.65-4.469 4.194a206.49 206.49 0 0 0-2.05 1.764c-.193.168-.44.261-.696.261zM5.028 2.054a3.797 3.797 0 0 0-2.825 1.228c-.74.803-1.149 1.914-1.149 3.128 0 1.28.476 2.425 1.543 3.712 1.031 1.245 2.565 2.552 4.341 4.065l.003.003c.621.529 1.325 1.129 2.057 1.77.737-.642 1.442-1.243 2.064-1.773 1.776-1.514 3.31-2.82 4.341-4.065 1.067-1.287 1.543-2.432 1.543-3.712 0-1.214-.408-2.325-1.149-3.128a3.797 3.797 0 0 0-2.825-1.228c-.8 0-1.535.255-2.184.756-.578.447-.98 1.013-1.216 1.408A.66.66 0 0 1 9 4.543a.66.66 0 0 1-.572-.325c-.236-.395-.638-.96-1.216-1.408a3.497 3.497 0 0 0-2.184-.756z"/>
</svg>
