<svg xmlns="http://www.w3.org/2000/svg" width="18" height="18" viewBox="0 0 18 18">
    <path fill="#FF5A5F" fill-rule="evenodd" d="M8.304 16.753a208.602 208.602 0 0 0-2.047-1.76l-.003-.003c-1.813-1.546-3.38-2.88-4.469-4.195C.567 9.325 0 7.932 0 6.41c0-1.48.507-2.844 1.428-3.843A4.84 4.84 0 0 1 5.028 1c1.04 0 1.991.328 2.829.976.422.327.805.727 1.143 1.194.338-.467.72-.867 1.144-1.194A4.528 4.528 0 0 1 12.972 1a4.84 4.84 0 0 1 3.6 1.567C17.493 3.566 18 4.93 18 6.41c0 1.522-.567 2.915-1.785 4.385-1.09 1.315-2.656 2.65-4.469 4.194a206.49 206.49 0 0 0-2.05 1.764 1.056 1.056 0 0 1-1.392 0z"/>
</svg>
