<svg xmlns="http://www.w3.org/2000/svg" width="18" height="18" viewBox="0 0 18 18">
    <g fill="none" fill-rule="evenodd">
        <path fill="#D3E0F2" d="M1 5.231l8-4 8 4V17h-5v-4l-3-2-3 2v4H1z"/>
        <path fill="#FF5A5F" d="M7 12h4v5H7z"/>
        <path fill="#343434" d="M7 18H2c-1.105 0-2-1.007-2-2.25V5.5h-2L9 0l11 5.5h-2v10.25c0 1.243-.895 2.25-2 2.25H7zm5-1.125h4c.552 0 1-.504 1-1.125V5.231l-8-4-8 4V15.75c0 .621.448 1.125 1 1.125h4V13c0-1.105 1.075-2 2.4-2h1.2c1.325 0 2.4.895 2.4 2v3.875zM10.8 17v-4c0-.552-.537-1-1.2-1H8.4c-.663 0-1.2.448-1.2 1v4h3.6z"/>
    </g>
</svg>
