<svg xmlns="http://www.w3.org/2000/svg" width="18" height="17" viewBox="0 0 18 17">
    <g fill="#343434" fill-rule="evenodd">
        <path d="M.818 1.72h16.364v1H.818zM1.636.025h14.727v1H1.636zM12.198 9.996a.216.216 0 0 0-.317-.065l-2.26 1.647a.105.105 0 0 1-.157-.035L6.8 6.776c-.064-.115-.166-.116-.226.003l-4.94 8.17c-.059.12-.004.216.123.216h14.445c.123 0 .173-.092.104-.204l-4.108-4.965z"/>
        <ellipse cx="14.318" cy="6.381" rx="1.227" ry="1.271"/>
        <path d="M0 3.524v13.342c0 .06.052.11.115.11h17.77c.063 0 .115-.05.115-.11V3.524c0-.06-.052-.109-.115-.109H.115a.113.113 0 0 0-.115.11zm.818.738h16.364v11.866H.818V4.262z"/>
    </g>
</svg>
