<svg xmlns="http://www.w3.org/2000/svg" width="18" height="18" viewBox="0 0 18 18">
    <path fill="#343434" fill-rule="evenodd" d="M9.286 8.76a2.569 2.569 0 0 1 2.058 2.515 2.57 2.57 0 0 1-2.058 2.515v3.675c0 .28-.224.505-.505.505a.503.503 0 0 1-.505-.505V13.79a2.57 2.57 0 0 1-2.058-2.515A2.57 2.57 0 0 1 8.276 8.76V.505C8.276.225 8.5 0 8.78 0c.28 0 .505.225.505.505V8.76zm-.505 4.068a1.554 1.554 0 0 0 0-3.106 1.554 1.554 0 0 0 0 3.106zm-5.68-8.304a2.565 2.565 0 0 1 2.058 2.511A2.57 2.57 0 0 1 3.1 9.55v7.915c0 .28-.224.505-.505.505a.503.503 0 0 1-.505-.505V9.554A2.57 2.57 0 0 1 .032 7.039 2.57 2.57 0 0 1 2.09 4.524V.505c0-.28.225-.505.505-.505S3.1.225 3.1.505v4.02zm-.506 4.068A1.554 1.554 0 1 0 1.042 7.04c0 .857.696 1.553 1.553 1.553zm12.84-4.068a2.561 2.561 0 0 1 2.058 2.511 2.57 2.57 0 0 1-2.058 2.515v7.919c0 .28-.225.505-.505.505a.503.503 0 0 1-.506-.505V9.554a2.57 2.57 0 0 1-2.058-2.515 2.57 2.57 0 0 1 2.058-2.515V.505c0-.28.225-.505.506-.505.28 0 .505.225.505.505v4.02zm-.505 4.068a1.554 1.554 0 0 0 0-3.106 1.554 1.554 0 0 0 0 3.106z"/>
</svg>
