<svg xmlns="http://www.w3.org/2000/svg" width="18" height="18" viewBox="0 0 18 18">
    <path fill="#343434" fill-rule="evenodd" d="M2.717 6.88c1.124 0 2.037.917 2.04 2.042a2.045 2.045 0 0 1-2.04 2.041A2.045 2.045 0 0 1 .675 8.922c0-1.125.917-2.041 2.042-2.041zm0 3.174c.623 0 1.132-.509 1.132-1.132 0-.624-.509-1.132-1.132-1.132-.624 0-1.132.508-1.132 1.132 0 .623.508 1.132 1.132 1.132zm0-9.054c1.124 0 2.037.917 2.04 2.041a2.045 2.045 0 0 1-2.04 2.041 2.045 2.045 0 0 1-2.042-2.04C.675 1.916 1.592 1 2.717 1zm0 3.173c.623 0 1.132-.508 1.132-1.132 0-.623-.509-1.132-1.132-1.132-.624 0-1.132.509-1.132 1.132 0 .624.508 1.132 1.132 1.132zm0 8.56c1.124 0 2.037.913 2.04 2.042a2.045 2.045 0 0 1-2.04 2.04 2.045 2.045 0 0 1-2.042-2.04c0-1.125.917-2.042 2.042-2.042zm0 3.17c.623 0 1.128-.505 1.132-1.132 0-.624-.509-1.132-1.132-1.132-.624 0-1.132.508-1.132 1.132 0 .623.508 1.132 1.132 1.132zM17.54 7.597a.456.456 0 1 1 0 .913H7.014a.456.456 0 1 1 0-.913H17.54zm0 1.74a.456.456 0 1 1 0 .914H7.014a.456.456 0 1 1 0-.913H17.54zM7.014 14.356a.456.456 0 1 1 0-.913H17.54a.456.456 0 1 1 0 .913H7.014zM17.54 16.1H7.014a.456.456 0 1 1 0-.913H17.54a.456.456 0 1 1 0 .913zM6.562 2.2c0-.252.2-.456.452-.456h10.53a.456.456 0 1 1 0 .913H7.018a.456.456 0 0 1-.456-.456zM17.54 3.489a.456.456 0 1 1 0 .913H7.014a.456.456 0 1 1 0-.913H17.54z"/>
</svg>
