<svg xmlns="http://www.w3.org/2000/svg" width="13" height="18" viewBox="0 0 13 18">
    <path fill="#343434" fill-rule="evenodd" d="M6.3 5.1a.9.9 0 1 1 0 1.8.9.9 0 0 1 0-1.8zm0 1.2a.3.3 0 1 0 0-.6.3.3 0 0 0 0 .6zM1.2 8.1V1.2h7.2v6.9H1.2zm.6-6.3v5.7h6V1.8h-6zm1.8.6h2.7V3H3.6v-.6zm0 1.2h2.7v.6H3.6v-.6zm6-3.6v18H0V0h9.6zM.6.6v8.1H9V.6H.6zM9 17.4V9.3H.6v8.1H9zm-3.6-2.7a.9.9 0 1 1 1.8 0 .9.9 0 0 1-1.8 0zm1.2 0a.3.3 0 1 0-.6 0 .3.3 0 0 0 .6 0zm1.8-4.8v6.9H1.2V9.9h7.2zm-.6 6.3v-5.7h-6v5.7h6zm-4.2-5.1h2.7v.6H3.6v-.6zm0 1.2h2.7v.6H3.6v-.6zm7.2-6.9V3h1.5v.6h-.9v.6h.9v.6h-.9v.6h.6v2.4h-1.8V5.4h.6zm.6 1.8V6h-.6v1.2h.6z"/>
</svg>
