<svg xmlns="http://www.w3.org/2000/svg" width="18" height="18" viewBox="0 0 18 18">
    <g fill="#343434" fill-rule="evenodd">
        <path d="M8.54 9.727a1.788 1.788 0 0 0-1.23 3.083v1.613a1.23 1.23 0 0 0 1.23 1.229 1.23 1.23 0 0 0 1.228-1.23V12.81a1.788 1.788 0 0 0-1.229-3.083zm.631 2.457a.851.851 0 0 0-.268.616v1.623a.364.364 0 0 1-.728 0V12.8a.851.851 0 0 0-.268-.616.922.922 0 1 1 1.264 0z"/>
        <path d="M13.777 7.378h-1.298V3.94A3.944 3.944 0 0 0 8.54 0 3.944 3.944 0 0 0 4.6 3.94v3.438H3.302a1.3 1.3 0 0 0-1.298 1.298v8.026A1.3 1.3 0 0 0 3.302 18h10.475a1.3 1.3 0 0 0 1.297-1.298V8.676a1.3 1.3 0 0 0-1.297-1.298zM5.464 3.94A3.078 3.078 0 0 1 8.54.865a3.078 3.078 0 0 1 3.075 3.075v3.438h-6.15V3.94zm8.745 12.762a.433.433 0 0 1-.432.433H3.302a.433.433 0 0 1-.433-.433V8.676c0-.238.194-.432.433-.432h10.475c.238 0 .432.194.432.432v8.026z"/>
    </g>
</svg>
