<svg xmlns="http://www.w3.org/2000/svg" width="18" height="18" viewBox="0 0 18 18">
    <g fill="#343434" fill-rule="evenodd">
        <path d="M8.97 16.475H2.243a.748.748 0 0 1-.748-.747V2.272c0-.412.335-.747.748-.747H8.97a.747.747 0 1 0 0-1.495H2.243A2.245 2.245 0 0 0 0 2.272v13.456a2.245 2.245 0 0 0 2.243 2.242H8.97a.747.747 0 1 0 0-1.495z"/>
        <path d="M17.777 8.468l-4.545-4.485a.747.747 0 1 0-1.05 1.064l3.249 3.205H6.728a.747.747 0 1 0 0 1.495h8.703l-3.248 3.206a.747.747 0 1 0 1.05 1.064l4.544-4.485a.749.749 0 0 0 0-1.064z"/>
    </g>
</svg>
