<svg xmlns="http://www.w3.org/2000/svg" width="18" height="18" viewBox="0 0 18 18">
    <g fill="#343434" fill-rule="evenodd">
        <path d="M15.78 2.028H2.198A2.2 2.2 0 0 0 0 4.226v9.282a2.2 2.2 0 0 0 2.198 2.198h13.578a2.2 2.2 0 0 0 2.198-2.198V4.23a2.197 2.197 0 0 0-2.194-2.202zm1.194 11.48c0 .659-.536 1.194-1.194 1.194H2.198a1.195 1.195 0 0 1-1.194-1.194V4.23c0-.659.536-1.194 1.194-1.194h13.578c.658 0 1.194.535 1.194 1.194v9.278h.004z"/>
        <path d="M11.336 8.752L15.73 4.81a.505.505 0 0 0 .038-.71.505.505 0 0 0-.71-.038L8.995 9.503 7.814 8.447a.744.744 0 0 0-.09-.082L2.912 4.058a.501.501 0 0 0-.71.041.501.501 0 0 0 .04.71L6.69 8.786l-4.429 4.147a.504.504 0 0 0 .688.736l4.496-4.206 1.22 1.09a.502.502 0 0 0 .67-.004l1.253-1.123 4.47 4.247a.502.502 0 0 0 .692-.729l-4.414-4.191z"/>
    </g>
</svg>
