<svg xmlns="http://www.w3.org/2000/svg" width="18" height="18" viewBox="0 0 18 18">
    <path fill="#343434" fill-rule="evenodd" d="M11.679 2.039l5.57-2.005a.55.55 0 0 1 .53.084c.14.11.221.279.221.457v14.1c0 .23-.134.44-.348.531l-5.683 2.38a2.131 2.131 0 0 1-.067.033l.012-.004a.552.552 0 0 1-.31.031l-5.297-1.009-5.62 1.349a.553.553 0 0 1-.488-.122.58.58 0 0 1-.199-.439V2.638c0-.262.174-.497.433-.559L6.166.703a.44.44 0 0 1 .168-.007c.022-.002.03 0 .095.01l5.25 1.333zM1.123 3.094V16.7l4.609-1.106V1.988L1.123 3.094zm5.732 12.478l4.29.818V3.088l-4.29-1.09v13.574zm10.022-1.283V1.387l-4.609 1.658v13.18l4.609-1.936z"/>
</svg>
