<svg xmlns="http://www.w3.org/2000/svg" width="18" height="15" viewBox="0 0 18 15">
    <path fill="#343434" fill-rule="evenodd" d="M1.044 2.106h15.912c.577 0 1.044-.471 1.044-1.053C18 .473 17.533 0 16.956 0H1.044C.467 0 0 .472 0 1.053c0 .582.467 1.053 1.044 1.053zm15.912 4.341H1.044C.467 6.447 0 6.92 0 7.5c0 .583.467 1.053 1.044 1.053h15.912c.577 0 1.044-.47 1.044-1.053 0-.58-.467-1.053-1.044-1.053zm0 6.447H1.044c-.577 0-1.044.473-1.044 1.053C0 14.53.467 15 1.044 15h15.912c.577 0 1.044-.471 1.044-1.053 0-.58-.467-1.053-1.044-1.053z"/>
</svg>
