<svg xmlns="http://www.w3.org/2000/svg" width="14" height="14" viewBox="0 0 14 14">
    <path fill="#343434" fill-rule="evenodd" d="M13.054 5.513c-.653.653-1.375.924-2.14 1.211-.233.088-.468.176-.707.277.819 1.053 1.437 2.116 1.757 3.022.39 1.106.335 1.95-.157 2.442-.274.274-.659.414-1.143.414-.82 0-1.886-.403-3.03-1.11-.193.388-.446.74-.757 1.051A4.002 4.002 0 0 1 4.03 14a4.002 4.002 0 0 1-2.85-1.18A4.002 4.002 0 0 1 0 9.971c0-1.076.419-2.087 1.18-2.848.31-.31.663-.565 1.051-.758-.233-.378-.434-.75-.6-1.11C.989 3.86.955 2.771 1.535 2.192c.274-.274.659-.413 1.143-.413 1.096 0 2.693.747 4.321 2.013.101-.239.19-.474.277-.707.287-.765.558-1.487 1.211-2.14C9.097.336 9.908 0 10.771 0c.862 0 1.673.336 2.283.946.61.61.946 1.42.946 2.284 0 .862-.336 1.673-.946 2.283zm-6.59 6.895c.282-.282.509-.603.677-.958-.16-.11-.322-.225-.485-.345a2.853 2.853 0 0 1-2.628 1.727 2.853 2.853 0 0 1-2.023-.837 2.865 2.865 0 0 1 .89-4.652 14.91 14.91 0 0 1-.344-.485 3.427 3.427 0 0 0-.959.677A3.423 3.423 0 0 0 .583 9.971c0 .92.359 1.786 1.01 2.437.65.65 1.515 1.009 2.436 1.009.92 0 1.785-.359 2.436-1.01zM3.143 7.872a2.281 2.281 0 0 0-.724 3.711 2.272 2.272 0 0 0 1.61.666 2.271 2.271 0 0 0 2.145-1.516A18.665 18.665 0 0 1 4.64 9.359a18.584 18.584 0 0 1-1.37-1.528.935.935 0 0 0-.13.04zm8.272 2.345c-.31-.879-.928-1.925-1.75-2.963a6.368 6.368 0 0 0-1.639 1.208l-.003.003a.3.3 0 0 1-.019.014l-.005.003a.255.255 0 0 1-.019.011l-.004.003a.284.284 0 0 1-.023.01l-.002.001a.294.294 0 0 1-.053.016h-.002a.292.292 0 0 1-.053.006H7.84c-.013 0-.025-.001-.037-.003h-.001a.293.293 0 0 1-.071-.019l-.003-.001a.293.293 0 0 1-.034-.016 6.182 6.182 0 0 1-1.53-1.278 5.815 5.815 0 0 1-.654-.906.29.29 0 0 1 .047-.352l.093-.095.045-.048.044-.046c.41-.44.736-.903 1.008-1.43-1.545-1.22-3.09-1.972-4.069-1.972-.324 0-.57.081-.73.242-.39.389-.312 1.266.213 2.405a10.319 10.319 0 0 0 .754 1.343 14.471 14.471 0 0 0 .716.994c.423.539.901 1.078 1.423 1.6a16.842 16.842 0 0 0 2.63 2.163c1.144.747 2.209 1.185 2.98 1.185.324 0 .57-.081.73-.242.318-.318.325-.97.02-1.836zM8.552 7.25c.772-.552 1.496-.824 2.157-1.072.735-.276 1.37-.514 1.933-1.078.5-.5.775-1.164.775-1.87 0-.707-.276-1.372-.775-1.872-.5-.5-1.165-.775-1.871-.775-.707 0-1.372.276-1.871.775-.564.564-.802 1.198-1.078 1.933-.248.66-.52 1.384-1.07 2.155l-.015.021a6.906 6.906 0 0 1-.171.228l-.035.044-.049.06-.028.035a6.584 6.584 0 0 1-.057.068l-.021.025-.066.076-.012.014a7.37 7.37 0 0 1-.168.184c.033.053.069.105.105.157.177.255.382.5.606.729.294.299.62.567.958.783l.1-.093.05-.044.05-.045.058-.05.044-.037.055-.046.048-.04.05-.04.055-.044.044-.034.066-.05.032-.025.088-.064.013-.008zm3.246-5.81a.292.292 0 1 1-.29.506 1.481 1.481 0 0 0-1.854.312.29.29 0 0 1-.412.02.292.292 0 0 1-.02-.413l.09-.094a2.065 2.065 0 0 1 2.486-.33zM9.13 2.486c.139.076.192.249.12.389v.003a.292.292 0 1 1-.516-.275.292.292 0 0 1 .396-.117zm-.469 7.86a7.261 7.261 0 0 0 1.361.646.292.292 0 1 1-.19.55 7.916 7.916 0 0 1-.914-.387 10.01 10.01 0 0 1-.556-.31.292.292 0 0 1 .299-.5zm2.076 1.37a.292.292 0 0 1-.032-.582.292.292 0 1 1 .111.572.718.718 0 0 1-.079.01z"/>
</svg>
