<svg xmlns="http://www.w3.org/2000/svg" width="18" height="18" viewBox="0 0 18 18">
    <path fill="#343434" fill-rule="evenodd" d="M13.19 14.689c0 .51-.39.899-.9.899v1.499c0 .51-.39.899-.899.899h-.6c-.51 0-.899-.39-.899-.9v-1.498H3.297v1.499c0 .51-.39.899-.899.899h-.6c-.509 0-.899-.39-.899-.9v-1.498c-.51 0-.899-.39-.899-.9v-3.297c0-.51.39-.9.9-.9h.15c.12 0 .239-.09.299-.209l1.05-3.657v-.03c.239-.54.779-.9 1.378-.9h5.636c.6 0 1.139.36 1.379.9v.03l1.049 3.657c.03.12.15.21.3.21h.15c.509 0 .899.39.899.9v3.297zM2.698 17.087v-1.5h-1.2v1.5c0 .18.12.3.3.3h.6c.18 0 .3-.12.3-.3zm8.993 0v-1.5h-1.2v1.5c0 .18.12.3.3.3h.6c.18 0 .3-.12.3-.3zm.9-2.398V11.39c0-.18-.12-.3-.3-.3h-.15c-.39 0-.75-.27-.87-.66l-1.049-3.626a.883.883 0 0 0-.81-.51H3.778c-.36 0-.66.21-.81.51L1.92 10.432c-.12.39-.48.66-.87.66H.9c-.18 0-.3.12-.3.3v3.297c0 .18.12.3.3.3h11.392c.18 0 .3-.12.3-.3zM2.697 11.69c.66 0 1.199.54 1.199 1.199 0 .66-.54 1.199-1.2 1.199-.659 0-1.198-.54-1.198-1.2 0-.659.54-1.198 1.199-1.198zm0 1.798c.33 0 .6-.27.6-.6 0-.329-.27-.599-.6-.599-.33 0-.6.27-.6.6 0 .33.27.6.6.6zm7.794-1.798c.66 0 1.199.54 1.199 1.199 0 .66-.54 1.199-1.2 1.199-.659 0-1.198-.54-1.198-1.2 0-.659.54-1.198 1.199-1.198zm0 1.798c.33 0 .6-.27.6-.6 0-.329-.27-.599-.6-.599-.33 0-.6.27-.6.6 0 .33.27.6.6.6zm-3.298-.3c.18 0 .3.12.3.3s-.12.3-.3.3H5.995c-.18 0-.3-.12-.3-.3s.12-.3.3-.3h1.2zm.6-1.198c.18 0 .3.12.3.3s-.12.3-.3.3H5.396c-.18 0-.3-.12-.3-.3s.12-.3.3-.3h2.398zm-4.077-1.5c-.18 0-.36-.09-.48-.239a.581.581 0 0 1-.09-.54l.72-2.398c.09-.27.3-.42.57-.42h4.346c.27 0 .51.18.57.42l.72 2.398c.06.18.03.39-.09.54-.12.15-.3.24-.48.24H3.717zm.72-2.997l-.72 2.398h5.786l-.72-2.398H4.437zM17.687 0c.179 0 .299.12.299.3v5.096c0 .18-.12.3-.3.3h-2.398v9.292h.6c.18 0 .3.12.3.3v.9h.599c.18 0 .3.12.3.3v1.198c0 .18-.12.3-.3.3H13.19c-.18 0-.3-.12-.3-.3v-1.199c0-.18.12-.3.3-.3h.6v-.899c0-.18.12-.3.299-.3h.6V5.696H12.59c-.18 0-.3-.12-.3-.3V.3c0-.18.12-.3.3-.3h5.096zm-1.2 17.386v-.6H13.49v.6h2.998zm-.9-1.199v-.6H14.39v.6h1.199zm1.8-11.091V.6H12.89v4.496h4.496zm-2.698-.6c-.18 0-.3-.12-.3-.3V1.5c0-.18.12-.3.3-.3h.599c.66 0 1.2.54 1.2 1.2 0 .659-.54 1.198-1.2 1.198h-.3v.6c0 .18-.12.3-.3.3zm1.199-2.098c0-.33-.27-.6-.6-.6h-.3v1.2h.3c.33 0 .6-.27.6-.6z"/>
</svg>
