<svg xmlns="http://www.w3.org/2000/svg" width="18" height="18" viewBox="0 0 18 18">
    <path fill="#343434" fill-rule="evenodd" d="M3.665 11.955a19.08 19.08 0 0 0 6.346 4.972c.928.44 2.17.961 3.552 1.05.086.004.168.008.253.008.928 0 1.674-.32 2.281-.98.004-.004.011-.011.015-.019.216-.26.462-.495.72-.745.174-.168.353-.343.525-.522.794-.827.794-1.878-.008-2.68L15.11 10.8c-.38-.395-.834-.604-1.311-.604s-.936.209-1.327.6l-1.334 1.334a7.09 7.09 0 0 0-.37-.193 4.608 4.608 0 0 1-.409-.224c-1.215-.771-2.318-1.778-3.373-3.07-.533-.675-.89-1.242-1.14-1.82.35-.316.678-.648.995-.972.112-.116.227-.231.343-.347.402-.402.618-.868.618-1.341 0-.474-.212-.94-.618-1.342l-1.11-1.11c-.131-.13-.254-.258-.38-.388a20.441 20.441 0 0 0-.757-.75C4.552.199 4.1 0 3.624 0c-.473 0-.928.198-1.327.578L.903 1.97A2.864 2.864 0 0 0 .05 3.805c-.07.89.093 1.837.518 2.981.652 1.77 1.636 3.414 3.097 5.17zM.959 3.883c.045-.495.235-.91.593-1.267L2.938 1.23c.216-.209.455-.317.686-.317.227 0 .458.108.67.324.25.231.485.474.739.73.126.131.257.262.387.396l1.11 1.11c.232.231.351.466.351.697 0 .231-.12.466-.35.697-.116.116-.231.235-.347.35-.347.35-.67.682-1.029 1l-.018.018c-.31.31-.261.604-.186.827l.01.03c.288.69.686 1.345 1.309 2.128 1.118 1.379 2.295 2.448 3.592 3.272.16.104.332.186.492.268.15.075.287.146.41.224l.041.022a.779.779 0 0 0 .362.093c.298 0 .492-.19.555-.253l1.394-1.394c.216-.216.45-.332.682-.332.283 0 .514.176.66.332l2.247 2.244c.447.447.443.931-.012 1.405-.156.167-.32.328-.495.495-.261.254-.533.515-.78.809-.428.462-.938.678-1.598.678-.063 0-.13-.003-.194-.007-1.222-.078-2.359-.556-3.212-.962a18.126 18.126 0 0 1-6.041-4.733c-1.39-1.673-2.326-3.23-2.944-4.9-.384-1.025-.53-1.849-.47-2.598z"/>
</svg>
