<svg xmlns="http://www.w3.org/2000/svg" width="14" height="14" viewBox="0 0 14 14">
    <path fill="#343434" fill-rule="evenodd" d="M7.904 8.13a.22.22 0 0 1 .226-.226h4.843c.13 0 .259-.065.323-.13a.493.493 0 0 0 .13-.322v-.904a.493.493 0 0 0-.13-.323.415.415 0 0 0-.323-.13H8.13a.22.22 0 0 1-.226-.225V1.027a.493.493 0 0 0-.13-.323.493.493 0 0 0-.322-.13h-.904a.493.493 0 0 0-.323.13.493.493 0 0 0-.13.323V5.87a.22.22 0 0 1-.225.226H1.027a.493.493 0 0 0-.323.13.493.493 0 0 0-.13.322v.904c0 .13.065.258.13.323.064.064.194.13.323.13H5.87a.22.22 0 0 1 .226.225v4.843c0 .13.065.259.13.323.064.065.193.13.322.13h.904c.13 0 .258-.065.323-.13a.493.493 0 0 0 .13-.323V8.13z"/>
</svg>
