<svg xmlns="http://www.w3.org/2000/svg" width="17" height="18" viewBox="0 0 17 18">
    <g fill="#343434" fill-rule="evenodd">
        <path d="M14.13 3.722h-.363V.43a.43.43 0 0 0-.43-.43h-9.95a.43.43 0 0 0-.43.43v3.292h-.365A2.58 2.58 0 0 0 .015 6.3v5.32a2.58 2.58 0 0 0 2.577 2.578h.365v3.35c0 .237.192.43.43.43h9.95a.43.43 0 0 0 .43-.43v-3.35h.364a2.58 2.58 0 0 0 2.577-2.577V6.3a2.58 2.58 0 0 0-2.577-2.578zM3.817.86h9.092v2.863H3.816V.86zm9.092 16.26H3.816V11.82h9.092v5.298zm2.94-5.498a1.72 1.72 0 0 1-1.717 1.718h-.364V11.82h.929a.43.43 0 1 0 0-.859H2.155a.43.43 0 0 0 0 .86h.802v1.518h-.365A1.72 1.72 0 0 1 .874 11.62V6.3c0-.948.77-1.719 1.718-1.719H14.131c.947 0 1.718.771 1.718 1.719v5.32z"/>
        <path d="M13.337 6.294a.586.586 0 1 0 0 1.173.586.586 0 0 0 0-1.173zM4.818 13.306h7.087a.43.43 0 1 0 0-.86H4.818a.43.43 0 0 0 0 .86zM4.818 14.899h7.087a.43.43 0 0 0 0-.86H4.818a.43.43 0 1 0 0 .86z"/>
    </g>
</svg>
