<svg xmlns="http://www.w3.org/2000/svg" width="16" height="17" viewBox="0 0 16 17">
    <path fill="#343434" fill-rule="evenodd" d="M5.252 3.689c0 1.448 1.143 2.649 2.562 2.73h.346a2.746 2.746 0 0 0 2.588-2.73A2.744 2.744 0 0 0 8 .953a2.744 2.744 0 0 0-2.748 2.736zm4.894 2.998C13.52 7.561 16 10.444 16 13.854v.413C16 15.782 14.683 17 13.083 17H2.917C1.317 17 0 15.782 0 14.267v-.413c0-3.401 2.467-6.277 5.858-7.159A3.686 3.686 0 0 1 4.3 3.69 3.697 3.697 0 0 1 8 0c2.042 0 3.7 1.653 3.7 3.689 0 1.23-.61 2.327-1.554 2.998zm4.901 7.167c0-3.494-3.033-6.38-6.784-6.484-.045.004-.09.006-.142.007H7.88a.418.418 0 0 1-.09-.005C3.987 7.474.954 10.36.954 13.854v.413c0 .972.874 1.78 1.964 1.78h10.166c1.09 0 1.964-.808 1.964-1.78v-.413z"/>
</svg>
