<svg xmlns="http://www.w3.org/2000/svg" width="18" height="18" viewBox="0 0 18 18">
    <g fill="none" fill-rule="evenodd">
        <circle cx="9" cy="4.5" r="3.5" fill="#FF5A5F"/>
        <path fill="#D3E0F2" d="M2 16v-3.087l2.047-2.74L5.347 9l2.7-1h2l2.7 1 2.3 1.957 1.047 1.956.953 1.957-.953 2.177L14.13 18H4.047z"/>
        <path fill="#343434" d="M6.252 4.689c0 1.448 1.143 2.649 2.562 2.73h.346a2.746 2.746 0 0 0 2.588-2.73A2.744 2.744 0 0 0 9 1.953a2.744 2.744 0 0 0-2.748 2.736zm4.894 2.998C14.52 8.561 17 11.444 17 14.854v.413C17 16.782 15.683 18 14.083 18H3.917C2.317 18 1 16.782 1 15.267v-.413c0-3.401 2.467-6.277 5.858-7.159A3.686 3.686 0 0 1 5.3 4.69 3.697 3.697 0 0 1 9 1c2.042 0 3.7 1.653 3.7 3.689 0 1.23-.61 2.327-1.554 2.998zm4.901 7.167c0-3.494-3.033-6.38-6.784-6.484-.045.004-.09.006-.142.007H8.88a.418.418 0 0 1-.09-.005c-3.803.102-6.836 2.988-6.836 6.482v.413c0 .972.874 1.78 1.964 1.78h10.166c1.09 0 1.964-.808 1.964-1.78v-.413z"/>
    </g>
</svg>
