<svg xmlns="http://www.w3.org/2000/svg" width="18" height="18" viewBox="0 0 18 18">
    <g fill="none" fill-rule="evenodd">
        <g fill="#343434">
            <path d="M.555 4c.307 0 .556-.225.556-.502V1.452c0-.247.222-.448.495-.448h1.839C3.75 1.004 4 .779 4 .502S3.751 0 3.445 0H1.606C.721 0 0 .651 0 1.452v2.046C0 3.775.249 4 .555 4zM3.445 16.996H1.606c-.273 0-.495-.2-.495-.448v-2.046c0-.277-.249-.502-.556-.502-.306 0-.555.225-.555.502v2.046C0 17.348.72 18 1.606 18h1.839c.306 0 .555-.225.555-.502s-.249-.502-.555-.502zM16.394 0h-1.839C14.25 0 14 .225 14 .502s.249.502.555.502h1.839c.273 0 .495.2.495.448v2.046c0 .277.25.502.556.502.306 0 .555-.225.555-.502V1.452C18 .652 17.28 0 16.394 0zM17.445 14c-.307 0-.556.225-.556.502v2.046c0 .247-.222.448-.495.448h-1.839c-.306 0-.555.225-.555.502s.249.502.555.502h1.839c.885 0 1.606-.651 1.606-1.452v-2.046c0-.277-.249-.502-.555-.502z"/>
        </g>
        <rect width="8" height="8" x="5" y="5" fill="#D3E0F2" rx="2"/>
        <rect width="4" height="4" x="7" y="7" fill="#FF5A5F" rx="2"/>
    </g>
</svg>
