<svg xmlns="http://www.w3.org/2000/svg" width="17" height="18" viewBox="0 0 17 18">
    <g fill="#343434" fill-rule="evenodd">
        <path d="M14.784 0a.643.643 0 0 0-.643.643V2.99A8.339 8.339 0 0 0 .003 8.997a.643.643 0 1 0 1.285 0 7.07 7.07 0 0 1 12.284-4.771l-2.847.949a.643.643 0 0 0 .406 1.22l3.856-1.284a.643.643 0 0 0 .44-.612V.643A.643.643 0 0 0 14.784 0zM16.07 8.355a.643.643 0 0 0-.643.643 7.07 7.07 0 0 1-12.284 4.771l2.847-.949a.643.643 0 0 0-.407-1.22l-3.856 1.284a.643.643 0 0 0-.44.612v3.856a.643.643 0 1 0 1.286 0v-2.347a8.339 8.339 0 0 0 14.14-6.007.643.643 0 0 0-.644-.643z"/>
    </g>
</svg>
