<svg xmlns="http://www.w3.org/2000/svg" width="17" height="18" viewBox="0 0 17 18">
    <path fill="#343434" fill-rule="evenodd" d="M13.765 11.554a3.218 3.218 0 0 0-2.547 1.255l-4.94-2.76a3.226 3.226 0 0 0-.004-2.125l4.937-2.756a3.21 3.21 0 0 0 2.55 1.263 3.22 3.22 0 0 0 3.216-3.216A3.218 3.218 0 0 0 13.76 0a3.218 3.218 0 0 0-3.215 3.215c0 .374.064.732.183 1.065L5.796 7.036a3.2 3.2 0 0 0-2.55-1.263A3.22 3.22 0 0 0 .03 8.99a3.216 3.216 0 1 0 5.773 1.95l4.937 2.759c-.12.336-.186.698-.186 1.072a3.22 3.22 0 0 0 3.215 3.215 3.218 3.218 0 0 0 3.215-3.215 3.221 3.221 0 0 0-3.219-3.216zm0-10.542c1.218 0 2.207.99 2.207 2.207 0 1.218-.99 2.207-2.207 2.207a2.209 2.209 0 0 1-2.207-2.207c0-1.217.993-2.207 2.207-2.207zM3.25 11.196a2.209 2.209 0 0 1-2.207-2.207c0-1.218.99-2.207 2.207-2.207 1.217 0 2.207.99 2.207 2.207a2.211 2.211 0 0 1-2.207 2.207zm10.516 5.777a2.209 2.209 0 0 1-2.207-2.207c0-1.217.99-2.207 2.207-2.207 1.218 0 2.207.99 2.207 2.207 0 1.217-.99 2.207-2.207 2.207z"/>
</svg>
