<svg xmlns="http://www.w3.org/2000/svg" width="11" height="18" viewBox="0 0 11 18">
    <path fill="#343434" fill-rule="evenodd" d="M10.032 0a.392.392 0 1 1 0 .784H7.16a2.483 2.483 0 0 0-2.479 2.421 2.831 2.831 0 0 1 2.27 1.827h.095c.217 0 .392.175.392.392v1.2a.392.392 0 0 1-.392.391H1.53a.392.392 0 0 1-.392-.392v-1.2c0-.216.176-.391.392-.391h.096a2.831 2.831 0 0 1 2.272-1.827A3.268 3.268 0 0 1 7.16 0h2.872zM6.654 6.231v-.415H1.921v.415h4.733zm-.562-1.2a2.051 2.051 0 0 0-1.804-1.069c-.768 0-1.452.421-1.805 1.07h3.61zM1.997 7.836c.214.035.36.236.325.45l-.193 1.2a.392.392 0 0 1-.775-.125l.194-1.2a.392.392 0 0 1 .45-.325zm-.443 2.75c.214.034.36.235.325.449l-.193 1.2a.392.392 0 0 1-.774-.125l.193-1.2a.392.392 0 0 1 .45-.325zm-.442 2.748c.214.035.36.236.325.45l-.194 1.2a.392.392 0 0 1-.774-.125l.193-1.2a.392.392 0 0 1 .45-.325zm-.443 2.75c.214.034.36.235.325.449l-.181 1.125a.392.392 0 0 1-.775-.124l.182-1.126a.392.392 0 0 1 .45-.325zm2.557-2.691a.392.392 0 0 1 .37.412l-.065 1.214a.392.392 0 0 1-.783-.042l.065-1.214a.393.393 0 0 1 .413-.37zm.15-2.78a.392.392 0 0 1 .37.412l-.065 1.214a.392.392 0 0 1-.784-.042l.066-1.214a.393.393 0 0 1 .412-.37zm-.3 5.56a.392.392 0 0 1 .371.412l-.055 1.032a.392.392 0 0 1-.783-.042l.055-1.032a.392.392 0 0 1 .413-.37zm.448-8.341a.392.392 0 0 1 .37.413L3.83 9.458a.392.392 0 0 1-.783-.043l.065-1.213a.392.392 0 0 1 .412-.371zm1.911 7.558a.392.392 0 0 1-.391-.37l-.065-1.215a.392.392 0 0 1 .783-.042l.065 1.214a.392.392 0 0 1-.392.413zm.476 1.153l.056 1.032a.392.392 0 0 1-.784.042l-.055-1.032a.392.392 0 0 1 .783-.042zM5.137 9.83a.392.392 0 0 1-.391-.372L4.68 8.244a.392.392 0 0 1 .784-.043l.065 1.214a.392.392 0 0 1-.392.414zm.149 2.78a.392.392 0 0 1-.391-.371l-.065-1.214a.392.392 0 0 1 .783-.042l.065 1.214a.392.392 0 0 1-.392.413zm2.495 2.699a.392.392 0 0 1-.45-.325l-.192-1.2a.392.392 0 0 1 .774-.125l.193 1.2a.392.392 0 0 1-.325.45zm.575 1.099l.18 1.126a.392.392 0 1 1-.773.124l-.182-1.125a.392.392 0 1 1 .775-.125zM6.896 9.81a.392.392 0 0 1-.45-.325l-.193-1.2a.392.392 0 0 1 .775-.125l.193 1.2a.392.392 0 0 1-.325.45zm.443 2.749a.392.392 0 0 1-.45-.325l-.193-1.2a.392.392 0 0 1 .774-.125l.194 1.2a.392.392 0 0 1-.325.45z"/>
</svg>
