<svg xmlns="http://www.w3.org/2000/svg" width="17" height="18" viewBox="0 0 17 18">
    <path fill="#343434" fill-rule="evenodd" d="M3 4.834c0 .296-.13.574-.35.762a1.006 1.006 0 0 1-1 1.106c-.456 0-.85-.311-.967-.738a1.01 1.01 0 0 1-.665-.945 1.005 1.005 0 0 1 1.328-.95A1.005 1.005 0 0 1 3 4.834zm-.77.417a.479.479 0 0 0-.234-.894c-.15 0-.289.069-.38.189l-.144.19-.203-.125a.476.476 0 0 0-.725.408.48.48 0 0 0 .407.472l.209.031.015.211a.478.478 0 1 0 .932-.176l-.062-.202.185-.104zm3.577-3.783a.925.925 0 0 1-.312.691.925.925 0 0 1-1.228.95.924.924 0 0 1-1.173-1.382.925.925 0 0 1 1.202-.973.925.925 0 0 1 1.51.714zm-.73.346a.398.398 0 0 0-.194-.744.395.395 0 0 0-.316.158l-.144.189-.203-.124a.396.396 0 0 0-.59.447l.045.158-.123.11a.398.398 0 0 0 .52.6l.142-.12.16.094a.397.397 0 0 0 .581-.46l-.062-.204.185-.104zm11.397 1.601a.925.925 0 0 1-.312.692.925.925 0 0 1-1.228.95.924.924 0 0 1-1.173-1.383.925.925 0 0 1 1.202-.973.925.925 0 0 1 1.51.714zm-.73.347a.398.398 0 1 0-.511-.587l-.144.19-.203-.124a.398.398 0 0 0-.59.447l.045.158-.123.109a.398.398 0 0 0 .52.6l.142-.12.161.094a.397.397 0 0 0 .58-.46l-.062-.203.185-.104zm-2.071-2.62a1.005 1.005 0 0 1-.267 1.395 1.006 1.006 0 0 1-.827.138 1.003 1.003 0 0 1-1.41-1.42 1.01 1.01 0 0 1 .408-1.081.997.997 0 0 1 .752-.156.997.997 0 0 1 .78.72.995.995 0 0 1 .564.404zm-.362.654a.474.474 0 0 0-.444-.566l-.237-.013-.012-.237a.476.476 0 0 0-.745-.37.48.48 0 0 0-.162.601l.092.19-.166.131a.479.479 0 0 0 .207.843.474.474 0 0 0 .462-.17l.133-.166.19.094c.155.077.34.065.482-.032a.474.474 0 0 0 .2-.305zm.426 5.598a.925.925 0 0 1-.312.692.938.938 0 0 1-.03.33c.147.268.215.577.19.886l-.003.022-1.43 8.641H3.918L2.486 9.302a1.588 1.588 0 0 1 .35-1.127 1.004 1.004 0 0 1 .688-1.672.924.924 0 0 1 .1-1.004.925.925 0 0 1 1.206-.972c.15-.119.343-.191.56-.21a1.05 1.05 0 0 1 .385.038c.05-.4.355-.723.748-.795-.079-.389.08-.803.419-1.033.396-.27.918-.216 1.253.1a.999.999 0 0 1 .87-.107 1.005 1.005 0 0 1 1.364 1.47c.09.044.172.103.244.174a1.208 1.208 0 0 1 1.076.312.925.925 0 0 1 1.246 1.197.925.925 0 0 1 .647 1.314.927.927 0 0 1 .095.407zM4.364 17.439h1.421l-.651-8.205-.001-.064-.003-.032v-.005a1.053 1.053 0 0 0-1.056-1.016h-.01c-.3 0-.575.121-.778.34-.2.218-.298.498-.277.792l1.355 8.19zm1.95 0h1.458V9.174a1.058 1.058 0 0 0-2.113-.022l.654 8.287zm1.984 0h1.459l.654-8.287a1.046 1.046 0 0 0-.295-.71 1.058 1.058 0 0 0-1.818.733v8.264zm4.763-8.19a1.045 1.045 0 0 0-.277-.792 1.045 1.045 0 0 0-.777-.34h-.01c-.571 0-1.035.446-1.057 1.016v.01l-.002.027c0 .021 0 .043-.002.064v.011l-.651 8.194h1.422l1.354-8.19zm-.054-1.508a.399.399 0 0 0 .12-.592l-.129-.162.128-.163a.398.398 0 0 0-.505-.593l-.344.191-.045-.39a.36.36 0 0 0-.014-.067l-.064-.203.186-.105a.398.398 0 1 0-.463-.64l-.226.208-.17-.255a.683.683 0 0 0-.81-.26l-.2.076-.114-.18a.397.397 0 0 0-.282-.18l-.228-.03v-.231-.022a.487.487 0 0 0-.02-.136l-.063-.203.185-.103a.478.478 0 1 0-.614-.705l-.144.19-.202-.124a.477.477 0 0 0-.623.112l-.252.319-.188-.36a.478.478 0 0 0-.85.432l.091.19-.165.13a.474.474 0 0 0-.081.084l-.085.11-.148-.009a.398.398 0 0 0-.309.643l.125.16-.129.17-.141.19-.205-.124c-.03-.018-.056-.04-.088-.066-.102-.083-.272-.221-.506-.202-.106.01-.252.044-.339.159l-.144.19-.202-.125a.398.398 0 0 0-.59.446l.044.159-.123.11a.398.398 0 0 0 .143.675l.517.165-.45.304a.482.482 0 0 0-.114.107l-.144.19-.202-.124a.477.477 0 0 0-.6.73c.248-.152.536-.236.832-.236h.011c.553 0 1.038.28 1.321.708a1.57 1.57 0 0 1 1.32-.708c.55 0 1.036.282 1.32.71a1.583 1.583 0 0 1 2.64-.002 1.578 1.578 0 0 1 1.321-.708h.011c.298 0 .59.085.838.24l.162-.09zM8.93 5c.426 0 .772.345.772.771h-.527a.246.246 0 0 0-.395-.194l-.248.191-.145-.278a.455.455 0 0 0-.857.262l.043.39-.377-.107a.456.456 0 0 0-.582.438h-.526c0-.526.415-.957.934-.982a.984.984 0 0 1 1.68-.458A.769.769 0 0 1 8.93 5zm1.754.964c.503 0 .912.41.913.912h-.527a.386.386 0 0 0-.734-.164l-.138.292-.258-.194a.369.369 0 0 0-.589.294h-.526a.896.896 0 0 1 1.189-.845.916.916 0 0 1 .67-.295z"/>
</svg>
