<svg xmlns="http://www.w3.org/2000/svg" width="18" height="18" viewBox="0 0 18 18">
    <g fill="#343434" fill-rule="evenodd">
        <path d="M4.371 16.93V1.544l2.704 2.703a.447.447 0 0 0 .32.133.448.448 0 0 0 .32-.768L4.242.14a.462.462 0 0 0-.636 0L.132 3.613a.448.448 0 0 0 0 .635c.177.177.46.177.636 0L3.47 1.545v15.384c0 .25.202.452.452.452a.456.456 0 0 0 .448-.452zM13.731 17.245a.447.447 0 0 0 .32.132.447.447 0 0 0 .32-.132l3.471-3.471a.448.448 0 0 0 0-.636.448.448 0 0 0-.635 0l-2.704 2.704V.457a.452.452 0 1 0-.904 0v15.385l-2.7-2.704a.448.448 0 0 0-.635 0 .448.448 0 0 0 0 .636l3.467 3.471z"/>
    </g>
</svg>
