<svg xmlns="http://www.w3.org/2000/svg" width="18" height="18" viewBox="0 0 18 18">
    <path fill="#343434" fill-rule="evenodd" d="M9.857.563l2.027 4.287a.972.972 0 0 0 .73.553l4.533.687c.795.12 1.112 1.14.537 1.723l-3.28 3.337a1.038 1.038 0 0 0-.28.894l.775 4.713c.136.825-.694 1.454-1.404 1.065l-4.056-2.225a.934.934 0 0 0-.9 0l-4.056 2.225c-.71.39-1.54-.24-1.405-1.065l.775-4.713a1.038 1.038 0 0 0-.279-.894L.294 7.813C-.282 7.23.035 6.21.83 6.09l4.534-.687a.972.972 0 0 0 .73-.553L8.12.563a.95.95 0 0 1 1.736 0z"/>
</svg>
