<svg xmlns="http://www.w3.org/2000/svg" width="13" height="13" viewBox="0 0 13 13">
    <path fill="#FF5A5F" fill-rule="evenodd" d="M7.119.407l1.464 3.096a.702.702 0 0 0 .527.399l3.274.497c.574.087.803.822.388 1.244l-2.37 2.41a.75.75 0 0 0-.2.646l.559 3.403c.098.596-.502 1.05-1.015.77l-2.929-1.607a.674.674 0 0 0-.65 0l-2.93 1.606c-.512.282-1.112-.173-1.014-.77l.56-3.402a.75.75 0 0 0-.202-.646l-2.37-2.41C-.202 5.22.027 4.485.6 4.399l3.275-.497a.702.702 0 0 0 .527-.399L5.865.407a.686.686 0 0 1 1.254 0z"/>
</svg>
