<svg xmlns="http://www.w3.org/2000/svg" xmlns:xlink="http://www.w3.org/1999/xlink" width="44" height="27" viewBox="0 0 44 27">
    <defs>
        <path id="b" d="M11.195 2.177L4.65 8.968a.371.371 0 0 1-.286.123c-.123 0-.246-.041-.287-.123L.887 5.532.804 5.45a.442.442 0 0 1-.123-.286c0-.082.04-.205.123-.287l.572-.572a.395.395 0 0 1 .573 0l.04.04L4.24 6.76a.198.198 0 0 0 .287 0l5.482-5.686h.041a.395.395 0 0 1 .573 0l.572.572c.164.123.164.369 0 .532z"/>
        <filter id="a" width="397.8%" height="491.6%" x="-148.5%" y="-172%" filterUnits="objectBoundingBox">
            <feOffset dy="2" in="SourceAlpha" result="shadowOffsetOuter1"/>
            <feGaussianBlur in="shadowOffsetOuter1" result="shadowBlurOuter1" stdDeviation="5"/>
            <feColorMatrix in="shadowBlurOuter1" values="0 0 0 0 0 0 0 0 0 0 0 0 0 0 0 0 0 0 0.143110795 0"/>
        </filter>
    </defs>
    <g fill="none" fill-rule="evenodd">
        <g transform="translate(3)">
            <path fill="#FF5A5F" d="M28.983 24H12.017C5.407 24 0 18.6 0 12S5.408 0 12.017 0h16.966C35.593 0 41 5.4 41 12s-5.408 12-12.017 12z"/>
            <ellipse cx="29.017" cy="12" fill="#E0E1E2" fill-rule="nonzero" rx="8.483" ry="8.471"/>
        </g>
        <g transform="translate(9 7)">
            <use fill="#000" filter="url(#a)" xlink:href="#b"/>
            <use fill="#FFF" xlink:href="#b"/>
        </g>
    </g>
</svg>
