<svg xmlns="http://www.w3.org/2000/svg" width="19" height="19" viewBox="0 0 19 19">
    <path fill="#343434" fill-rule="evenodd" d="M17.945 8.867c-.046.27-.172.515-.366.709L8.64 18.515a1.312 1.312 0 0 1-1.853 0l-5.86-5.86a1.312 1.312 0 0 1 0-1.854l8.939-8.939c.193-.193.438-.32.708-.365l3.31-.56c.419-.07.847.066 1.146.365l3.11 3.11c.299.299.435.727.365 1.145l-.56 3.31zM7.891 17.766l8.94-8.94a.25.25 0 0 0 .069-.135l.56-3.311a.252.252 0 0 0-.07-.22l-3.11-3.108a.251.251 0 0 0-.218-.07l-3.311.56a.25.25 0 0 0-.136.07L1.676 11.55a.251.251 0 0 0 0 .354l5.86 5.86a.251.251 0 0 0 .355 0zm5.214-11.43a1.595 1.595 0 0 1 0-2.253 1.595 1.595 0 0 1 2.254 0 1.595 1.595 0 0 1 0 2.253 1.595 1.595 0 0 1-2.254 0zm1.505-1.504a.534.534 0 1 0-.755.757.534.534 0 0 0 .755-.757zM8.687 9.395c-.438 0-.835-.178-1.123-.466a1.585 1.585 0 0 1-.466-1.123c0-.877.713-1.59 1.59-1.59.876 0 1.59.713 1.59 1.59 0 .876-.714 1.59-1.59 1.59zm-.374-1.964a.53.53 0 1 0 0 0zm.374 4.682c.877 0 1.59.713 1.59 1.59a1.591 1.591 0 0 1-2.713 1.123 1.591 1.591 0 0 1 1.124-2.713zm0 2.12a.53.53 0 1 0-.001-1.062.53.53 0 0 0 .001 1.062zm4.34-4.196a.53.53 0 0 1-.436.61l-7.634 1.26a.53.53 0 1 1-.173-1.045L12.418 9.6a.53.53 0 0 1 .609.436z"/>
</svg>
