<svg xmlns="http://www.w3.org/2000/svg" width="18" height="18" viewBox="0 0 18 18">
    <g fill="#343434" fill-rule="evenodd">
        <path d="M8.923 0C4.003 0 0 4.003 0 8.923s4.003 8.923 8.923 8.923 8.923-4.003 8.923-8.923S13.843 0 8.923 0zm0 15.947a7.032 7.032 0 0 1-7.025-7.024 7.032 7.032 0 0 1 7.025-7.024 7.032 7.032 0 0 1 7.024 7.024 7.032 7.032 0 0 1-7.024 7.024z"/>
        <path d="M13.384 8.653H9.513V3.849a.721.721 0 0 0-.71-.732.721.721 0 0 0-.71.732v5.536c0 .404.318.732.71.732h4.581c.392 0 .71-.328.71-.732a.721.721 0 0 0-.71-.732z"/>
    </g>
</svg>
