<svg xmlns="http://www.w3.org/2000/svg" width="18" height="18" viewBox="0 0 18 18">
    <path fill="#343434" fill-rule="evenodd" d="M17.282 5.497A8.752 8.752 0 0 1 18 8.99c0 1.22-.24 2.39-.718 3.504-.95 2.212-2.562 3.831-4.793 4.783a8.85 8.85 0 0 1-3.504.718c-1.22 0-2.38-.24-3.493-.718-2.213-.95-3.833-2.567-4.783-4.783A8.807 8.807 0 0 1 0 8.99c0-1.22.232-2.383.709-3.494.95-2.216 2.57-3.824 4.783-4.773A8.755 8.755 0 0 1 8.985.005c1.22 0 2.389.243 3.504.718 2.23.952 3.844 2.561 4.793 4.774zm-1.437 7.47a7.766 7.766 0 0 0 1.062-3.977 7.692 7.692 0 0 0-1.062-3.956A7.92 7.92 0 0 0 12.95 2.15a7.751 7.751 0 0 0-3.966-1.063A7.692 7.692 0 0 0 5.03 2.15a7.9 7.9 0 0 0-2.883 2.884A7.737 7.737 0 0 0 1.093 8.99c0 1.073.202 2.108.62 3.08.418.977.979 1.826 1.682 2.53.704.703 1.545 1.26 2.52 1.683.974.423 1.998.63 3.07.63a7.752 7.752 0 0 0 3.966-1.063 7.896 7.896 0 0 0 2.894-2.884zM9.556 8.91l2.756 2.776a.53.53 0 0 1 0 .767.56.56 0 0 1-.758 0L8.611 9.512a.515.515 0 0 1-.147-.443c0-.03-.02-.069-.02-.079V3.813c0-.305.256-.55.541-.55.305 0 .571.245.571.55v5.098z"/>
</svg>
