<svg xmlns="http://www.w3.org/2000/svg" width="18" height="18" viewBox="0 0 18 18">
    <path fill="#343434" fill-rule="evenodd" d="M.973 6.324h2.068V7.38H.973V6.324zm0 4.219h2.068v1.055H.973v-1.055zM0 8.433h3.04v1.055H0V8.434zM11.048 2.01A6.96 6.96 0 0 1 18 8.96a6.96 6.96 0 0 1-6.952 6.952 6.96 6.96 0 0 1-6.953-6.952 6.96 6.96 0 0 1 6.953-6.952zm0 12.85a5.904 5.904 0 0 0 5.897-5.898 5.904 5.904 0 0 0-5.897-5.898A5.904 5.904 0 0 0 5.15 8.961a5.904 5.904 0 0 0 5.898 5.898zm.34-5.636l2.257 1.538-.594.872-2.718-1.852V5.816h1.055v3.407z"/>
</svg>
