<svg xmlns="http://www.w3.org/2000/svg" width="17" height="18" viewBox="0 0 17 18">
    <path fill="#343434" fill-rule="evenodd" d="M3.3 1.5a1.8 1.8 0 1 1 0 3.6 1.8 1.8 0 0 1 0-3.6zm0 3a1.2 1.2 0 1 0 0-2.4 1.2 1.2 0 0 0 0 2.4zm3.287 7.414a.3.3 0 0 1-.287.386H5.1v3.9a.3.3 0 0 1-.3.3h-3a.3.3 0 0 1-.3-.3v-3.9H.3a.3.3 0 0 1-.287-.386l1.8-6A.3.3 0 0 1 2.1 5.7h2.4a.3.3 0 0 1 .287.214l1.8 6zM4.8 11.7h1.097l-1.62-5.4H2.323l-1.62 5.4H1.8a.3.3 0 0 1 .3.3v3.9H3v-4.2h.6v4.2h.9V12a.3.3 0 0 1 .3-.3zm8.7-10.2a1.8 1.8 0 1 1 0 3.6 1.8 1.8 0 0 1 0-3.6zm0 3a1.2 1.2 0 1 0 0-2.4 1.2 1.2 0 0 0 0 2.4zm.9 1.2c1.16.001 2.099.94 2.1 2.1V12a.3.3 0 0 1-.3.3h-.9v3.9a.3.3 0 0 1-.3.3h-3a.3.3 0 0 1-.3-.3v-3.9h-.9a.3.3 0 0 1-.3-.3V7.8a2.102 2.102 0 0 1 2.1-2.1h1.8zm1.5 6V7.8a1.502 1.502 0 0 0-1.5-1.5h-1.8a1.502 1.502 0 0 0-1.5 1.5v3.9h.6V8.1h.6v7.8h.9v-4.2h.6v4.2h.9V8.1h.6v3.6h.6zM8.1 0h.6v18h-.6V0z"/>
</svg>
