<svg xmlns="http://www.w3.org/2000/svg" width="18" height="18" viewBox="0 0 18 18">
    <g fill="#343434" fill-rule="evenodd">
        <path d="M8.961 9.624a4.814 4.814 0 0 0 4.813-4.813A4.801 4.801 0 0 0 8.961.013C6.304.013 4.15 2.17 4.15 4.811A4.823 4.823 0 0 0 8.96 9.624zm0-8.356a3.554 3.554 0 0 1 3.544 3.543A3.554 3.554 0 0 1 8.96 8.355 3.554 3.554 0 0 1 5.418 4.81a3.554 3.554 0 0 1 3.543-3.543zM.635 17.139h16.712a.63.63 0 0 0 .635-.635 6.046 6.046 0 0 0-6.038-6.038H6.038A6.046 6.046 0 0 0 0 16.504c0 .354.28.635.635.635zm5.403-5.404h5.906a4.765 4.765 0 0 1 4.724 4.134H1.314c.31-2.318 2.303-4.134 4.724-4.134z"/>
    </g>
</svg>
