<svg xmlns="http://www.w3.org/2000/svg" width="18" height="17" viewBox="0 0 18 17">
    <g fill="#343434" fill-rule="evenodd">
        <path d="M8.99 11.583a.934.934 0 0 0-.924.924c0 .503.421.924.924.924.484 0 .924-.421.902-.902a.902.902 0 0 0-.902-.946z"/>
        <path d="M17.543 14.858a3.155 3.155 0 0 0 .007-3.194L11.762 1.64A3.145 3.145 0 0 0 8.994.033c-1.161 0-2.196.602-2.769 1.604L.43 11.672a3.18 3.18 0 0 0 .01 3.212 3.163 3.163 0 0 0 2.762 1.585h11.561a3.183 3.183 0 0 0 2.78-1.611zm-1.257-.725c-.322.555-.89.884-1.527.884H3.198a1.723 1.723 0 0 1-1.508-.865 1.749 1.749 0 0 1-.004-1.763L7.482 2.357c.314-.55.876-.876 1.512-.876.632 0 1.197.33 1.511.88l5.792 10.031c.31.54.307 1.19-.011 1.741z"/>
        <path d="M8.76 5.096c-.44.126-.713.525-.713 1.01.023.291.041.587.063.879L8.3 10.3c.022.377.314.65.69.65a.691.691 0 0 0 .692-.672c0-.229 0-.44.022-.673.04-.713.085-1.426.126-2.14.022-.462.063-.924.085-1.386 0-.166-.022-.314-.085-.462a.926.926 0 0 0-1.068-.52z"/>
    </g>
</svg>
