<svg xmlns="http://www.w3.org/2000/svg" width="12" height="16" viewBox="0 0 12 16">
    <path fill="#000" fill-rule="nonzero" d="M9.06 3.914C10.562 5.986 12 7.943 12 10.128 12 13.472 9.38 16 5.915 16 2.485 16 0 13.537 0 10.128 0 7.927 1.403 5.953 2.907 3.85c.744-1.06 1.521-2.153 2.13-3.31A.99.99 0 0 1 5.932 0c.372 0 .727.212.896.538.626 1.175 1.437 2.3 2.231 3.376zM5.914 15.348c3.077 0 5.409-2.251 5.409-5.22 0-1.973-1.37-3.849-2.806-5.838-.811-1.11-1.64-2.251-2.281-3.458a.329.329 0 0 0-.305-.18.329.329 0 0 0-.304.18c-.625 1.19-1.42 2.316-2.18 3.392C2.028 6.23.676 8.14.676 10.128c0 3.018 2.197 5.22 5.24 5.22zM4.327 4.795c.152.114.203.31.101.473-.574.816-1.217 1.762-1.69 2.724-.05.114-.186.18-.304.18-.05 0-.102-.017-.152-.033-.17-.082-.254-.278-.17-.44.49-.996 1.167-1.974 1.742-2.822.1-.147.32-.18.473-.082zM2.13 8.514c.185.081.27.26.202.408a2.194 2.194 0 0 0-.135.44.358.358 0 0 1-.338.26h-.067c-.186-.048-.305-.211-.27-.39.033-.18.1-.36.168-.539a.348.348 0 0 1 .44-.18z"/>
</svg>
