<svg xmlns="http://www.w3.org/2000/svg" width="14" height="12" viewBox="0 0 14 12">
    <path fill="#343434" fill-rule="evenodd" d="M6.96 11.986c-.498 0-.901-.42-.901-.939 0-.518.403-.938.9-.938s.9.42.9.938c0 .519-.403.939-.9.939zm6.866-8.862c.206.23.194.59-.027.804a.532.532 0 0 1-.771-.028c-1.585-1.772-3.73-2.748-6.042-2.748-2.31 0-4.456.976-6.04 2.748a.53.53 0 0 1-.772.028.586.586 0 0 1-.027-.804C1.94 1.12 4.369.014 6.987.014c2.616 0 5.045 1.105 6.84 3.11zm-2.004 2.349a.586.586 0 0 1-.003.804.533.533 0 0 1-.772-.003c-1.12-1.175-2.561-1.822-4.06-1.822-1.5 0-2.943.647-4.062 1.822a.53.53 0 0 1-.771.003.586.586 0 0 1-.003-.804C3.476 4.08 5.193 3.314 6.986 3.314c1.793 0 3.51.767 4.836 2.159zM9.638 7.828a.586.586 0 0 1 .003.804.53.53 0 0 1-.772.004c-.505-.522-1.246-.859-1.888-.859h-.04c-.642 0-1.383.337-1.888.86a.533.533 0 0 1-.772-.005.586.586 0 0 1 .004-.804c.71-.733 1.728-1.188 2.656-1.188h.04c.929 0 1.947.455 2.657 1.188z"/>
</svg>
