<svg xmlns="http://www.w3.org/2000/svg" width="10" height="10" viewBox="0 0 10 10">
    <path fill="#D0021B" fill-rule="nonzero" d="M6.438 5.16a.22.22 0 0 1 0-.32l3.425-3.424a.493.493 0 0 0 .137-.32.493.493 0 0 0-.137-.32l-.64-.639A.493.493 0 0 0 8.905 0a.415.415 0 0 0-.32.137L5.16 3.562a.22.22 0 0 1-.32 0L1.416.137A.493.493 0 0 0 1.096 0a.493.493 0 0 0-.32.137l-.639.64A.493.493 0 0 0 0 1.095c0 .091.046.228.137.32L3.562 4.84a.22.22 0 0 1 0 .32L.137 8.584a.493.493 0 0 0-.137.32c0 .091.046.228.137.32l.64.639a.493.493 0 0 0 .319.137.493.493 0 0 0 .32-.137L4.84 6.438a.22.22 0 0 1 .32 0l3.424 3.425a.493.493 0 0 0 .32.137.493.493 0 0 0 .32-.137l.639-.64A.493.493 0 0 0 10 8.905a.493.493 0 0 0-.137-.32L6.438 5.16z"/>
</svg>
